Exile.ufo
<glyph name="exclam" format="1">
  <unicode hex="0021"/>
  <advance width="362"/>
  <outline>
    <contour>
      <point x="50" y="102" type="curve" smooth="yes"/>
      <point x="50" y="30"/>
      <point x="102" y="-18"/>
      <point x="180" y="-18" type="curve" smooth="yes"/>
      <point x="257" y="-18"/>
      <point x="309" y="30"/>
      <point x="309" y="102" type="curve" smooth="yes"/>
      <point x="309" y="173"/>
      <point x="257" y="221"/>
      <point x="180" y="221" type="curve" smooth="yes"/>
      <point x="102" y="221"/>
      <point x="50" y="173"/>
    </contour>
    <contour>
      <point x="25" y="700" type="line"/>
      <point x="25" y="530" type="line"/>
      <point x="31" y="530" type="line" smooth="yes"/>
      <point x="61" y="530"/>
      <point x="81" y="510"/>
      <point x="81" y="480" type="curve" smooth="yes"/>
      <point x="81" y="278" type="line"/>
      <point x="281" y="278" type="line"/>
      <point x="281" y="480" type="line" smooth="yes"/>
      <point x="281" y="510"/>
      <point x="301" y="530"/>
      <point x="331" y="530" type="curve" smooth="yes"/>
      <point x="337" y="530" type="line"/>
      <point x="337" y="700" type="line"/>
    </contour>
  </outline>
</glyph>
<glyph name="quotedbl" format="1">
  <unicode hex="0022"/>
  <advance width="500"/>
  <outline>
    <contour>
      <point x="25" y="771" type="line"/>
      <point x="225" y="771" type="line"/>
      <point x="225" y="411" type="line"/>
      <point x="25" y="411" type="line"/>
    </contour>
    <contour>
      <point x="275" y="771" type="line"/>
      <point x="475" y="771" type="line"/>
      <point x="475" y="411" type="line"/>
      <point x="275" y="411" type="line"/>
    </contour>
  </outline>
</glyph>
<glyph name="numbersign" format="1">
  <unicode hex="0023"/>
  <advance width="868"/>
  <outline>
    <contour>
      <point x="25" y="190" type="line"/>
      <point x="139" y="190" type="line"/>
      <point x="88" y="-31" type="line"/>
      <point x="282" y="-31" type="line"/>
      <point x="378" y="389" type="line"/>
      <point x="451" y="389" type="line"/>
      <point x="481" y="526" type="line"/>
      <point x="372" y="526" type="line"/>
      <point x="270" y="526" type="line"/>
      <point x="219" y="526" type="line"/>
      <point x="104" y="526" type="line"/>
      <point x="72" y="389" type="line"/>
      <point x="186" y="389" type="line"/>
      <point x="171" y="326" type="line"/>
      <point x="57" y="326" type="line"/>
    </contour>
    <contour>
      <point x="409.558" y="525.997" type="line"/>
      <point x="415.158" y="547.889"/>
      <point x="422.286" y="585.053"/>
      <point x="422.286" y="615.599" type="curve" smooth="yes"/>
      <point x="422.286" y="698.582"/>
      <point x="369.848" y="770.875"/>
      <point x="276.174" y="770.875" type="curve" smooth="yes"/>
      <point x="198.791" y="770.875"/>
      <point x="136.681" y="721.492"/>
      <point x="136.681" y="636.472" type="curve" smooth="yes"/>
      <point x="136.681" y="591.671"/>
      <point x="153.99" y="566.216"/>
      <point x="179.445" y="552.471" type="curve"/>
      <point x="183.518" y="560.107"/>
      <point x="193.191" y="568.762"/>
      <point x="204.391" y="568.762" type="curve" smooth="yes"/>
      <point x="215.591" y="568.762"/>
      <point x="222.718" y="560.616"/>
      <point x="222.718" y="548.907" type="curve" smooth="yes"/>
      <point x="222.718" y="543.816"/>
      <point x="220.682" y="534.652"/>
      <point x="218.646" y="525.997" type="curve"/>
    </contour>
    <contour>
      <point x="842.76" y="526" type="line"/>
      <point x="728.76" y="526" type="line"/>
      <point x="779.76" y="747" type="line"/>
      <point x="585.76" y="747" type="line"/>
      <point x="489.76" y="327" type="line"/>
      <point x="416.76" y="327" type="line"/>
      <point x="386.76" y="190" type="line"/>
      <point x="495.76" y="190" type="line"/>
      <point x="597.76" y="190" type="line"/>
      <point x="648.76" y="190" type="line"/>
      <point x="763.76" y="190" type="line"/>
      <point x="795.76" y="327" type="line"/>
      <point x="681.76" y="327" type="line"/>
      <point x="696.76" y="390" type="line"/>
      <point x="810.76" y="390" type="line"/>
    </contour>
    <contour>
      <point x="457.637" y="190.443" type="line"/>
      <point x="452.037" y="168.551"/>
      <point x="444.91" y="131.387"/>
      <point x="444.91" y="100.841" type="curve" smooth="yes"/>
      <point x="444.91" y="17.8579"/>
      <point x="497.347" y="-54.4343"/>
      <point x="591.021" y="-54.4343" type="curve" smooth="yes"/>
      <point x="668.405" y="-54.4343"/>
      <point x="730.515" y="-5.05162"/>
      <point x="730.515" y="79.9681" type="curve" smooth="yes"/>
      <point x="730.515" y="124.769"/>
      <point x="713.205" y="150.224"/>
      <point x="687.75" y="163.97" type="curve"/>
      <point x="683.678" y="156.333"/>
      <point x="674.005" y="147.678"/>
      <point x="662.804" y="147.678" type="curve" smooth="yes"/>
      <point x="651.604" y="147.678"/>
      <point x="644.477" y="155.824"/>
      <point x="644.477" y="167.533" type="curve" smooth="yes"/>
      <point x="644.477" y="172.624"/>
      <point x="646.513" y="181.788"/>
      <point x="648.55" y="190.443" type="curve"/>
    </contour>
  </outline>
</glyph>
<glyph name="percent" format="1">
  <unicode hex="0025"/>
  <advance width="931"/>
  <outline>
    <contour>
      <point x="168" y="0" type="line"/>
      <point x="362" y="0" type="line"/>
      <point x="751" y="699" type="line"/>
      <point x="557" y="699" type="line"/>
    </contour>
    <contour>
      <point x="231.196" y="455.165" type="line"/>
      <point x="226.196" y="426.165"/>
      <point x="214.196" y="407.165"/>
      <point x="192.196" y="407.165" type="curve" smooth="yes"/>
      <point x="174.196" y="407.165"/>
      <point x="157.196" y="419.165"/>
      <point x="157.196" y="445.165" type="curve" smooth="yes"/>
      <point x="157.196" y="457.165"/>
      <point x="161.196" y="467.165"/>
      <point x="170.196" y="467.165" type="curve" smooth="yes"/>
      <point x="173.196" y="467.165"/>
      <point x="176.196" y="466.165"/>
      <point x="177.196" y="464.165" type="curve"/>
      <point x="186.196" y="473.165"/>
      <point x="190.196" y="483.165"/>
      <point x="190.196" y="496.165" type="curve" smooth="yes"/>
      <point x="190.196" y="536.165"/>
      <point x="154.196" y="560.165"/>
      <point x="117.196" y="560.165" type="curve" smooth="yes"/>
      <point x="74.1963" y="560.165"/>
      <point x="40.1963" y="528.165"/>
      <point x="40.1963" y="469.165" type="curve" smooth="yes"/>
      <point x="40.1963" y="390.165"/>
      <point x="97.1963" y="318.165"/>
      <point x="200.196" y="318.165" type="curve" smooth="yes"/>
      <point x="289.196" y="318.165"/>
      <point x="348.196" y="367.165"/>
      <point x="357.196" y="455.165" type="curve"/>
    </contour>
    <contour>
      <point x="172.196" y="581.165" type="line"/>
      <point x="177.196" y="610.165"/>
      <point x="190.196" y="629.165"/>
      <point x="211.196" y="629.165" type="curve" smooth="yes"/>
      <point x="229.196" y="629.165"/>
      <point x="247.196" y="617.165"/>
      <point x="247.196" y="591.165" type="curve" smooth="yes"/>
      <point x="247.196" y="579.165"/>
      <point x="242.196" y="569.165"/>
      <point x="234.196" y="569.165" type="curve" smooth="yes"/>
      <point x="230.196" y="569.165"/>
      <point x="228.196" y="570.165"/>
      <point x="226.196" y="572.165" type="curve"/>
      <point x="217.196" y="563.165"/>
      <point x="214.196" y="553.165"/>
      <point x="214.196" y="540.165" type="curve" smooth="yes"/>
      <point x="214.196" y="500.165"/>
      <point x="249.196" y="476.165"/>
      <point x="286.196" y="476.165" type="curve" smooth="yes"/>
      <point x="329.196" y="476.165"/>
      <point x="363.196" y="508.165"/>
      <point x="363.196" y="567.165" type="curve" smooth="yes"/>
      <point x="363.196" y="646.165"/>
      <point x="306.196" y="718.165"/>
      <point x="203.196" y="718.165" type="curve" smooth="yes"/>
      <point x="114.196" y="718.165"/>
      <point x="55.1963" y="669.165"/>
      <point x="46.1963" y="581.165" type="curve"/>
    </contour>
    <contour>
      <point x="734.174" y="118.773" type="line"/>
      <point x="729.174" y="89.773"/>
      <point x="717.174" y="70.773"/>
      <point x="695.174" y="70.773" type="curve" smooth="yes"/>
      <point x="677.174" y="70.773"/>
      <point x="660.174" y="82.773"/>
      <point x="660.174" y="108.773" type="curve" smooth="yes"/>
      <point x="660.174" y="120.773"/>
      <point x="664.174" y="130.773"/>
      <point x="673.174" y="130.773" type="curve" smooth="yes"/>
      <point x="676.174" y="130.773"/>
      <point x="679.174" y="129.773"/>
      <point x="680.174" y="127.773" type="curve"/>
      <point x="689.174" y="136.773"/>
      <point x="693.174" y="146.773"/>
      <point x="693.174" y="159.773" type="curve" smooth="yes"/>
      <point x="693.174" y="199.773"/>
      <point x="657.174" y="223.773"/>
      <point x="620.174" y="223.773" type="curve" smooth="yes"/>
      <point x="577.174" y="223.773"/>
      <point x="543.174" y="191.773"/>
      <point x="543.174" y="132.773" type="curve" smooth="yes"/>
      <point x="543.174" y="53.773"/>
      <point x="600.174" y="-18.227"/>
      <point x="703.174" y="-18.227" type="curve" smooth="yes"/>
      <point x="792.174" y="-18.227"/>
      <point x="851.174" y="30.773"/>
      <point x="860.174" y="118.773" type="curve"/>
    </contour>
    <contour>
      <point x="675.174" y="244.773" type="line"/>
      <point x="680.174" y="273.773"/>
      <point x="693.174" y="292.773"/>
      <point x="714.174" y="292.773" type="curve" smooth="yes"/>
      <point x="732.174" y="292.773"/>
      <point x="750.174" y="280.773"/>
      <point x="750.174" y="254.773" type="curve" smooth="yes"/>
      <point x="750.174" y="242.773"/>
      <point x="745.174" y="232.773"/>
      <point x="737.174" y="232.773" type="curve" smooth="yes"/>
      <point x="733.174" y="232.773"/>
      <point x="731.174" y="233.773"/>
      <point x="729.174" y="235.773" type="curve"/>
      <point x="720.174" y="226.773"/>
      <point x="717.174" y="216.773"/>
      <point x="717.174" y="203.773" type="curve" smooth="yes"/>
      <point x="717.174" y="163.773"/>
      <point x="752.174" y="139.773"/>
      <point x="789.174" y="139.773" type="curve" smooth="yes"/>
      <point x="832.174" y="139.773"/>
      <point x="866.174" y="171.773"/>
      <point x="866.174" y="230.773" type="curve" smooth="yes"/>
      <point x="866.174" y="309.773"/>
      <point x="809.174" y="381.773"/>
      <point x="706.174" y="381.773" type="curve" smooth="yes"/>
      <point x="617.174" y="381.773"/>
      <point x="558.174" y="332.773"/>
      <point x="549.174" y="244.773" type="curve"/>
    </contour>
  </outline>
</glyph>
<glyph name="ampersand" format="1">
  <unicode hex="0026"/>
  <advance width="909"/>
  <outline>
    <contour>
      <point x="172" y="488" type="curve" smooth="yes"/>
      <point x="171" y="625"/>
      <point x="271" y="718"/>
      <point x="413" y="717" type="curve" smooth="yes"/>
      <point x="543" y="717"/>
      <point x="635" y="639"/>
      <point x="636" y="531" type="curve" smooth="yes"/>
      <point x="637" y="452"/>
      <point x="589" y="392"/>
      <point x="523" y="392" type="curve" smooth="yes"/>
      <point x="472" y="392"/>
      <point x="429" y="429"/>
      <point x="429" y="469" type="curve" smooth="yes"/>
      <point x="429" y="483"/>
      <point x="434" y="494"/>
      <point x="439" y="505" type="curve"/>
      <point x="442" y="502"/>
      <point x="445" y="501"/>
      <point x="448" y="501" type="curve" smooth="yes"/>
      <point x="457" y="501"/>
      <point x="466" y="514"/>
      <point x="466" y="525" type="curve" smooth="yes"/>
      <point x="466" y="542"/>
      <point x="443" y="562"/>
      <point x="415" y="562" type="curve" smooth="yes"/>
      <point x="387" y="562"/>
      <point x="358" y="541"/>
      <point x="358" y="498" type="curve" smooth="yes"/>
      <point x="358" y="473"/>
      <point x="368" y="447"/>
      <point x="423" y="386" type="curve" smooth="yes"/>
      <point x="590" y="202" type="line" smooth="yes"/>
      <point x="627" y="161"/>
      <point x="650" y="145"/>
      <point x="675" y="145" type="curve" smooth="yes"/>
      <point x="695" y="145"/>
      <point x="708" y="155"/>
      <point x="708" y="169" type="curve" smooth="yes"/>
      <point x="708" y="183"/>
      <point x="698" y="193"/>
      <point x="690" y="196" type="curve"/>
      <point x="699" y="223"/>
      <point x="730" y="257"/>
      <point x="779" y="257" type="curve" smooth="yes"/>
      <point x="837" y="256"/>
      <point x="877" y="208"/>
      <point x="877" y="142" type="curve" smooth="yes"/>
      <point x="878" y="49"/>
      <point x="798" y="-18"/>
      <point x="685" y="-18" type="curve" smooth="yes"/>
      <point x="588" y="-18"/>
      <point x="528" y="7"/>
      <point x="464" y="78" type="curve" smooth="yes"/>
      <point x="260" y="302" type="line" smooth="yes"/>
      <point x="196" y="372"/>
      <point x="173" y="423"/>
    </contour>
    <contour>
      <point x="784" y="321" type="line" smooth="yes"/>
      <point x="754" y="321"/>
      <point x="719" y="307"/>
      <point x="697" y="287" type="curve" smooth="yes"/>
      <point x="636" y="231" type="line"/>
      <point x="555" y="320" type="line"/>
      <point x="673" y="431" type="line"/>
      <point x="814" y="431" type="line"/>
      <point x="814" y="321" type="line"/>
    </contour>
    <contour>
      <point x="128" y="368" type="curve"/>
      <point x="244" y="241" type="line"/>
      <point x="212" y="212"/>
      <point x="195" y="187"/>
      <point x="195" y="164" type="curve" smooth="yes"/>
      <point x="195" y="139"/>
      <point x="216" y="122"/>
      <point x="248" y="122" type="curve" smooth="yes"/>
      <point x="274" y="122"/>
      <point x="299" y="133"/>
      <point x="322" y="155" type="curve"/>
      <point x="402" y="67" type="line"/>
      <point x="362" y="30"/>
      <point x="291" y="-18"/>
      <point x="202" y="-18" type="curve" smooth="yes"/>
      <point x="91" y="-18"/>
      <point x="10" y="57"/>
      <point x="10" y="158" type="curve" smooth="yes"/>
      <point x="10" y="223"/>
      <point x="44" y="290"/>
    </contour>
  </outline>
</glyph>
<glyph name="parenleft" format="1">
  <unicode hex="0028"/>
  <advance width="422"/>
  <outline>
    <contour>
      <point x="397" y="68" type="curve" smooth="yes"/>
      <point x="397" y="-6"/>
      <point x="335" y="-54"/>
      <point x="249" y="-54" type="curve" smooth="yes"/>
      <point x="115" y="-54"/>
      <point x="25" y="92"/>
      <point x="25" y="359" type="curve" smooth="yes"/>
      <point x="25" y="619"/>
      <point x="115" y="771"/>
      <point x="249" y="771" type="curve" smooth="yes"/>
      <point x="335" y="771"/>
      <point x="397" y="723"/>
      <point x="397" y="649" type="curve" smooth="yes"/>
      <point x="397" y="595"/>
      <point x="361" y="571"/>
      <point x="325" y="571" type="curve" smooth="yes"/>
      <point x="311" y="571"/>
      <point x="297" y="575"/>
      <point x="285" y="583" type="curve"/>
      <point x="288" y="587"/>
      <point x="289" y="591"/>
      <point x="289" y="595" type="curve" smooth="yes"/>
      <point x="289" y="604"/>
      <point x="282" y="609"/>
      <point x="270" y="609" type="curve" smooth="yes"/>
      <point x="224" y="609"/>
      <point x="202" y="509"/>
      <point x="202" y="359" type="curve" smooth="yes"/>
      <point x="202" y="208"/>
      <point x="224" y="108"/>
      <point x="270" y="108" type="curve" smooth="yes"/>
      <point x="282" y="108"/>
      <point x="289" y="113"/>
      <point x="289" y="122" type="curve" smooth="yes"/>
      <point x="289" y="126"/>
      <point x="288" y="130"/>
      <point x="285" y="134" type="curve"/>
      <point x="297" y="142"/>
      <point x="311" y="146"/>
      <point x="325" y="146" type="curve" smooth="yes"/>
      <point x="361" y="146"/>
      <point x="397" y="122"/>
    </contour>
  </outline>
</glyph>
<glyph name="parenright" format="1">
  <unicode hex="0029"/>
  <advance width="422"/>
  <outline>
    <contour>
      <point x="25" y="68" type="curve" smooth="yes"/>
      <point x="25" y="-6"/>
      <point x="87" y="-54"/>
      <point x="173" y="-54" type="curve" smooth="yes"/>
      <point x="307" y="-54"/>
      <point x="397" y="92"/>
      <point x="397" y="359" type="curve" smooth="yes"/>
      <point x="397" y="619"/>
      <point x="307" y="771"/>
      <point x="173" y="771" type="curve" smooth="yes"/>
      <point x="87" y="771"/>
      <point x="25" y="723"/>
      <point x="25" y="649" type="curve" smooth="yes"/>
      <point x="25" y="595"/>
      <point x="61" y="571"/>
      <point x="97" y="571" type="curve" smooth="yes"/>
      <point x="111" y="571"/>
      <point x="125" y="575"/>
      <point x="137" y="583" type="curve"/>
      <point x="134" y="587"/>
      <point x="133" y="591"/>
      <point x="133" y="595" type="curve" smooth="yes"/>
      <point x="133" y="604"/>
      <point x="140" y="609"/>
      <point x="152" y="609" type="curve" smooth="yes"/>
      <point x="198" y="609"/>
      <point x="220" y="509"/>
      <point x="220" y="359" type="curve" smooth="yes"/>
      <point x="220" y="208"/>
      <point x="198" y="108"/>
      <point x="152" y="108" type="curve" smooth="yes"/>
      <point x="140" y="108"/>
      <point x="133" y="113"/>
      <point x="133" y="122" type="curve" smooth="yes"/>
      <point x="133" y="126"/>
      <point x="134" y="130"/>
      <point x="137" y="134" type="curve"/>
      <point x="125" y="142"/>
      <point x="111" y="146"/>
      <point x="97" y="146" type="curve" smooth="yes"/>
      <point x="61" y="146"/>
      <point x="25" y="122"/>
    </contour>
  </outline>
</glyph>
<glyph name="asterisk" format="1">
  <unicode hex="002A"/>
  <advance width="642"/>
  <outline>
    <contour>
      <point x="285" y="503" type="curve"/>
      <point x="366" y="503" type="line"/>
      <point x="407" y="556"/>
      <point x="428" y="605"/>
      <point x="428" y="650" type="curve" smooth="yes"/>
      <point x="428" y="711"/>
      <point x="393" y="774"/>
      <point x="315" y="774" type="curve" smooth="yes"/>
      <point x="257" y="774"/>
      <point x="218" y="734"/>
      <point x="218" y="688" type="curve" smooth="yes"/>
      <point x="218" y="661"/>
      <point x="232" y="634"/>
      <point x="263" y="622" type="curve"/>
      <point x="270" y="635"/>
      <point x="279" y="642"/>
      <point x="290" y="642" type="curve" smooth="yes"/>
      <point x="307" y="642"/>
      <point x="316" y="626"/>
      <point x="316" y="596" type="curve" smooth="yes"/>
      <point x="316" y="549"/>
      <point x="293" y="514"/>
    </contour>
    <contour>
      <point x="279" y="443" type="curve"/>
      <point x="305" y="521" type="line"/>
      <point x="266" y="576"/>
      <point x="226" y="611"/>
      <point x="183" y="625" type="curve" smooth="yes"/>
      <point x="126" y="643"/>
      <point x="55" y="630"/>
      <point x="31" y="556" type="curve" smooth="yes"/>
      <point x="13" y="500"/>
      <point x="38" y="451"/>
      <point x="82" y="437" type="curve" smooth="yes"/>
      <point x="108" y="429"/>
      <point x="138" y="433"/>
      <point x="159" y="459" type="curve"/>
      <point x="148" y="470"/>
      <point x="145" y="481"/>
      <point x="148" y="491" type="curve" smooth="yes"/>
      <point x="153" y="507"/>
      <point x="171" y="511"/>
      <point x="200" y="502" type="curve" smooth="yes"/>
      <point x="245" y="487"/>
      <point x="271" y="454"/>
    </contour>
    <contour>
      <point x="334" y="420" type="curve"/>
      <point x="268" y="467" type="line"/>
      <point x="204" y="448"/>
      <point x="158" y="421"/>
      <point x="132" y="384" type="curve" smooth="yes"/>
      <point x="96" y="335"/>
      <point x="87" y="264"/>
      <point x="151" y="218" type="curve" smooth="yes"/>
      <point x="198" y="184"/>
      <point x="252" y="193"/>
      <point x="279" y="230" type="curve" smooth="yes"/>
      <point x="295" y="252"/>
      <point x="300" y="282"/>
      <point x="282" y="310" type="curve"/>
      <point x="268" y="303"/>
      <point x="257" y="303"/>
      <point x="249" y="309" type="curve" smooth="yes"/>
      <point x="235" y="319"/>
      <point x="237" y="338"/>
      <point x="255" y="362" type="curve" smooth="yes"/>
      <point x="282" y="400"/>
      <point x="321" y="415"/>
    </contour>
    <contour>
      <point x="374" y="464" type="curve"/>
      <point x="308" y="416" type="line"/>
      <point x="306" y="349"/>
      <point x="318" y="298"/>
      <point x="345" y="261" type="curve" smooth="yes"/>
      <point x="380" y="212"/>
      <point x="445" y="181"/>
      <point x="509" y="227" type="curve" smooth="yes"/>
      <point x="556" y="262"/>
      <point x="564" y="316"/>
      <point x="537" y="353" type="curve" smooth="yes"/>
      <point x="521" y="376"/>
      <point x="494" y="389"/>
      <point x="462" y="380" type="curve"/>
      <point x="464" y="366"/>
      <point x="461" y="355"/>
      <point x="452" y="348" type="curve" smooth="yes"/>
      <point x="438" y="339"/>
      <point x="421" y="346"/>
      <point x="403" y="371" type="curve" smooth="yes"/>
      <point x="376" y="409"/>
      <point x="374" y="450"/>
    </contour>
    <contour>
      <point x="343" y="516" type="curve"/>
      <point x="368" y="438" type="line"/>
      <point x="432" y="416"/>
      <point x="484" y="411"/>
      <point x="528" y="425" type="curve" smooth="yes"/>
      <point x="585" y="444"/>
      <point x="634" y="496"/>
      <point x="610" y="571" type="curve" smooth="yes"/>
      <point x="592" y="626"/>
      <point x="543" y="651"/>
      <point x="499" y="637" type="curve" smooth="yes"/>
      <point x="473" y="628"/>
      <point x="452" y="607"/>
      <point x="450" y="574" type="curve"/>
      <point x="465" y="571"/>
      <point x="474" y="565"/>
      <point x="477" y="555" type="curve" smooth="yes"/>
      <point x="483" y="538"/>
      <point x="470" y="525"/>
      <point x="443" y="516" type="curve" smooth="yes"/>
      <point x="397" y="501"/>
      <point x="357" y="512"/>
    </contour>
    <contour>
      <point x="263" y="424" type="line"/>
      <point x="369" y="424" type="line"/>
      <point x="369" y="520" type="line"/>
      <point x="263" y="520" type="line"/>
    </contour>
  </outline>
</glyph>
<glyph name="comma" format="1">
  <unicode hex="002C"/>
  <advance width="323"/>
  <outline>
    <contour>
      <point x="112" y="-128" type="curve"/>
      <point x="218" y="-128" type="line"/>
      <point x="271" y="-58"/>
      <point x="298" y="5"/>
      <point x="298" y="64" type="curve" smooth="yes"/>
      <point x="298" y="143"/>
      <point x="253" y="225"/>
      <point x="151" y="225" type="curve" smooth="yes"/>
      <point x="75" y="225"/>
      <point x="25" y="174"/>
      <point x="25" y="114" type="curve" smooth="yes"/>
      <point x="25" y="78"/>
      <point x="43" y="43"/>
      <point x="83" y="28" type="curve"/>
      <point x="92" y="45"/>
      <point x="104" y="54"/>
      <point x="118" y="54" type="curve" smooth="yes"/>
      <point x="140" y="54"/>
      <point x="152" y="33"/>
      <point x="152" y="-6" type="curve" smooth="yes"/>
      <point x="152" y="-68"/>
      <point x="122" y="-113"/>
    </contour>
    <contour>
      <point x="152.563" y="-111.484" type="move" name="_top"/>
    </contour>
  </outline>
</glyph>
<glyph name="hyphen" format="1">
  <unicode hex="002D"/>
  <advance width="279"/>
  <outline>
    <contour>
      <point x="25" y="268" type="line"/>
      <point x="254" y="268" type="line"/>
      <point x="254" y="433" type="line"/>
      <point x="25" y="433" type="line"/>
    </contour>
  </outline>
</glyph>
<glyph name="period" format="1">
  <unicode hex="002E"/>
  <advance width="309"/>
  <outline>
    <contour>
      <point x="25" y="102" type="curve" smooth="yes"/>
      <point x="25" y="173"/>
      <point x="77" y="221"/>
      <point x="155" y="221" type="curve" smooth="yes"/>
      <point x="232" y="221"/>
      <point x="284" y="173"/>
      <point x="284" y="102" type="curve" smooth="yes"/>
      <point x="284" y="30"/>
      <point x="232" y="-18"/>
      <point x="155" y="-18" type="curve" smooth="yes"/>
      <point x="77" y="-18"/>
      <point x="25" y="30"/>
    </contour>
  </outline>
</glyph>
<glyph name="zero" format="1">
  <unicode hex="0030"/>
  <advance width="636"/>
  <outline>
    <contour>
      <point x="372" y="234" type="line"/>
      <point x="363" y="180"/>
      <point x="340" y="145"/>
      <point x="300" y="145" type="curve" smooth="yes"/>
      <point x="268" y="145"/>
      <point x="235" y="168"/>
      <point x="235" y="216" type="curve" smooth="yes"/>
      <point x="235" y="238"/>
      <point x="244" y="256"/>
      <point x="259" y="256" type="curve" smooth="yes"/>
      <point x="265" y="256"/>
      <point x="270" y="254"/>
      <point x="273" y="251" type="curve"/>
      <point x="289" y="268"/>
      <point x="296" y="286"/>
      <point x="296" y="310" type="curve" smooth="yes"/>
      <point x="296" y="383"/>
      <point x="231" y="428"/>
      <point x="162" y="428" type="curve" smooth="yes"/>
      <point x="83" y="428"/>
      <point x="20" y="368"/>
      <point x="20" y="260" type="curve" smooth="yes"/>
      <point x="20" y="115"/>
      <point x="126" y="-18"/>
      <point x="315" y="-18" type="curve" smooth="yes"/>
      <point x="479" y="-18"/>
      <point x="588" y="71"/>
      <point x="605" y="234" type="curve"/>
    </contour>
    <contour>
      <point x="264" y="466" type="line"/>
      <point x="273" y="520"/>
      <point x="296" y="555"/>
      <point x="336" y="555" type="curve" smooth="yes"/>
      <point x="368" y="555"/>
      <point x="401" y="532"/>
      <point x="401" y="484" type="curve" smooth="yes"/>
      <point x="401" y="462"/>
      <point x="392" y="444"/>
      <point x="377" y="444" type="curve" smooth="yes"/>
      <point x="371" y="444"/>
      <point x="366" y="446"/>
      <point x="363" y="449" type="curve"/>
      <point x="347" y="432"/>
      <point x="340" y="414"/>
      <point x="340" y="390" type="curve" smooth="yes"/>
      <point x="340" y="317"/>
      <point x="405" y="272"/>
      <point x="474" y="272" type="curve" smooth="yes"/>
      <point x="553" y="272"/>
      <point x="616" y="332"/>
      <point x="616" y="440" type="curve" smooth="yes"/>
      <point x="616" y="585"/>
      <point x="510" y="718"/>
      <point x="321" y="718" type="curve" smooth="yes"/>
      <point x="157" y="718"/>
      <point x="48" y="629"/>
      <point x="31" y="466" type="curve"/>
    </contour>
    <contour>
      <point x="315" y="750" type="move" name="top"/>
    </contour>
  </outline>
</glyph>
<glyph name="two" format="1">
  <unicode hex="0032"/>
  <advance width="594"/>
  <outline>
    <contour>
      <point x="424" y="220" type="line" smooth="yes"/>
      <point x="424" y="190"/>
      <point x="404" y="170"/>
      <point x="374" y="170" type="curve" smooth="yes"/>
      <point x="290" y="170" type="line" smooth="yes"/>
      <point x="260" y="170"/>
      <point x="255" y="184"/>
      <point x="277" y="204" type="curve" smooth="yes"/>
      <point x="448" y="362" type="line"/>
      <point x="218" y="362" type="line"/>
      <point x="10" y="170" type="line"/>
      <point x="10" y="155" type="line"/>
      <point x="10" y="0" type="line"/>
      <point x="564" y="0" type="line"/>
      <point x="564" y="285" type="line"/>
      <point x="424" y="285" type="line"/>
    </contour>
    <contour>
      <point x="38" y="700" type="line"/>
      <point x="38" y="451" type="line"/>
      <point x="198" y="451" type="line"/>
      <point x="198" y="520"/>
      <point x="236" y="569"/>
      <point x="293" y="569" type="curve" smooth="yes"/>
      <point x="327" y="569"/>
      <point x="350" y="551"/>
      <point x="350" y="528" type="curve" smooth="yes"/>
      <point x="350" y="512"/>
      <point x="339" y="497"/>
      <point x="328" y="497" type="curve"/>
      <point x="328" y="439"/>
      <point x="372" y="400"/>
      <point x="436" y="400" type="curve" smooth="yes"/>
      <point x="516" y="400"/>
      <point x="559" y="458"/>
      <point x="560" y="533" type="curve" smooth="yes"/>
      <point x="561" y="636"/>
      <point x="483" y="718"/>
      <point x="382" y="718" type="curve" smooth="yes"/>
      <point x="322" y="718"/>
      <point x="231" y="693"/>
      <point x="198" y="596" type="curve"/>
      <point x="198" y="700" type="line"/>
    </contour>
  </outline>
</glyph>
<glyph name="three" format="1">
  <unicode hex="0033"/>
  <advance width="641"/>
  <outline>
    <contour>
      <point x="324" y="-18" type="curve" smooth="yes"/>
      <point x="498" y="-18"/>
      <point x="621" y="74"/>
      <point x="621" y="197" type="curve" smooth="yes"/>
      <point x="621" y="317"/>
      <point x="502" y="383"/>
      <point x="290" y="383" type="curve"/>
      <point x="290" y="309" type="line"/>
      <point x="351" y="309"/>
      <point x="394" y="267"/>
      <point x="394" y="215" type="curve" smooth="yes"/>
      <point x="394" y="170"/>
      <point x="361" y="145"/>
      <point x="310" y="145" type="curve" smooth="yes"/>
      <point x="262" y="145"/>
      <point x="228" y="167"/>
      <point x="228" y="195" type="curve" smooth="yes"/>
      <point x="228" y="209"/>
      <point x="238" y="226"/>
      <point x="257" y="226" type="curve"/>
      <point x="257" y="304"/>
      <point x="216" y="352"/>
      <point x="150" y="352" type="curve" smooth="yes"/>
      <point x="76" y="352"/>
      <point x="21" y="293"/>
      <point x="20" y="211" type="curve" smooth="yes"/>
      <point x="18" y="87"/>
      <point x="139" y="-18"/>
    </contour>
    <contour>
      <point x="64" y="700" type="line"/>
      <point x="64" y="451" type="line"/>
      <point x="224" y="451" type="line"/>
      <point x="224" y="520"/>
      <point x="262" y="569"/>
      <point x="319" y="569" type="curve" smooth="yes"/>
      <point x="353" y="569"/>
      <point x="376" y="551"/>
      <point x="376" y="528" type="curve" smooth="yes"/>
      <point x="376" y="512"/>
      <point x="365" y="497"/>
      <point x="354" y="497" type="curve"/>
      <point x="354" y="439"/>
      <point x="398" y="400"/>
      <point x="462" y="400" type="curve" smooth="yes"/>
      <point x="542" y="400"/>
      <point x="585" y="458"/>
      <point x="586" y="533" type="curve" smooth="yes"/>
      <point x="587" y="636"/>
      <point x="509" y="718"/>
      <point x="408" y="718" type="curve" smooth="yes"/>
      <point x="348" y="718"/>
      <point x="257" y="693"/>
      <point x="224" y="596" type="curve"/>
      <point x="224" y="700" type="line"/>
    </contour>
  </outline>
</glyph>
<glyph name="six" format="1">
  <unicode hex="0036"/>
  <advance width="641"/>
  <outline>
    <contour>
      <point x="324" y="-18" type="curve" smooth="yes"/>
      <point x="496" y="-18"/>
      <point x="621" y="76"/>
      <point x="621" y="206" type="curve" smooth="yes"/>
      <point x="621" y="329"/>
      <point x="508" y="393"/>
      <point x="290" y="393" type="curve"/>
      <point x="290" y="319" type="line"/>
      <point x="352" y="319"/>
      <point x="394" y="281"/>
      <point x="394" y="225" type="curve" smooth="yes"/>
      <point x="394" y="175"/>
      <point x="361" y="145"/>
      <point x="308" y="145" type="curve" smooth="yes"/>
      <point x="263" y="145"/>
      <point x="228" y="167"/>
      <point x="228" y="195" type="curve" smooth="yes"/>
      <point x="228" y="212"/>
      <point x="241" y="226"/>
      <point x="257" y="226" type="curve"/>
      <point x="257" y="302"/>
      <point x="212" y="352"/>
      <point x="144" y="352" type="curve" smooth="yes"/>
      <point x="71" y="352"/>
      <point x="21" y="295"/>
      <point x="20" y="211" type="curve" smooth="yes"/>
      <point x="18" y="80"/>
      <point x="148" y="-18"/>
    </contour>
    <contour>
      <point x="356" y="579" type="curve" smooth="yes"/>
      <point x="291" y="579"/>
      <point x="239" y="501"/>
      <point x="239" y="403" type="curve"/>
      <point x="39" y="403" type="line"/>
      <point x="39" y="591"/>
      <point x="164" y="718"/>
      <point x="351" y="718" type="curve" smooth="yes"/>
      <point x="496" y="718"/>
      <point x="600" y="638"/>
      <point x="600" y="526" type="curve" smooth="yes"/>
      <point x="600" y="457"/>
      <point x="560" y="410"/>
      <point x="496" y="410" type="curve" smooth="yes"/>
      <point x="436" y="410"/>
      <point x="395" y="452"/>
      <point x="395" y="516" type="curve"/>
      <point x="411" y="516"/>
      <point x="420" y="523"/>
      <point x="420" y="535" type="curve" smooth="yes"/>
      <point x="420" y="558"/>
      <point x="390" y="579"/>
    </contour>
  </outline>
</glyph>
<glyph name="eight" format="1">
  <unicode hex="0038"/>
  <advance width="641"/>
  <outline>
    <contour>
      <point x="323.024" y="-18" type="curve" smooth="yes"/>
      <point x="498.024" y="-18"/>
      <point x="621.024" y="78"/>
      <point x="621.024" y="192" type="curve" smooth="yes"/>
      <point x="621.024" y="318"/>
      <point x="471.024" y="365"/>
      <point x="288.024" y="365" type="curve"/>
      <point x="288.024" y="291" type="line"/>
      <point x="357.024" y="291"/>
      <point x="394.024" y="252"/>
      <point x="394.024" y="212" type="curve" smooth="yes"/>
      <point x="394.024" y="175"/>
      <point x="361.024" y="145"/>
      <point x="308.024" y="145" type="curve" smooth="yes"/>
      <point x="262.024" y="145"/>
      <point x="228.024" y="167"/>
      <point x="228.024" y="195" type="curve" smooth="yes"/>
      <point x="228.024" y="209"/>
      <point x="238.024" y="226"/>
      <point x="257.024" y="226" type="curve"/>
      <point x="257.024" y="304"/>
      <point x="218.024" y="352"/>
      <point x="144.024" y="352" type="curve" smooth="yes"/>
      <point x="61.0244" y="352"/>
      <point x="21.0244" y="293"/>
      <point x="20.0244" y="219" type="curve" smooth="yes"/>
      <point x="18.0244" y="87"/>
      <point x="139.024" y="-18"/>
    </contour>
    <contour>
      <point x="316.572" y="717.43" type="curve" smooth="yes"/>
      <point x="168.539" y="717.43"/>
      <point x="64.4936" y="636.224"/>
      <point x="64.4936" y="539.791" type="curve" smooth="yes"/>
      <point x="64.4936" y="433.208"/>
      <point x="191.379" y="393.451"/>
      <point x="346.178" y="393.451" type="curve"/>
      <point x="346.178" y="456.047" type="line"/>
      <point x="287.811" y="456.047"/>
      <point x="256.513" y="489.037"/>
      <point x="256.513" y="522.873" type="curve" smooth="yes"/>
      <point x="256.513" y="554.172"/>
      <point x="284.428" y="579.549"/>
      <point x="329.26" y="579.549" type="curve" smooth="yes"/>
      <point x="368.172" y="579.549"/>
      <point x="396.932" y="560.939"/>
      <point x="396.932" y="537.254" type="curve" smooth="yes"/>
      <point x="396.932" y="525.411"/>
      <point x="388.473" y="511.031"/>
      <point x="372.401" y="511.031" type="curve"/>
      <point x="372.401" y="445.051"/>
      <point x="405.391" y="404.447"/>
      <point x="467.988" y="404.447" type="curve" smooth="yes"/>
      <point x="538.198" y="404.447"/>
      <point x="572.034" y="454.356"/>
      <point x="572.879" y="516.952" type="curve" smooth="yes"/>
      <point x="574.571" y="628.611"/>
      <point x="472.217" y="717.43"/>
    </contour>
  </outline>
</glyph>
<glyph name="nine" format="1">
  <unicode hex="0039"/>
  <advance width="607"/>
  <outline>
    <contour>
      <point x="302" y="718" type="curve" smooth="yes"/>
      <point x="146" y="718"/>
      <point x="20" y="632"/>
      <point x="20" y="514" type="curve" smooth="yes"/>
      <point x="20" y="397"/>
      <point x="142" y="328"/>
      <point x="330" y="328" type="curve"/>
      <point x="330" y="398" type="line"/>
      <point x="268" y="398"/>
      <point x="221" y="436"/>
      <point x="221" y="485" type="curve" smooth="yes"/>
      <point x="221" y="530"/>
      <point x="259" y="563"/>
      <point x="313" y="563" type="curve" smooth="yes"/>
      <point x="356" y="563"/>
      <point x="389" y="542"/>
      <point x="389" y="513" type="curve" smooth="yes"/>
      <point x="389" y="498"/>
      <point x="380" y="486"/>
      <point x="362" y="486" type="curve"/>
      <point x="362" y="414"/>
      <point x="406" y="366"/>
      <point x="471" y="366" type="curve" smooth="yes"/>
      <point x="539" y="366"/>
      <point x="586" y="420"/>
      <point x="587" y="500" type="curve" smooth="yes"/>
      <point x="589" y="624"/>
      <point x="466" y="718"/>
    </contour>
    <contour>
      <point x="284" y="145" type="curve" smooth="yes"/>
      <point x="347" y="145"/>
      <point x="371" y="193"/>
      <point x="371" y="287" type="curve"/>
      <point x="371" y="317" type="line"/>
      <point x="571" y="317" type="line"/>
      <point x="571" y="287" type="line"/>
      <point x="571" y="116"/>
      <point x="478" y="-18"/>
      <point x="298" y="-18" type="curve" smooth="yes"/>
      <point x="153" y="-18"/>
      <point x="37" y="62"/>
      <point x="37" y="178" type="curve" smooth="yes"/>
      <point x="37" y="254"/>
      <point x="86" y="307"/>
      <point x="154" y="307" type="curve" smooth="yes"/>
      <point x="214" y="307"/>
      <point x="255" y="266"/>
      <point x="255" y="194" type="curve"/>
      <point x="239" y="194"/>
      <point x="228" y="186"/>
      <point x="228" y="174" type="curve" smooth="yes"/>
      <point x="228" y="158"/>
      <point x="247" y="145"/>
    </contour>
  </outline>
</glyph>
<glyph name="colon" format="1">
  <unicode hex="003A"/>
  <advance width="309"/>
  <outline>
    <contour>
      <point x="25" y="102" type="curve" smooth="yes"/>
      <point x="25" y="173"/>
      <point x="77" y="221"/>
      <point x="155" y="221" type="curve" smooth="yes"/>
      <point x="232" y="221"/>
      <point x="284" y="173"/>
      <point x="284" y="102" type="curve" smooth="yes"/>
      <point x="284" y="30"/>
      <point x="232" y="-18"/>
      <point x="155" y="-18" type="curve" smooth="yes"/>
      <point x="77" y="-18"/>
      <point x="25" y="30"/>
    </contour>
    <contour>
      <point x="25" y="445" type="curve" smooth="yes"/>
      <point x="25" y="516"/>
      <point x="77" y="564"/>
      <point x="155" y="564" type="curve" smooth="yes"/>
      <point x="232" y="564"/>
      <point x="284" y="516"/>
      <point x="284" y="445" type="curve" smooth="yes"/>
      <point x="284" y="373"/>
      <point x="232" y="325"/>
      <point x="155" y="325" type="curve" smooth="yes"/>
      <point x="77" y="325"/>
      <point x="25" y="373"/>
    </contour>
  </outline>
</glyph>
<glyph name="semicolon" format="1">
  <unicode hex="003B"/>
  <advance width="323"/>
  <outline>
    <contour>
      <point x="28" y="445" type="curve" smooth="yes"/>
      <point x="28" y="373"/>
      <point x="80" y="325"/>
      <point x="158" y="325" type="curve" smooth="yes"/>
      <point x="235" y="325"/>
      <point x="287" y="373"/>
      <point x="287" y="445" type="curve" smooth="yes"/>
      <point x="287" y="516"/>
      <point x="235" y="564"/>
      <point x="158" y="564" type="curve" smooth="yes"/>
      <point x="80" y="564"/>
      <point x="28" y="516"/>
    </contour>
    <contour>
      <point x="112" y="-128" type="curve"/>
      <point x="218" y="-128" type="line"/>
      <point x="271" y="-58"/>
      <point x="298" y="-15"/>
      <point x="298" y="54" type="curve" smooth="yes"/>
      <point x="298" y="143"/>
      <point x="253" y="221"/>
      <point x="151" y="221" type="curve" smooth="yes"/>
      <point x="75" y="221"/>
      <point x="25" y="174"/>
      <point x="25" y="114" type="curve" smooth="yes"/>
      <point x="25" y="78"/>
      <point x="43" y="43"/>
      <point x="83" y="28" type="curve"/>
      <point x="92" y="45"/>
      <point x="104" y="54"/>
      <point x="118" y="54" type="curve" smooth="yes"/>
      <point x="140" y="54"/>
      <point x="152" y="33"/>
      <point x="152" y="-6" type="curve" smooth="yes"/>
      <point x="152" y="-68"/>
      <point x="122" y="-113"/>
    </contour>
  </outline>
</glyph>
<glyph name="greater" format="1">
  <unicode hex="003E"/>
  <advance width="532"/>
  <outline>
    <contour>
      <point x="507" y="394" type="curve" smooth="yes"/>
      <point x="508" y="451"/>
      <point x="463" y="491"/>
      <point x="409" y="491" type="curve" smooth="yes"/>
      <point x="359" y="491"/>
      <point x="318" y="457"/>
      <point x="318" y="405" type="curve"/>
      <point x="328" y="405"/>
      <point x="335" y="400"/>
      <point x="335" y="391" type="curve" smooth="yes"/>
      <point x="335" y="383"/>
      <point x="329" y="376"/>
      <point x="321" y="373" type="curve" smooth="yes"/>
      <point x="105" y="274" type="line" smooth="yes"/>
      <point x="59" y="253"/>
      <point x="25" y="214"/>
      <point x="25" y="160" type="curve" smooth="yes"/>
      <point x="25" y="105"/>
      <point x="61" y="56"/>
      <point x="120" y="58" type="curve" smooth="yes"/>
      <point x="172" y="59"/>
      <point x="211" y="98"/>
      <point x="211" y="145" type="curve"/>
      <point x="203" y="145"/>
      <point x="193" y="150"/>
      <point x="193" y="159" type="curve" smooth="yes"/>
      <point x="193" y="166"/>
      <point x="200" y="173"/>
      <point x="207" y="176" type="curve" smooth="yes"/>
      <point x="428" y="277" type="line"/>
      <point x="472" y="298"/>
      <point x="506" y="345"/>
    </contour>
    <contour>
      <point x="337" y="546" type="line"/>
      <point x="201" y="624" type="line" smooth="yes"/>
      <point x="181" y="635"/>
      <point x="157" y="642"/>
      <point x="132" y="642" type="curve" smooth="yes"/>
      <point x="71" y="642"/>
      <point x="25" y="600"/>
      <point x="25" y="542" type="curve" smooth="yes"/>
      <point x="25" y="488"/>
      <point x="65" y="445"/>
      <point x="114" y="445" type="curve" smooth="yes"/>
      <point x="131" y="445"/>
      <point x="147" y="449"/>
      <point x="161" y="460" type="curve"/>
      <point x="158" y="464"/>
      <point x="156" y="468"/>
      <point x="156" y="472" type="curve" smooth="yes"/>
      <point x="156" y="480"/>
      <point x="164" y="484"/>
      <point x="172" y="484" type="curve"/>
      <point x="172" y="484"/>
      <point x="180" y="484"/>
      <point x="186" y="481" type="curve" smooth="yes"/>
      <point x="272" y="431" type="line"/>
    </contour>
  </outline>
</glyph>
<glyph name="question" format="1">
  <unicode hex="003F"/>
  <advance width="621"/>
  <outline>
    <contour>
      <point x="309" y="718" type="curve" smooth="yes"/>
      <point x="128" y="718"/>
      <point x="8" y="613"/>
      <point x="10" y="489" type="curve" smooth="yes"/>
      <point x="11" y="407"/>
      <point x="66" y="348"/>
      <point x="140" y="348" type="curve" smooth="yes"/>
      <point x="206" y="348"/>
      <point x="247" y="396"/>
      <point x="247" y="474" type="curve"/>
      <point x="228" y="474"/>
      <point x="218" y="491"/>
      <point x="218" y="505" type="curve" smooth="yes"/>
      <point x="218" y="533"/>
      <point x="252" y="555"/>
      <point x="296" y="555" type="curve" smooth="yes"/>
      <point x="351" y="555"/>
      <point x="384" y="522"/>
      <point x="384" y="465" type="curve" smooth="yes"/>
      <point x="384" y="403"/>
      <point x="346" y="352"/>
      <point x="280" y="352" type="curve"/>
      <point x="280" y="278" type="line"/>
      <point x="492" y="278"/>
      <point x="611" y="351"/>
      <point x="611" y="483" type="curve" smooth="yes"/>
      <point x="611" y="617"/>
      <point x="487" y="718"/>
    </contour>
    <contour>
      <point x="179.049" y="102" type="curve" smooth="yes"/>
      <point x="179.049" y="30"/>
      <point x="231.049" y="-18"/>
      <point x="309.049" y="-18" type="curve" smooth="yes"/>
      <point x="386.049" y="-18"/>
      <point x="438.049" y="30"/>
      <point x="438.049" y="102" type="curve" smooth="yes"/>
      <point x="438.049" y="173"/>
      <point x="386.049" y="221"/>
      <point x="309.049" y="221" type="curve" smooth="yes"/>
      <point x="231.049" y="221"/>
      <point x="179.049" y="173"/>
    </contour>
  </outline>
</glyph>
<glyph name="at" format="1">
  <unicode hex="0040"/>
  <advance width="892"/>
  <outline>
    <contour>
      <point x="411" y="-63" type="curve" smooth="yes"/>
      <point x="523" y="-63"/>
      <point x="596" y="-25"/>
      <point x="596" y="45" type="curve" smooth="yes"/>
      <point x="596" y="94"/>
      <point x="561" y="130"/>
      <point x="515" y="130" type="curve" smooth="yes"/>
      <point x="488" y="130"/>
      <point x="452" y="117"/>
      <point x="441" y="89" type="curve"/>
      <point x="448" y="86"/>
      <point x="452" y="81"/>
      <point x="452" y="74" type="curve" smooth="yes"/>
      <point x="452" y="61"/>
      <point x="430" y="53"/>
      <point x="397" y="53" type="curve" smooth="yes"/>
      <point x="264" y="53"/>
      <point x="170" y="184"/>
      <point x="170" y="350" type="curve" smooth="yes"/>
      <point x="170" y="534"/>
      <point x="280" y="649"/>
      <point x="456" y="649" type="curve" smooth="yes"/>
      <point x="629" y="649"/>
      <point x="724" y="538"/>
      <point x="724" y="350" type="curve" smooth="yes"/>
      <point x="724" y="274"/>
      <point x="708" y="227"/>
      <point x="669" y="227" type="curve" smooth="yes"/>
      <point x="643" y="227"/>
      <point x="627" y="247"/>
      <point x="627" y="282" type="curve" smooth="yes"/>
      <point x="627" y="563" type="line"/>
      <point x="505" y="563" type="line"/>
      <point x="505" y="503" type="line"/>
      <point x="489" y="542"/>
      <point x="450" y="574"/>
      <point x="394" y="574" type="curve" smooth="yes"/>
      <point x="300" y="574"/>
      <point x="235" y="486"/>
      <point x="235" y="339" type="curve" smooth="yes"/>
      <point x="235" y="198"/>
      <point x="295" y="126"/>
      <point x="386" y="126" type="curve" smooth="yes"/>
      <point x="443" y="126"/>
      <point x="485" y="155"/>
      <point x="485" y="200" type="curve" smooth="yes"/>
      <point x="485" y="233"/>
      <point x="463" y="248"/>
      <point x="441" y="248" type="curve" smooth="yes"/>
      <point x="432" y="248"/>
      <point x="424" y="245"/>
      <point x="417" y="241" type="curve"/>
      <point x="419" y="238"/>
      <point x="420" y="236"/>
      <point x="420" y="233" type="curve" smooth="yes"/>
      <point x="420" y="228"/>
      <point x="416" y="225"/>
      <point x="409" y="225" type="curve" smooth="yes"/>
      <point x="385" y="225"/>
      <point x="373" y="263"/>
      <point x="373" y="332" type="curve" smooth="yes"/>
      <point x="373" y="426"/>
      <point x="395" y="474"/>
      <point x="437" y="474" type="curve" smooth="yes"/>
      <point x="473" y="474"/>
      <point x="505" y="438"/>
      <point x="505" y="398" type="curve" smooth="yes"/>
      <point x="505" y="256" type="line" smooth="yes"/>
      <point x="505" y="166"/>
      <point x="572" y="126"/>
      <point x="661" y="126" type="curve" smooth="yes"/>
      <point x="795" y="126"/>
      <point x="872" y="220"/>
      <point x="872" y="367" type="curve" smooth="yes"/>
      <point x="872" y="606"/>
      <point x="707" y="771"/>
      <point x="456" y="771" type="curve" smooth="yes"/>
      <point x="197" y="771"/>
      <point x="20" y="601"/>
      <point x="20" y="351" type="curve" smooth="yes"/>
      <point x="20" y="103"/>
      <point x="177" y="-63"/>
    </contour>
  </outline>
</glyph>
<glyph name="A" format="1">
  <unicode hex="0041"/>
  <advance width="751"/>
  <outline>
    <contour>
      <point x="153" y="530" type="line" smooth="yes"/>
      <point x="183" y="530"/>
      <point x="198" y="511"/>
      <point x="190" y="482" type="curve" smooth="yes"/>
      <point x="163" y="378" type="line"/>
      <point x="343" y="378" type="line"/>
      <point x="373" y="491" type="line"/>
      <point x="441" y="219" type="line" smooth="yes"/>
      <point x="448" y="190"/>
      <point x="433" y="170"/>
      <point x="403" y="170" type="curve" smooth="yes"/>
      <point x="397" y="170" type="line"/>
      <point x="397" y="0" type="line"/>
      <point x="741" y="0" type="line"/>
      <point x="741" y="170" type="line"/>
      <point x="715" y="170" type="line" smooth="yes"/>
      <point x="685" y="170"/>
      <point x="660" y="189"/>
      <point x="653" y="218" type="curve" smooth="yes"/>
      <point x="586" y="482" type="line" smooth="yes"/>
      <point x="579" y="511"/>
      <point x="594" y="530"/>
      <point x="624" y="530" type="curve" smooth="yes"/>
      <point x="630" y="530" type="line"/>
      <point x="630" y="700" type="line"/>
      <point x="137" y="700" type="line"/>
      <point x="137" y="530" type="line"/>
    </contour>
    <contour>
      <point x="10" y="143" type="curve" smooth="yes"/>
      <point x="10" y="44"/>
      <point x="91" y="-18"/>
      <point x="191" y="-18" type="curve" smooth="yes"/>
      <point x="273" y="-18"/>
      <point x="349" y="24"/>
      <point x="349" y="101" type="curve" smooth="yes"/>
      <point x="349" y="164"/>
      <point x="305" y="200"/>
      <point x="244" y="200" type="curve"/>
      <point x="244" y="180"/>
      <point x="233" y="174"/>
      <point x="223" y="174" type="curve" smooth="yes"/>
      <point x="210" y="174"/>
      <point x="198" y="183"/>
      <point x="198" y="201" type="curve" smooth="yes"/>
      <point x="198" y="215"/>
      <point x="205" y="252"/>
      <point x="369" y="252" type="curve"/>
      <point x="369" y="336" type="line"/>
      <point x="138" y="336"/>
      <point x="10" y="267"/>
    </contour>
  </outline>
</glyph>
<glyph name="C" format="1">
  <unicode hex="0043"/>
  <advance width="657"/>
  <outline>
    <contour>
      <point x="253" y="389" type="line"/>
      <point x="260" y="498"/>
      <point x="297" y="556"/>
      <point x="363" y="556" type="curve" smooth="yes"/>
      <point x="409" y="556"/>
      <point x="449" y="528"/>
      <point x="449" y="491" type="curve" smooth="yes"/>
      <point x="449" y="475"/>
      <point x="442" y="464"/>
      <point x="434" y="464" type="curve" smooth="yes"/>
      <point x="431" y="464"/>
      <point x="427" y="465"/>
      <point x="424" y="468" type="curve"/>
      <point x="416" y="459"/>
      <point x="411" y="445"/>
      <point x="411" y="428" type="curve" smooth="yes"/>
      <point x="411" y="381"/>
      <point x="448" y="336"/>
      <point x="512" y="336" type="curve" smooth="yes"/>
      <point x="588" y="336"/>
      <point x="635" y="398"/>
      <point x="635" y="479" type="curve" smooth="yes"/>
      <point x="635" y="619"/>
      <point x="510" y="718"/>
      <point x="335" y="718" type="curve" smooth="yes"/>
      <point x="144" y="718"/>
      <point x="33" y="600"/>
      <point x="21" y="389" type="curve"/>
    </contour>
    <contour>
      <point x="20" y="329" type="line"/>
      <point x="26" y="92"/>
      <point x="127" y="-18"/>
      <point x="340" y="-18" type="curve" smooth="yes"/>
      <point x="522" y="-18"/>
      <point x="628" y="81"/>
      <point x="642" y="263" type="curve"/>
      <point x="482" y="263" type="line"/>
      <point x="472" y="188"/>
      <point x="432" y="145"/>
      <point x="370" y="145" type="curve" smooth="yes"/>
      <point x="291" y="145"/>
      <point x="256" y="199"/>
      <point x="252" y="329" type="curve"/>
    </contour>
    <contour>
      <point x="332" y="750" type="move" name="top"/>
    </contour>
  </outline>
</glyph>
<glyph name="E" format="1">
  <unicode hex="0045"/>
  <advance width="648"/>
  <outline>
    <contour>
      <point x="25" y="162" type="curve" smooth="yes"/>
      <point x="25" y="62"/>
      <point x="121" y="-18"/>
      <point x="313" y="-18" type="curve" smooth="yes"/>
      <point x="506" y="-18"/>
      <point x="628" y="63"/>
      <point x="628" y="253" type="curve"/>
      <point x="436" y="253" type="line"/>
      <point x="431" y="184"/>
      <point x="372" y="164"/>
      <point x="330" y="164" type="curve" smooth="yes"/>
      <point x="289" y="164"/>
      <point x="262" y="183"/>
      <point x="262" y="209" type="curve" smooth="yes"/>
      <point x="262" y="260"/>
      <point x="338" y="306"/>
      <point x="551" y="306" type="curve"/>
      <point x="551" y="390" type="line"/>
      <point x="210" y="390"/>
      <point x="25" y="302"/>
    </contour>
    <contour>
      <point x="25" y="524" type="curve" smooth="yes"/>
      <point x="26" y="440"/>
      <point x="84" y="378"/>
      <point x="171" y="378" type="curve" smooth="yes"/>
      <point x="236" y="378"/>
      <point x="292" y="412"/>
      <point x="292" y="474" type="curve"/>
      <point x="280" y="474"/>
      <point x="268" y="490"/>
      <point x="268" y="508" type="curve" smooth="yes"/>
      <point x="268" y="535"/>
      <point x="295" y="554"/>
      <point x="331" y="554" type="curve" smooth="yes"/>
      <point x="394" y="554"/>
      <point x="436" y="494"/>
      <point x="436" y="451" type="curve"/>
      <point x="596" y="451" type="line"/>
      <point x="596" y="700" type="line"/>
      <point x="436" y="700" type="line"/>
      <point x="436" y="583" type="line"/>
      <point x="400" y="691"/>
      <point x="299" y="718"/>
      <point x="233" y="718" type="curve" smooth="yes"/>
      <point x="115" y="718"/>
      <point x="24" y="631"/>
    </contour>
  </outline>
</glyph>
<glyph name="F" format="1">
  <unicode hex="0046"/>
  <advance width="674"/>
  <outline>
    <contour>
      <point x="342" y="700" type="line"/>
      <point x="342" y="530" type="line"/>
      <point x="336" y="530" type="line" smooth="yes"/>
      <point x="306" y="530"/>
      <point x="286" y="510"/>
      <point x="286" y="480" type="curve" smooth="yes"/>
      <point x="286" y="324" type="line"/>
      <point x="310" y="396"/>
      <point x="374" y="433"/>
      <point x="448" y="433" type="curve" smooth="yes"/>
      <point x="541" y="433"/>
      <point x="614" y="364"/>
      <point x="613" y="278" type="curve"/>
      <point x="613" y="212"/>
      <point x="569" y="154"/>
      <point x="499" y="154" type="curve" smooth="yes"/>
      <point x="451" y="154"/>
      <point x="419" y="182"/>
      <point x="401" y="239" type="curve"/>
      <point x="413" y="242"/>
      <point x="421" y="253"/>
      <point x="421" y="266" type="curve" smooth="yes"/>
      <point x="421" y="287"/>
      <point x="399" y="303"/>
      <point x="370" y="303" type="curve" smooth="yes"/>
      <point x="360" y="303"/>
      <point x="351" y="301"/>
      <point x="342" y="298" type="curve" smooth="yes"/>
      <point x="308" y="284"/>
      <point x="286" y="248"/>
      <point x="286" y="221" type="curve"/>
      <point x="286" y="220" type="line"/>
      <point x="286" y="190"/>
      <point x="306" y="170"/>
      <point x="336" y="170" type="curve" smooth="yes"/>
      <point x="342" y="170" type="line"/>
      <point x="342" y="0" type="line"/>
      <point x="30" y="0" type="line"/>
      <point x="30" y="170" type="line"/>
      <point x="36" y="170" type="line" smooth="yes"/>
      <point x="66" y="170"/>
      <point x="86" y="190"/>
      <point x="86" y="220" type="curve" smooth="yes"/>
      <point x="86" y="480" type="line" smooth="yes"/>
      <point x="86" y="510"/>
      <point x="66" y="530"/>
      <point x="36" y="530" type="curve" smooth="yes"/>
      <point x="30" y="530" type="line"/>
      <point x="30" y="700" type="line"/>
    </contour>
    <contour>
      <point x="423" y="530" type="line"/>
      <point x="423" y="700" type="line"/>
      <point x="649" y="700" type="line"/>
      <point x="649" y="465" type="line"/>
      <point x="529" y="465" type="line"/>
      <point x="529" y="480" type="line" smooth="yes"/>
      <point x="529" y="510"/>
      <point x="509" y="530"/>
      <point x="479" y="530" type="curve" smooth="yes"/>
    </contour>
  </outline>
</glyph>
<glyph name="H" format="1">
  <unicode hex="0048"/>
  <advance width="793"/>
  <outline>
    <contour>
      <point x="451" y="700" type="line"/>
      <point x="763" y="700" type="line"/>
      <point x="763" y="530" type="line"/>
      <point x="757" y="530" type="line" smooth="yes"/>
      <point x="727" y="530"/>
      <point x="707" y="510"/>
      <point x="707" y="480" type="curve" smooth="yes"/>
      <point x="707" y="220" type="line" smooth="yes"/>
      <point x="707" y="190"/>
      <point x="727" y="170"/>
      <point x="757" y="170" type="curve" smooth="yes"/>
      <point x="763" y="170" type="line"/>
      <point x="763" y="0" type="line"/>
      <point x="451" y="0" type="line"/>
      <point x="451" y="170" type="line"/>
      <point x="457" y="170" type="line" smooth="yes"/>
      <point x="487" y="170"/>
      <point x="507" y="190"/>
      <point x="507" y="220" type="curve" smooth="yes"/>
      <point x="507" y="480" type="line" smooth="yes"/>
      <point x="507" y="510"/>
      <point x="487" y="530"/>
      <point x="457" y="530" type="curve" smooth="yes"/>
      <point x="451" y="530" type="line"/>
    </contour>
    <contour>
      <point x="22" y="149" type="curve" smooth="yes"/>
      <point x="22" y="358"/>
      <point x="331" y="381"/>
      <point x="451" y="381" type="curve"/>
      <point x="451" y="297" type="line"/>
      <point x="287" y="297"/>
      <point x="230" y="256"/>
      <point x="230" y="216" type="curve" smooth="yes"/>
      <point x="230" y="193"/>
      <point x="242" y="187"/>
      <point x="253" y="187" type="curve" smooth="yes"/>
      <point x="265" y="187"/>
      <point x="276" y="193"/>
      <point x="276" y="213" type="curve"/>
      <point x="337" y="213"/>
      <point x="381" y="177"/>
      <point x="381" y="114" type="curve" smooth="yes"/>
      <point x="381" y="19"/>
      <point x="298" y="-18"/>
      <point x="217" y="-18" type="curve" smooth="yes"/>
      <point x="116" y="-18"/>
      <point x="22" y="40"/>
    </contour>
    <contour>
      <point x="363" y="700" type="line"/>
      <point x="363" y="530" type="line"/>
      <point x="357" y="530" type="line" smooth="yes"/>
      <point x="327" y="530"/>
      <point x="307" y="510"/>
      <point x="307" y="480" type="curve" smooth="yes"/>
      <point x="307" y="411" type="line"/>
      <point x="107" y="411" type="line"/>
      <point x="107" y="480" type="line" smooth="yes"/>
      <point x="107" y="510"/>
      <point x="87" y="530"/>
      <point x="57" y="530" type="curve" smooth="yes"/>
      <point x="51" y="530" type="line"/>
      <point x="51" y="700" type="line"/>
    </contour>
  </outline>
</glyph>
<glyph name="N" format="1">
  <unicode hex="004E"/>
  <advance width="735"/>
  <outline>
    <contour>
      <point x="30" y="700" type="line"/>
      <point x="270" y="700" type="line"/>
      <point x="500" y="240" type="line" smooth="yes"/>
      <point x="507" y="226"/>
      <point x="515" y="220"/>
      <point x="526" y="220" type="curve" smooth="yes"/>
      <point x="538" y="220"/>
      <point x="545" y="227"/>
      <point x="545" y="237" type="curve" smooth="yes"/>
      <point x="545" y="240"/>
      <point x="544" y="243"/>
      <point x="543" y="245" type="curve"/>
      <point x="558" y="254"/>
      <point x="577" y="260"/>
      <point x="598" y="260" type="curve" smooth="yes"/>
      <point x="664" y="260"/>
      <point x="715" y="201"/>
      <point x="715" y="127" type="curve" smooth="yes"/>
      <point x="715" y="42"/>
      <point x="649" y="-18"/>
      <point x="554" y="-18" type="curve" smooth="yes"/>
      <point x="467" y="-18"/>
      <point x="404" y="30"/>
      <point x="354" y="133" type="curve" smooth="yes"/>
      <point x="226" y="397" type="line"/>
      <point x="226" y="220" type="line" smooth="yes"/>
      <point x="226" y="190"/>
      <point x="246" y="170"/>
      <point x="276" y="170" type="curve" smooth="yes"/>
      <point x="282" y="170" type="line"/>
      <point x="282" y="0" type="line"/>
      <point x="30" y="0" type="line"/>
      <point x="30" y="170" type="line"/>
      <point x="36" y="170" type="line" smooth="yes"/>
      <point x="66" y="170"/>
      <point x="86" y="190"/>
      <point x="86" y="220" type="curve" smooth="yes"/>
      <point x="86" y="480" type="line" smooth="yes"/>
      <point x="86" y="510"/>
      <point x="66" y="530"/>
      <point x="36" y="530" type="curve" smooth="yes"/>
      <point x="30" y="530" type="line"/>
    </contour>
    <contour>
      <point x="452" y="700" type="line"/>
      <point x="704" y="700" type="line"/>
      <point x="704" y="530" type="line"/>
      <point x="698" y="530" type="line" smooth="yes"/>
      <point x="668" y="530"/>
      <point x="648" y="510"/>
      <point x="648" y="480" type="curve" smooth="yes"/>
      <point x="648" y="351" type="line"/>
      <point x="508" y="351" type="line"/>
      <point x="508" y="480" type="line" smooth="yes"/>
      <point x="508" y="510"/>
      <point x="488" y="530"/>
      <point x="458" y="530" type="curve" smooth="yes"/>
      <point x="452" y="530" type="line"/>
    </contour>
  </outline>
</glyph>
<glyph name="P" format="1">
  <unicode hex="0050"/>
  <advance width="704"/>
  <outline>
    <contour>
      <point x="446" y="222" type="curve" smooth="yes"/>
      <point x="371" y="222"/>
      <point x="306" y="254"/>
      <point x="274" y="321" type="curve"/>
      <point x="274" y="326"/>
      <point x="274" y="391"/>
      <point x="274" y="396" type="curve"/>
      <point x="278" y="402"/>
      <point x="281" y="424"/>
      <point x="286" y="431" type="curve"/>
      <point x="286" y="388"/>
      <point x="323" y="360"/>
      <point x="368" y="360" type="curve" smooth="yes"/>
      <point x="430" y="360"/>
      <point x="467" y="415"/>
      <point x="467" y="474" type="curve" smooth="yes"/>
      <point x="467" y="516"/>
      <point x="449" y="534"/>
      <point x="425" y="534" type="curve" smooth="yes"/>
      <point x="408" y="534"/>
      <point x="395" y="525"/>
      <point x="389" y="503" type="curve"/>
      <point x="345" y="516"/>
      <point x="322" y="554"/>
      <point x="322" y="595" type="curve" smooth="yes"/>
      <point x="322" y="668"/>
      <point x="395" y="718"/>
      <point x="482" y="718" type="curve" smooth="yes"/>
      <point x="593" y="718"/>
      <point x="694" y="636"/>
      <point x="694" y="487" type="curve" smooth="yes"/>
      <point x="694" y="333"/>
      <point x="585" y="222"/>
    </contour>
    <contour>
      <point x="30" y="0" type="line"/>
      <point x="30" y="170" type="line"/>
      <point x="36" y="170" type="line" smooth="yes"/>
      <point x="66" y="170"/>
      <point x="86" y="190"/>
      <point x="86" y="220" type="curve" smooth="yes"/>
      <point x="86" y="480" type="line" smooth="yes"/>
      <point x="86" y="510"/>
      <point x="66" y="530"/>
      <point x="36" y="530" type="curve" smooth="yes"/>
      <point x="30" y="530" type="line"/>
      <point x="30" y="700" type="line"/>
      <point x="286" y="700" type="line"/>
      <point x="286" y="220" type="line" smooth="yes"/>
      <point x="286" y="190"/>
      <point x="306" y="170"/>
      <point x="336" y="170" type="curve" smooth="yes"/>
      <point x="342" y="170" type="line"/>
      <point x="342" y="0" type="line"/>
    </contour>
  </outline>
</glyph>
<glyph name="V" format="1">
  <unicode hex="0056"/>
  <advance width="736"/>
  <outline>
    <contour>
      <point x="10" y="700" type="line"/>
      <point x="10" y="530" type="line"/>
      <point x="36" y="530" type="line" smooth="yes"/>
      <point x="66" y="530"/>
      <point x="91" y="511"/>
      <point x="98" y="482" type="curve" smooth="yes"/>
      <point x="165" y="218" type="line" smooth="yes"/>
      <point x="172" y="189"/>
      <point x="157" y="170"/>
      <point x="127" y="170" type="curve" smooth="yes"/>
      <point x="121" y="170" type="line"/>
      <point x="121" y="0" type="line"/>
      <point x="604" y="0" type="line"/>
      <point x="604" y="170" type="line"/>
      <point x="598" y="170" type="line" smooth="yes"/>
      <point x="568" y="170"/>
      <point x="553" y="189"/>
      <point x="561" y="218" type="curve" smooth="yes"/>
      <point x="588" y="322" type="line"/>
      <point x="408" y="322" type="line"/>
      <point x="378" y="209" type="line"/>
      <point x="310" y="481" type="line" smooth="yes"/>
      <point x="303" y="510"/>
      <point x="318" y="530"/>
      <point x="348" y="530" type="curve" smooth="yes"/>
      <point x="354" y="530" type="line"/>
      <point x="354" y="700" type="line"/>
    </contour>
    <contour>
      <point x="397" y="601" type="curve" smooth="yes"/>
      <point x="397" y="544"/>
      <point x="437" y="510"/>
      <point x="492" y="510" type="curve"/>
      <point x="492" y="526"/>
      <point x="501" y="536"/>
      <point x="515" y="536" type="curve" smooth="yes"/>
      <point x="529" y="536"/>
      <point x="538" y="526"/>
      <point x="538" y="510" type="curve" smooth="yes"/>
      <point x="538" y="478"/>
      <point x="502" y="448"/>
      <point x="441" y="448" type="curve"/>
      <point x="419" y="364" type="line"/>
      <point x="630" y="364"/>
      <point x="726" y="448"/>
      <point x="726" y="563" type="curve" smooth="yes"/>
      <point x="726" y="667"/>
      <point x="647" y="718"/>
      <point x="554" y="718" type="curve" smooth="yes"/>
      <point x="471" y="718"/>
      <point x="397" y="678"/>
    </contour>
  </outline>
</glyph>
<glyph name="bracketright" format="1">
  <unicode hex="005D"/>
  <advance width="308"/>
  <outline>
    <contour>
      <point x="30" y="577" type="line"/>
      <point x="36" y="577" type="line" smooth="yes"/>
      <point x="66" y="577"/>
      <point x="86" y="557"/>
      <point x="86" y="527" type="curve" smooth="yes"/>
      <point x="86" y="397" type="line"/>
      <point x="286" y="397" type="line"/>
      <point x="286" y="747" type="line"/>
      <point x="30" y="747" type="line"/>
    </contour>
    <contour>
      <point x="30" y="-31" type="line"/>
      <point x="286" y="-31" type="line"/>
      <point x="286" y="311" type="line"/>
      <point x="86" y="311" type="line"/>
      <point x="86" y="190" type="line" smooth="yes"/>
      <point x="86" y="160"/>
      <point x="66" y="140"/>
      <point x="36" y="140" type="curve" smooth="yes"/>
      <point x="30" y="140" type="line"/>
    </contour>
  </outline>
</glyph>
<glyph name="asciicircum" format="1">
  <unicode hex="005E"/>
  <advance width="606"/>
  <outline>
    <contour>
      <point x="303" y="587" type="curve"/>
      <point x="303" y="771" type="line"/>
      <point x="195" y="687"/>
      <point x="25" y="496"/>
      <point x="25" y="345" type="curve" smooth="yes"/>
      <point x="25" y="259"/>
      <point x="81" y="201"/>
      <point x="152" y="201" type="curve" smooth="yes"/>
      <point x="206" y="201"/>
      <point x="252" y="234"/>
      <point x="252" y="289" type="curve" smooth="yes"/>
      <point x="252" y="314"/>
      <point x="242" y="330"/>
      <point x="234" y="337" type="curve"/>
      <point x="229" y="332"/>
      <point x="223" y="330"/>
      <point x="217" y="330" type="curve" smooth="yes"/>
      <point x="203" y="330"/>
      <point x="190" y="340"/>
      <point x="190" y="367" type="curve" smooth="yes"/>
      <point x="190" y="416"/>
      <point x="235" y="511"/>
    </contour>
    <contour>
      <point x="303" y="771" type="line"/>
      <point x="411" y="687"/>
      <point x="581" y="496"/>
      <point x="581" y="345" type="curve" smooth="yes"/>
      <point x="581" y="259"/>
      <point x="525" y="201"/>
      <point x="454" y="201" type="curve" smooth="yes"/>
      <point x="400" y="201"/>
      <point x="354" y="234"/>
      <point x="354" y="289" type="curve" smooth="yes"/>
      <point x="354" y="314"/>
      <point x="364" y="330"/>
      <point x="372" y="337" type="curve"/>
      <point x="377" y="332"/>
      <point x="383" y="330"/>
      <point x="389" y="330" type="curve" smooth="yes"/>
      <point x="403" y="330"/>
      <point x="416" y="340"/>
      <point x="416" y="367" type="curve" smooth="yes"/>
      <point x="416" y="416"/>
      <point x="371" y="511"/>
      <point x="303" y="587" type="curve"/>
    </contour>
  </outline>
</glyph>
<glyph name="grave" format="1">
  <unicode hex="0060"/>
  <advance width="281"/>
  <outline>
    <contour>
      <point x="301" y="825" type="curve"/>
      <point x="301" y="750" type="line"/>
      <point x="95" y="750"/>
      <point x="-19" y="820"/>
      <point x="-17" y="946" type="curve" smooth="yes"/>
      <point x="-16" y="1030"/>
      <point x="35" y="1085"/>
      <point x="109" y="1085" type="curve" smooth="yes"/>
      <point x="175" y="1085"/>
      <point x="228" y="1041"/>
      <point x="228" y="988" type="curve" smooth="yes"/>
      <point x="228" y="969"/>
      <point x="220" y="951"/>
      <point x="206" y="938" type="curve"/>
      <point x="201" y="943"/>
      <point x="196" y="945"/>
      <point x="190" y="945" type="curve" smooth="yes"/>
      <point x="173" y="945"/>
      <point x="160" y="928"/>
      <point x="160" y="905" type="curve" smooth="yes"/>
      <point x="160" y="858"/>
      <point x="217" y="825"/>
    </contour>
  </outline>
</glyph>
<glyph name="e" format="1">
  <unicode hex="0065"/>
  <advance width="648"/>
  <outline>
    <contour>
      <point x="25.0082" y="162" type="curve" smooth="yes"/>
      <point x="25.0082" y="62"/>
      <point x="121.008" y="-18"/>
      <point x="313.008" y="-18" type="curve" smooth="yes"/>
      <point x="506.008" y="-18"/>
      <point x="628.008" y="63"/>
      <point x="628.008" y="253" type="curve"/>
      <point x="436.008" y="253" type="line"/>
      <point x="431.008" y="184"/>
      <point x="372.008" y="164"/>
      <point x="330.008" y="164" type="curve" smooth="yes"/>
      <point x="289.008" y="164"/>
      <point x="262.008" y="183"/>
      <point x="262.008" y="209" type="curve" smooth="yes"/>
      <point x="262.008" y="260"/>
      <point x="338.008" y="306"/>
      <point x="551.008" y="306" type="curve"/>
      <point x="551.008" y="390" type="line"/>
      <point x="210.008" y="390"/>
      <point x="25.0082" y="302"/>
    </contour>
    <contour>
      <point x="25.0082" y="524" type="curve" smooth="yes"/>
      <point x="26.0082" y="440"/>
      <point x="84.0082" y="378"/>
      <point x="171.008" y="378" type="curve" smooth="yes"/>
      <point x="236.008" y="378"/>
      <point x="292.008" y="412"/>
      <point x="292.008" y="474" type="curve"/>
      <point x="280.008" y="474"/>
      <point x="268.008" y="490"/>
      <point x="268.008" y="508" type="curve" smooth="yes"/>
      <point x="268.008" y="535"/>
      <point x="295.008" y="554"/>
      <point x="331.008" y="554" type="curve" smooth="yes"/>
      <point x="394.008" y="554"/>
      <point x="436.008" y="494"/>
      <point x="436.008" y="451" type="curve"/>
      <point x="596.008" y="451" type="line"/>
      <point x="596.008" y="700" type="line"/>
      <point x="436.008" y="700" type="line"/>
      <point x="436.008" y="583" type="line"/>
      <point x="400.008" y="691"/>
      <point x="299.008" y="718"/>
      <point x="233.008" y="718" type="curve" smooth="yes"/>
      <point x="115.008" y="718"/>
      <point x="24.0082" y="631"/>
    </contour>
  </outline>
</glyph>
<glyph name="i" format="1">
  <unicode hex="0069"/>
  <advance width="372"/>
  <outline>
    <contour>
      <point x="36" y="530" type="line" smooth="yes"/>
      <point x="66" y="530"/>
      <point x="86" y="510"/>
      <point x="86" y="480" type="curve" smooth="yes"/>
      <point x="86" y="220" type="line" smooth="yes"/>
      <point x="86" y="190"/>
      <point x="66" y="170"/>
      <point x="36" y="170" type="curve" smooth="yes"/>
      <point x="30" y="170" type="line"/>
      <point x="30" y="0" type="line"/>
      <point x="342" y="0" type="line"/>
      <point x="342" y="170" type="line"/>
      <point x="336" y="170" type="line" smooth="yes"/>
      <point x="306" y="170"/>
      <point x="286" y="190"/>
      <point x="286" y="220" type="curve" smooth="yes"/>
      <point x="286" y="480" type="line" smooth="yes"/>
      <point x="286" y="510"/>
      <point x="306" y="530"/>
      <point x="336" y="530" type="curve" smooth="yes"/>
      <point x="342" y="530" type="line"/>
      <point x="342" y="700" type="line"/>
      <point x="30" y="700" type="line"/>
      <point x="30" y="530" type="line"/>
    </contour>
  </outline>
</glyph>
<glyph name="j" format="1">
  <unicode hex="006A"/>
  <advance width="623"/>
  <outline>
    <contour>
      <point x="10" y="206" type="curve" smooth="yes"/>
      <point x="10" y="77"/>
      <point x="113" y="-18"/>
      <point x="285" y="-18" type="curve" smooth="yes"/>
      <point x="449" y="-18"/>
      <point x="547" y="67"/>
      <point x="547" y="210" type="curve" smooth="yes"/>
      <point x="547" y="329" type="line"/>
      <point x="347" y="329" type="line"/>
      <point x="347" y="244" type="line" smooth="yes"/>
      <point x="347" y="178"/>
      <point x="326" y="145"/>
      <point x="285" y="145" type="curve" smooth="yes"/>
      <point x="250" y="145"/>
      <point x="223" y="168"/>
      <point x="223" y="195" type="curve" smooth="yes"/>
      <point x="223" y="212"/>
      <point x="234" y="226"/>
      <point x="246" y="226" type="curve" smooth="yes"/>
      <point x="249" y="226"/>
      <point x="251" y="225"/>
      <point x="254" y="224" type="curve"/>
      <point x="259" y="238"/>
      <point x="262" y="251"/>
      <point x="262" y="265" type="curve" smooth="yes"/>
      <point x="262" y="322"/>
      <point x="216" y="374"/>
      <point x="149" y="374" type="curve" smooth="yes"/>
      <point x="73" y="374"/>
      <point x="10" y="307"/>
    </contour>
    <contour>
      <point x="191" y="700" type="line"/>
      <point x="191" y="530" type="line"/>
      <point x="297" y="530" type="line" smooth="yes"/>
      <point x="327" y="530"/>
      <point x="347" y="510"/>
      <point x="347" y="480" type="curve" smooth="yes"/>
      <point x="347" y="389" type="line"/>
      <point x="547" y="389" type="line"/>
      <point x="547" y="480" type="line" smooth="yes"/>
      <point x="547" y="510"/>
      <point x="567" y="530"/>
      <point x="597" y="530" type="curve" smooth="yes"/>
      <point x="603" y="530" type="line"/>
      <point x="603" y="700" type="line"/>
    </contour>
  </outline>
</glyph>
<glyph name="k" format="1">
  <unicode hex="006B"/>
  <advance width="781"/>
  <outline>
    <contour>
      <point x="455" y="606" type="curve" smooth="yes"/>
      <point x="328" y="324" type="line"/>
      <point x="460" y="86" type="line" smooth="yes"/>
      <point x="499" y="17"/>
      <point x="563" y="-18"/>
      <point x="627" y="-18" type="curve" smooth="yes"/>
      <point x="705" y="-18"/>
      <point x="771" y="34"/>
      <point x="771" y="126" type="curve" smooth="yes"/>
      <point x="771" y="211"/>
      <point x="715" y="255"/>
      <point x="633" y="255" type="curve"/>
      <point x="633" y="240"/>
      <point x="623" y="232"/>
      <point x="614" y="232" type="curve" smooth="yes"/>
      <point x="603" y="232"/>
      <point x="594" y="242"/>
      <point x="583" y="262" type="curve" smooth="yes"/>
      <point x="521" y="374" type="line"/>
      <point x="569" y="469" type="line" smooth="yes"/>
      <point x="586" y="503"/>
      <point x="595" y="514"/>
      <point x="606" y="514" type="curve" smooth="yes"/>
      <point x="613" y="514"/>
      <point x="621" y="509"/>
      <point x="621" y="497" type="curve"/>
      <point x="672" y="497"/>
      <point x="721" y="543"/>
      <point x="721" y="607" type="curve" smooth="yes"/>
      <point x="721" y="674"/>
      <point x="668" y="718"/>
      <point x="601" y="718" type="curve" smooth="yes"/>
      <point x="535" y="718"/>
      <point x="486" y="676"/>
    </contour>
    <contour>
      <point x="30" y="0" type="line"/>
      <point x="342" y="0" type="line"/>
      <point x="342" y="170" type="line"/>
      <point x="336" y="170" type="line" smooth="yes"/>
      <point x="306" y="170"/>
      <point x="286" y="190"/>
      <point x="286" y="220" type="curve" smooth="yes"/>
      <point x="286" y="480" type="line" smooth="yes"/>
      <point x="286" y="510"/>
      <point x="306" y="530"/>
      <point x="336" y="530" type="curve" smooth="yes"/>
      <point x="342" y="530" type="line"/>
      <point x="342" y="700" type="line"/>
      <point x="30" y="700" type="line"/>
      <point x="30" y="530" type="line"/>
      <point x="36" y="530" type="line" smooth="yes"/>
      <point x="66" y="530"/>
      <point x="86" y="510"/>
      <point x="86" y="480" type="curve" smooth="yes"/>
      <point x="86" y="220" type="line" smooth="yes"/>
      <point x="86" y="190"/>
      <point x="66" y="170"/>
      <point x="36" y="170" type="curve" smooth="yes"/>
      <point x="30" y="170" type="line"/>
    </contour>
  </outline>
</glyph>
<glyph name="l" format="1">
  <unicode hex="006C"/>
  <advance width="653"/>
  <outline>
    <contour>
      <point x="30" y="112" type="curve" smooth="yes"/>
      <point x="30" y="160"/>
      <point x="53" y="203"/>
      <point x="94" y="227" type="curve"/>
      <point x="98" y="214"/>
      <point x="106" y="207"/>
      <point x="116" y="207" type="curve" smooth="yes"/>
      <point x="129" y="207"/>
      <point x="137" y="217"/>
      <point x="137" y="236" type="curve" smooth="yes"/>
      <point x="137" y="480" type="line" smooth="yes"/>
      <point x="137" y="510"/>
      <point x="117" y="530"/>
      <point x="87" y="530" type="curve" smooth="yes"/>
      <point x="81" y="530" type="line"/>
      <point x="81" y="700" type="line"/>
      <point x="393" y="700" type="line"/>
      <point x="393" y="530" type="line"/>
      <point x="387" y="530" type="line" smooth="yes"/>
      <point x="357" y="530"/>
      <point x="337" y="510"/>
      <point x="337" y="480" type="curve" smooth="yes"/>
      <point x="337" y="172" type="line" smooth="yes"/>
      <point x="337" y="47"/>
      <point x="280" y="-18"/>
      <point x="180" y="-18" type="curve" smooth="yes"/>
      <point x="89" y="-18"/>
      <point x="30" y="36"/>
    </contour>
    <contour>
      <point x="382" y="170" type="line"/>
      <point x="448" y="170" type="line" smooth="yes"/>
      <point x="478" y="170"/>
      <point x="498" y="190"/>
      <point x="498" y="220" type="curve" smooth="yes"/>
      <point x="498" y="285" type="line"/>
      <point x="638" y="285" type="line"/>
      <point x="638" y="0" type="line"/>
      <point x="382" y="0" type="line"/>
    </contour>
  </outline>
</glyph>
<glyph name="m" format="1">
  <unicode hex="006D"/>
  <advance width="1018"/>
  <outline>
    <contour>
      <point x="388" y="170" type="curve" smooth="yes"/>
      <point x="393" y="191"/>
      <point x="403" y="214"/>
      <point x="419" y="240" type="curve" smooth="yes"/>
      <point x="574" y="488" type="line" smooth="yes"/>
      <point x="590" y="513"/>
      <point x="580" y="530"/>
      <point x="550" y="530" type="curve" smooth="yes"/>
      <point x="544" y="530" type="line"/>
      <point x="544" y="700" type="line"/>
      <point x="706" y="700" type="line"/>
      <point x="988" y="700" type="line"/>
      <point x="988" y="530" type="line"/>
      <point x="982" y="530" type="line" smooth="yes"/>
      <point x="952" y="530"/>
      <point x="932" y="510"/>
      <point x="932" y="480" type="curve" smooth="yes"/>
      <point x="932" y="220" type="line" smooth="yes"/>
      <point x="932" y="190"/>
      <point x="952" y="170"/>
      <point x="982" y="170" type="curve" smooth="yes"/>
      <point x="988" y="170" type="line"/>
      <point x="988" y="0" type="line"/>
      <point x="676" y="0" type="line"/>
      <point x="676" y="170" type="line"/>
      <point x="682" y="170" type="line" smooth="yes"/>
      <point x="712" y="170"/>
      <point x="732" y="190"/>
      <point x="732" y="220" type="curve" smooth="yes"/>
      <point x="732" y="477" type="line"/>
      <point x="568" y="196" type="line" smooth="yes"/>
      <point x="566" y="192"/>
      <point x="565" y="189"/>
      <point x="565" y="186" type="curve" smooth="yes"/>
      <point x="565" y="179"/>
      <point x="569" y="173"/>
      <point x="574" y="170" type="curve" smooth="yes"/>
      <point x="577" y="169"/>
      <point x="579" y="168"/>
      <point x="582" y="168" type="curve" smooth="yes"/>
      <point x="585" y="168"/>
      <point x="589" y="168"/>
      <point x="592" y="170" type="curve"/>
      <point x="599" y="156"/>
      <point x="603" y="142"/>
      <point x="603" y="123" type="curve" smooth="yes"/>
      <point x="603" y="60"/>
      <point x="561" y="17"/>
      <point x="498" y="17" type="curve" smooth="yes"/>
      <point x="431" y="17"/>
      <point x="383" y="65"/>
      <point x="383" y="133" type="curve" smooth="yes"/>
      <point x="383" y="145"/>
      <point x="385" y="157"/>
    </contour>
    <contour>
      <point x="20" y="569" type="curve" smooth="yes"/>
      <point x="20" y="651"/>
      <point x="85" y="718"/>
      <point x="180" y="718" type="curve" smooth="yes"/>
      <point x="250" y="718"/>
      <point x="311" y="682"/>
      <point x="348" y="616" type="curve" smooth="yes"/>
      <point x="468" y="407" type="line"/>
      <point x="364" y="229" type="line"/>
      <point x="234" y="462" type="line" smooth="yes"/>
      <point x="229" y="471"/>
      <point x="223" y="475"/>
      <point x="214" y="475" type="curve" smooth="yes"/>
      <point x="199" y="475"/>
      <point x="192" y="464"/>
      <point x="192" y="452" type="curve" smooth="yes"/>
      <point x="192" y="448"/>
      <point x="193" y="444"/>
      <point x="194" y="440" type="curve"/>
      <point x="180" y="435"/>
      <point x="165" y="433"/>
      <point x="151" y="433" type="curve" smooth="yes"/>
      <point x="76" y="433"/>
      <point x="20" y="492"/>
    </contour>
    <contour>
      <point x="36" y="170" type="line"/>
      <point x="42" y="170" type="line" smooth="yes"/>
      <point x="72" y="170"/>
      <point x="92" y="190"/>
      <point x="92" y="220" type="curve" smooth="yes"/>
      <point x="92" y="362" type="line"/>
      <point x="232" y="362" type="line"/>
      <point x="232" y="220" type="line" smooth="yes"/>
      <point x="232" y="190"/>
      <point x="252" y="170"/>
      <point x="282" y="170" type="curve" smooth="yes"/>
      <point x="288" y="170" type="line"/>
      <point x="288" y="0" type="line"/>
      <point x="36" y="0" type="line"/>
    </contour>
  </outline>
</glyph>
<glyph name="n" format="1">
  <unicode hex="006E"/>
  <advance width="735"/>
  <outline>
    <contour>
      <point x="30" y="700" type="line"/>
      <point x="270" y="700" type="line"/>
      <point x="500" y="240" type="line" smooth="yes"/>
      <point x="507" y="226"/>
      <point x="515" y="220"/>
      <point x="526" y="220" type="curve" smooth="yes"/>
      <point x="538" y="220"/>
      <point x="545" y="227"/>
      <point x="545" y="237" type="curve" smooth="yes"/>
      <point x="545" y="240"/>
      <point x="544" y="243"/>
      <point x="543" y="245" type="curve"/>
      <point x="558" y="254"/>
      <point x="577" y="260"/>
      <point x="598" y="260" type="curve" smooth="yes"/>
      <point x="664" y="260"/>
      <point x="715" y="201"/>
      <point x="715" y="127" type="curve" smooth="yes"/>
      <point x="715" y="42"/>
      <point x="649" y="-18"/>
      <point x="554" y="-18" type="curve" smooth="yes"/>
      <point x="467" y="-18"/>
      <point x="404" y="30"/>
      <point x="354" y="133" type="curve" smooth="yes"/>
      <point x="226" y="397" type="line"/>
      <point x="226" y="220" type="line" smooth="yes"/>
      <point x="226" y="190"/>
      <point x="246" y="170"/>
      <point x="276" y="170" type="curve" smooth="yes"/>
      <point x="282" y="170" type="line"/>
      <point x="282" y="0" type="line"/>
      <point x="30" y="0" type="line"/>
      <point x="30" y="170" type="line"/>
      <point x="36" y="170" type="line" smooth="yes"/>
      <point x="66" y="170"/>
      <point x="86" y="190"/>
      <point x="86" y="220" type="curve" smooth="yes"/>
      <point x="86" y="480" type="line" smooth="yes"/>
      <point x="86" y="510"/>
      <point x="66" y="530"/>
      <point x="36" y="530" type="curve" smooth="yes"/>
      <point x="30" y="530" type="line"/>
    </contour>
    <contour>
      <point x="452" y="700" type="line"/>
      <point x="704" y="700" type="line"/>
      <point x="704" y="530" type="line"/>
      <point x="698" y="530" type="line" smooth="yes"/>
      <point x="668" y="530"/>
      <point x="648" y="510"/>
      <point x="648" y="480" type="curve" smooth="yes"/>
      <point x="648" y="351" type="line"/>
      <point x="508" y="351" type="line"/>
      <point x="508" y="480" type="line" smooth="yes"/>
      <point x="508" y="510"/>
      <point x="488" y="530"/>
      <point x="458" y="530" type="curve" smooth="yes"/>
      <point x="452" y="530" type="line"/>
    </contour>
  </outline>
</glyph>
<glyph name="o" format="1">
  <unicode hex="006F"/>
  <advance width="676"/>
  <outline>
    <contour>
      <point x="264" y="466" type="line"/>
      <point x="274" y="520"/>
      <point x="305" y="555"/>
      <point x="356" y="555" type="curve" smooth="yes"/>
      <point x="398" y="555"/>
      <point x="441" y="532"/>
      <point x="441" y="484" type="curve" smooth="yes"/>
      <point x="441" y="462"/>
      <point x="432" y="444"/>
      <point x="417" y="444" type="curve" smooth="yes"/>
      <point x="411" y="444"/>
      <point x="406" y="446"/>
      <point x="403" y="449" type="curve"/>
      <point x="387" y="429"/>
      <point x="380" y="405"/>
      <point x="380" y="380" type="curve" smooth="yes"/>
      <point x="380" y="315"/>
      <point x="430" y="272"/>
      <point x="504" y="272" type="curve" smooth="yes"/>
      <point x="596" y="272"/>
      <point x="656" y="339"/>
      <point x="656" y="441" type="curve" smooth="yes"/>
      <point x="656" y="581"/>
      <point x="542" y="718"/>
      <point x="341" y="718" type="curve" smooth="yes"/>
      <point x="165" y="718"/>
      <point x="49" y="629"/>
      <point x="31" y="466" type="curve"/>
    </contour>
    <contour>
      <point x="412" y="234" type="line"/>
      <point x="402" y="180"/>
      <point x="371" y="145"/>
      <point x="320" y="145" type="curve" smooth="yes"/>
      <point x="278" y="145"/>
      <point x="235" y="168"/>
      <point x="235" y="216" type="curve" smooth="yes"/>
      <point x="235" y="238"/>
      <point x="244" y="256"/>
      <point x="259" y="256" type="curve" smooth="yes"/>
      <point x="265" y="256"/>
      <point x="270" y="254"/>
      <point x="273" y="251" type="curve"/>
      <point x="289" y="271"/>
      <point x="296" y="295"/>
      <point x="296" y="320" type="curve" smooth="yes"/>
      <point x="296" y="385"/>
      <point x="246" y="428"/>
      <point x="172" y="428" type="curve" smooth="yes"/>
      <point x="80" y="428"/>
      <point x="20" y="361"/>
      <point x="20" y="259" type="curve" smooth="yes"/>
      <point x="20" y="119"/>
      <point x="134" y="-18"/>
      <point x="335" y="-18" type="curve" smooth="yes"/>
      <point x="511" y="-18"/>
      <point x="627" y="71"/>
      <point x="645" y="234" type="curve"/>
    </contour>
  </outline>
</glyph>
<glyph name="q" format="1">
  <unicode hex="0071"/>
  <advance width="661"/>
  <outline>
    <contour>
      <point x="264" y="466" type="line"/>
      <point x="274" y="520"/>
      <point x="305" y="555"/>
      <point x="356" y="555" type="curve" smooth="yes"/>
      <point x="398" y="555"/>
      <point x="441" y="532"/>
      <point x="441" y="484" type="curve" smooth="yes"/>
      <point x="441" y="462"/>
      <point x="432" y="444"/>
      <point x="417" y="444" type="curve" smooth="yes"/>
      <point x="411" y="444"/>
      <point x="406" y="446"/>
      <point x="403" y="449" type="curve"/>
      <point x="387" y="429"/>
      <point x="380" y="405"/>
      <point x="380" y="380" type="curve" smooth="yes"/>
      <point x="380" y="315"/>
      <point x="430" y="272"/>
      <point x="504" y="272" type="curve" smooth="yes"/>
      <point x="596" y="272"/>
      <point x="656" y="339"/>
      <point x="656" y="441" type="curve" smooth="yes"/>
      <point x="656" y="581"/>
      <point x="542" y="718"/>
      <point x="341" y="718" type="curve" smooth="yes"/>
      <point x="165" y="718"/>
      <point x="49" y="629"/>
      <point x="31" y="466" type="curve"/>
    </contour>
    <contour>
      <point x="412" y="234" type="line"/>
      <point x="402" y="180"/>
      <point x="371" y="145"/>
      <point x="320" y="145" type="curve" smooth="yes"/>
      <point x="278" y="145"/>
      <point x="235" y="168"/>
      <point x="235" y="216" type="curve" smooth="yes"/>
      <point x="235" y="238"/>
      <point x="244" y="256"/>
      <point x="259" y="256" type="curve" smooth="yes"/>
      <point x="265" y="256"/>
      <point x="270" y="254"/>
      <point x="273" y="251" type="curve"/>
      <point x="289" y="271"/>
      <point x="296" y="295"/>
      <point x="296" y="320" type="curve" smooth="yes"/>
      <point x="296" y="385"/>
      <point x="246" y="428"/>
      <point x="172" y="428" type="curve" smooth="yes"/>
      <point x="80" y="428"/>
      <point x="20" y="361"/>
      <point x="20" y="259" type="curve" smooth="yes"/>
      <point x="20" y="119"/>
      <point x="134" y="-18"/>
      <point x="335" y="-18" type="curve" smooth="yes"/>
      <point x="511" y="-18"/>
      <point x="627" y="71"/>
      <point x="645" y="234" type="curve"/>
    </contour>
    <contour>
      <point x="395" y="-54" type="line"/>
      <point x="395" y="-130"/>
      <point x="436" y="-174"/>
      <point x="494" y="-174" type="curve" smooth="yes"/>
      <point x="533" y="-174"/>
      <point x="551" y="-154"/>
      <point x="551" y="-134" type="curve" smooth="yes"/>
      <point x="551" y="-123"/>
      <point x="545" y="-115"/>
      <point x="535" y="-115" type="curve" smooth="yes"/>
      <point x="531" y="-115"/>
      <point x="527" y="-116"/>
      <point x="524" y="-119" type="curve"/>
      <point x="516" y="-105"/>
      <point x="512" y="-91"/>
      <point x="512" y="-77" type="curve" smooth="yes"/>
      <point x="512" y="-32"/>
      <point x="551" y="6"/>
      <point x="611" y="6" type="curve" smooth="yes"/>
      <point x="685" y="6"/>
      <point x="727" y="-52"/>
      <point x="727" y="-126" type="curve" smooth="yes"/>
      <point x="727" y="-230"/>
      <point x="642" y="-290"/>
      <point x="531" y="-290" type="curve" smooth="yes"/>
      <point x="391" y="-290"/>
      <point x="295" y="-196"/>
      <point x="295" y="-54" type="curve"/>
    </contour>
  </outline>
</glyph>
<glyph name="s" format="1">
  <unicode hex="0073"/>
  <advance width="642"/>
  <outline>
    <contour>
      <point x="190.009" y="0" type="line"/>
      <point x="190.009" y="137" type="line"/>
      <point x="227.009" y="16"/>
      <point x="324.009" y="-18"/>
      <point x="400.009" y="-18" type="curve" smooth="yes"/>
      <point x="531.009" y="-18"/>
      <point x="622.009" y="85"/>
      <point x="622.009" y="213" type="curve" smooth="yes"/>
      <point x="622.009" y="322"/>
      <point x="557.009" y="398"/>
      <point x="454.009" y="398" type="curve" smooth="yes"/>
      <point x="345.009" y="398"/>
      <point x="300.009" y="319"/>
      <point x="319.009" y="260" type="curve"/>
      <point x="341.009" y="266"/>
      <point x="357.009" y="248"/>
      <point x="357.009" y="223" type="curve" smooth="yes"/>
      <point x="357.009" y="190"/>
      <point x="331.009" y="167"/>
      <point x="291.009" y="167" type="curve" smooth="yes"/>
      <point x="219.009" y="167"/>
      <point x="190.009" y="240"/>
      <point x="190.009" y="302" type="curve"/>
      <point x="190.009" y="303" type="line"/>
      <point x="30.009" y="303" type="line"/>
      <point x="30.009" y="0" type="line"/>
    </contour>
    <contour>
      <point x="30.009" y="526" type="curve" smooth="yes"/>
      <point x="31.009" y="426"/>
      <point x="99.009" y="356"/>
      <point x="189.009" y="356" type="curve" smooth="yes"/>
      <point x="271.009" y="356"/>
      <point x="309.009" y="414"/>
      <point x="297.009" y="472" type="curve"/>
      <point x="277.009" y="464"/>
      <point x="257.009" y="476"/>
      <point x="257.009" y="503" type="curve" smooth="yes"/>
      <point x="257.009" y="537"/>
      <point x="287.009" y="556"/>
      <point x="322.009" y="556" type="curve" smooth="yes"/>
      <point x="398.009" y="556"/>
      <point x="411.009" y="467"/>
      <point x="411.009" y="439" type="curve"/>
      <point x="571.009" y="439" type="line"/>
      <point x="571.009" y="700" type="line"/>
      <point x="411.009" y="700" type="line"/>
      <point x="411.009" y="583" type="line"/>
      <point x="379.009" y="686"/>
      <point x="297.009" y="718"/>
      <point x="225.009" y="718" type="curve" smooth="yes"/>
      <point x="111.009" y="718"/>
      <point x="29.009" y="636"/>
    </contour>
  </outline>
</glyph>
<glyph name="braceright" format="1">
  <unicode hex="007D"/>
  <advance width="481"/>
  <outline>
    <contour>
      <point x="456" y="299" type="curve" smooth="yes"/>
      <point x="471" y="299" type="line"/>
      <point x="471" y="431" type="line"/>
      <point x="381" y="431" type="line" smooth="yes"/>
      <point x="274" y="431"/>
      <point x="204" y="365"/>
      <point x="204" y="283" type="curve" smooth="yes"/>
      <point x="204" y="141"/>
      <point x="189" y="98"/>
      <point x="147" y="98" type="curve" smooth="yes"/>
      <point x="129" y="98"/>
      <point x="117" y="106"/>
      <point x="117" y="119" type="curve" smooth="yes"/>
      <point x="117" y="123"/>
      <point x="119" y="130"/>
      <point x="122" y="134" type="curve"/>
      <point x="110" y="142"/>
      <point x="96" y="146"/>
      <point x="82" y="146" type="curve" smooth="yes"/>
      <point x="46" y="146"/>
      <point x="10" y="122"/>
      <point x="10" y="67" type="curve" smooth="yes"/>
      <point x="10" y="-6"/>
      <point x="72" y="-54"/>
      <point x="158" y="-54" type="curve" smooth="yes"/>
      <point x="292" y="-54"/>
      <point x="378" y="36"/>
      <point x="378" y="239" type="curve" smooth="yes"/>
      <point x="378" y="277"/>
      <point x="397" y="299"/>
    </contour>
    <contour>
      <point x="204" y="456" type="curve"/>
      <point x="378" y="456" type="line"/>
      <point x="387" y="674"/>
      <point x="299" y="771"/>
      <point x="158" y="771" type="curve" smooth="yes"/>
      <point x="72" y="771"/>
      <point x="10" y="723"/>
      <point x="10" y="650" type="curve" smooth="yes"/>
      <point x="10" y="595"/>
      <point x="46" y="571"/>
      <point x="82" y="571" type="curve" smooth="yes"/>
      <point x="96" y="571"/>
      <point x="110" y="575"/>
      <point x="122" y="583" type="curve"/>
      <point x="119" y="587"/>
      <point x="117" y="594"/>
      <point x="117" y="598" type="curve" smooth="yes"/>
      <point x="117" y="611"/>
      <point x="129" y="619"/>
      <point x="147" y="619" type="curve" smooth="yes"/>
      <point x="190" y="619"/>
      <point x="204" y="576"/>
    </contour>
  </outline>
</glyph>
<glyph name="asciitilde" format="1">
  <unicode hex="007E"/>
  <advance width="601"/>
  <outline>
    <contour>
      <point x="167" y="476" type="curve" smooth="yes"/>
      <point x="209" y="476"/>
      <point x="242" y="461"/>
      <point x="306" y="420" type="curve" smooth="yes"/>
      <point x="349" y="392"/>
      <point x="372" y="380"/>
      <point x="396" y="380" type="curve" smooth="yes"/>
      <point x="417" y="380"/>
      <point x="433" y="389"/>
      <point x="433" y="405" type="curve" smooth="yes"/>
      <point x="433" y="414"/>
      <point x="428" y="423"/>
      <point x="411" y="429" type="curve"/>
      <point x="425" y="469"/>
      <point x="457" y="487"/>
      <point x="491" y="487" type="curve" smooth="yes"/>
      <point x="546" y="487"/>
      <point x="591" y="440"/>
      <point x="591" y="375" type="curve" smooth="yes"/>
      <point x="591" y="293"/>
      <point x="521" y="229"/>
      <point x="431" y="229" type="curve" smooth="yes"/>
      <point x="383" y="229"/>
      <point x="336" y="247"/>
      <point x="285" y="287" type="curve" smooth="yes"/>
      <point x="263" y="304"/>
      <point x="238" y="320"/>
      <point x="209" y="320" type="curve" smooth="yes"/>
      <point x="186" y="320"/>
      <point x="169" y="310"/>
      <point x="169" y="294" type="curve" smooth="yes"/>
      <point x="169" y="286"/>
      <point x="174" y="277"/>
      <point x="191" y="271" type="curve"/>
      <point x="177" y="231"/>
      <point x="145" y="213"/>
      <point x="111" y="213" type="curve" smooth="yes"/>
      <point x="55" y="213"/>
      <point x="10" y="261"/>
      <point x="10" y="327" type="curve" smooth="yes"/>
      <point x="10" y="410"/>
      <point x="80" y="476"/>
    </contour>
  </outline>
</glyph>
<glyph name="exclamdown" format="1">
  <unicode hex="00A1"/>
  <advance width="362"/>
  <outline>
    <contour>
      <point x="25" y="152" type="line"/>
      <point x="31" y="152" type="line" smooth="yes"/>
      <point x="61" y="152"/>
      <point x="81" y="172"/>
      <point x="81" y="202" type="curve" smooth="yes"/>
      <point x="81" y="404" type="line"/>
      <point x="281" y="404" type="line"/>
      <point x="281" y="202" type="line" smooth="yes"/>
      <point x="281" y="172"/>
      <point x="301" y="152"/>
      <point x="331" y="152" type="curve" smooth="yes"/>
      <point x="337" y="152" type="line"/>
      <point x="337" y="-18" type="line"/>
      <point x="25" y="-18" type="line"/>
    </contour>
    <contour>
      <point x="180" y="700" type="curve" smooth="yes"/>
      <point x="257" y="700"/>
      <point x="309" y="652"/>
      <point x="309" y="580" type="curve" smooth="yes"/>
      <point x="309" y="509"/>
      <point x="257" y="461"/>
      <point x="180" y="461" type="curve" smooth="yes"/>
      <point x="102" y="461"/>
      <point x="50" y="509"/>
      <point x="50" y="580" type="curve" smooth="yes"/>
      <point x="50" y="652"/>
      <point x="102" y="700"/>
    </contour>
  </outline>
</glyph>
<glyph name="sterling" format="1">
  <unicode hex="00A3"/>
  <advance width="658"/>
  <outline>
    <contour>
      <point x="137" y="488" type="curve"/>
      <point x="337" y="480" type="line"/>
      <point x="339" y="544"/>
      <point x="361" y="582"/>
      <point x="414" y="582" type="curve" smooth="yes"/>
      <point x="456" y="582"/>
      <point x="482" y="558"/>
      <point x="482" y="531" type="curve" smooth="yes"/>
      <point x="482" y="517"/>
      <point x="475" y="510"/>
      <point x="463" y="510" type="curve"/>
      <point x="463" y="447"/>
      <point x="496" y="411"/>
      <point x="552" y="411" type="curve" smooth="yes"/>
      <point x="610" y="411"/>
      <point x="643" y="450"/>
      <point x="643" y="517" type="curve" smooth="yes"/>
      <point x="643" y="635"/>
      <point x="526" y="718"/>
      <point x="393" y="718" type="curve" smooth="yes"/>
      <point x="221" y="718"/>
      <point x="137" y="604"/>
    </contour>
    <contour>
      <point x="30" y="112" type="curve" smooth="yes"/>
      <point x="30" y="36"/>
      <point x="89" y="-18"/>
      <point x="180" y="-18" type="curve" smooth="yes"/>
      <point x="280" y="-18"/>
      <point x="337" y="47"/>
      <point x="337" y="172" type="curve" smooth="yes"/>
      <point x="337" y="296" type="line"/>
      <point x="444" y="296" type="line"/>
      <point x="444" y="381" type="line"/>
      <point x="378" y="381" type="line"/>
      <point x="337" y="381" type="line"/>
      <point x="137" y="381" type="line"/>
      <point x="122" y="381" type="line"/>
      <point x="81" y="381" type="line"/>
      <point x="81" y="296" type="line"/>
      <point x="137" y="296" type="line"/>
      <point x="137" y="236" type="line" smooth="yes"/>
      <point x="137" y="217"/>
      <point x="129" y="207"/>
      <point x="116" y="207" type="curve" smooth="yes"/>
      <point x="106" y="207"/>
      <point x="98" y="214"/>
      <point x="94" y="227" type="curve"/>
      <point x="53" y="203"/>
      <point x="30" y="160"/>
    </contour>
    <contour>
      <point x="382" y="0" type="line"/>
      <point x="638" y="0" type="line"/>
      <point x="638" y="285" type="line"/>
      <point x="498" y="285" type="line"/>
      <point x="498" y="220" type="line" smooth="yes"/>
      <point x="498" y="190"/>
      <point x="478" y="170"/>
      <point x="448" y="170" type="curve" smooth="yes"/>
      <point x="382" y="170" type="line"/>
    </contour>
    <contour>
      <point x="137" y="441" type="line"/>
      <point x="337" y="441" type="line"/>
      <point x="337" y="489" type="line"/>
      <point x="137" y="489" type="line"/>
    </contour>
  </outline>
</glyph>
<glyph name="section" format="1">
  <unicode hex="00A7"/>
  <advance width="513"/>
  <outline>
    <contour>
      <point x="80" y="181" type="curve" smooth="yes"/>
      <point x="290" y="88" type="line" smooth="yes"/>
      <point x="312" y="79"/>
      <point x="327" y="66"/>
      <point x="327" y="45" type="curve" smooth="yes"/>
      <point x="327" y="21"/>
      <point x="307" y="4"/>
      <point x="275" y="4" type="curve" smooth="yes"/>
      <point x="235" y="4"/>
      <point x="186" y="32"/>
      <point x="186" y="93" type="curve"/>
      <point x="22" y="93" type="line"/>
      <point x="22" y="-144" type="line"/>
      <point x="186" y="-144" type="line"/>
      <point x="186" y="-27" type="line"/>
      <point x="220" y="-130"/>
      <point x="308" y="-162"/>
      <point x="368" y="-162" type="curve" smooth="yes"/>
      <point x="451" y="-162"/>
      <point x="522" y="-99"/>
      <point x="522" y="-7" type="curve" smooth="yes"/>
      <point x="522" y="47"/>
      <point x="498" y="120"/>
      <point x="382" y="174" type="curve" smooth="yes"/>
      <point x="183" y="265" type="line"/>
      <point x="150" y="279"/>
      <point x="147" y="310"/>
      <point x="168" y="312" type="curve"/>
      <point x="163" y="378"/>
      <point x="109" y="409"/>
      <point x="63" y="409" type="curve" smooth="yes"/>
      <point x="9" y="409"/>
      <point x="-32" y="365"/>
      <point x="-32" y="312" type="curve" smooth="yes"/>
      <point x="-32" y="259"/>
      <point x="-4" y="218"/>
    </contour>
    <contour>
      <point x="19" y="572" type="curve" smooth="yes"/>
      <point x="19" y="523"/>
      <point x="45" y="456"/>
      <point x="154" y="404" type="curve" smooth="yes"/>
      <point x="343" y="312" type="line" smooth="yes"/>
      <point x="363" y="302"/>
      <point x="371" y="294"/>
      <point x="371" y="283" type="curve" smooth="yes"/>
      <point x="371" y="273"/>
      <point x="365" y="269"/>
      <point x="357" y="268" type="curve"/>
      <point x="362" y="207"/>
      <point x="412" y="177"/>
      <point x="458" y="177" type="curve" smooth="yes"/>
      <point x="506" y="177"/>
      <point x="544" y="211"/>
      <point x="544" y="269" type="curve" smooth="yes"/>
      <point x="544" y="317"/>
      <point x="517" y="353"/>
      <point x="440" y="390" type="curve" smooth="yes"/>
      <point x="244" y="485" type="line" smooth="yes"/>
      <point x="216" y="498"/>
      <point x="210" y="512"/>
      <point x="210" y="524" type="curve" smooth="yes"/>
      <point x="210" y="548"/>
      <point x="231" y="563"/>
      <point x="262" y="563" type="curve" smooth="yes"/>
      <point x="302" y="563"/>
      <point x="339" y="537"/>
      <point x="339" y="480" type="curve"/>
      <point x="492" y="480" type="line"/>
      <point x="492" y="701" type="line"/>
      <point x="339" y="701" type="line"/>
      <point x="339" y="604" type="line"/>
      <point x="308" y="692"/>
      <point x="229" y="718"/>
      <point x="177" y="718" type="curve" smooth="yes"/>
      <point x="97" y="718"/>
      <point x="19" y="657"/>
    </contour>
    <contour>
      <point x="273" y="750" type="move" name="top"/>
    </contour>
  </outline>
</glyph>
<glyph name="dieresis" format="1">
  <unicode hex="00A8"/>
  <advance width="591"/>
  <outline>
    <contour>
      <point x="20" y="821" type="curve" smooth="yes"/>
      <point x="20" y="749"/>
      <point x="72" y="701"/>
      <point x="150" y="701" type="curve" smooth="yes"/>
      <point x="227" y="701"/>
      <point x="279" y="749"/>
      <point x="279" y="821" type="curve" smooth="yes"/>
      <point x="279" y="892"/>
      <point x="227" y="940"/>
      <point x="150" y="940" type="curve" smooth="yes"/>
      <point x="72" y="940"/>
      <point x="20" y="892"/>
    </contour>
    <contour>
      <point x="316" y="821" type="curve" smooth="yes"/>
      <point x="316" y="749"/>
      <point x="368" y="701"/>
      <point x="446" y="701" type="curve" smooth="yes"/>
      <point x="523" y="701"/>
      <point x="575" y="749"/>
      <point x="575" y="821" type="curve" smooth="yes"/>
      <point x="575" y="892"/>
      <point x="523" y="940"/>
      <point x="446" y="940" type="curve" smooth="yes"/>
      <point x="368" y="940"/>
      <point x="316" y="892"/>
    </contour>
  </outline>
</glyph>
<glyph name="copyright" format="1">
  <unicode hex="00A9"/>
  <advance width="884"/>
  <outline>
    <contour>
      <point x="192" y="479" type="line"/>
      <point x="225" y="594"/>
      <point x="311" y="649"/>
      <point x="450" y="649" type="curve" smooth="yes"/>
      <point x="567" y="649"/>
      <point x="714" y="570"/>
      <point x="714" y="440" type="curve" smooth="yes"/>
      <point x="714" y="418"/>
      <point x="710" y="411"/>
      <point x="700" y="411" type="curve" smooth="yes"/>
      <point x="694" y="411"/>
      <point x="688" y="414"/>
      <point x="685" y="420" type="curve"/>
      <point x="667" y="411"/>
      <point x="659" y="389"/>
      <point x="659" y="366" type="curve" smooth="yes"/>
      <point x="659" y="315"/>
      <point x="700" y="276"/>
      <point x="758" y="276" type="curve" smooth="yes"/>
      <point x="826" y="276"/>
      <point x="864" y="331"/>
      <point x="864" y="417" type="curve" smooth="yes"/>
      <point x="864" y="608"/>
      <point x="679" y="771"/>
      <point x="448" y="771" type="curve" smooth="yes"/>
      <point x="222" y="771"/>
      <point x="77" y="670"/>
      <point x="37" y="479" type="curve"/>
    </contour>
    <contour>
      <point x="447" y="127" type="curve" smooth="yes"/>
      <point x="558" y="127"/>
      <point x="622" y="187"/>
      <point x="631" y="298" type="curve"/>
      <point x="533" y="298" type="line"/>
      <point x="527" y="252"/>
      <point x="503" y="226"/>
      <point x="465" y="226" type="curve" smooth="yes"/>
      <point x="415" y="226"/>
      <point x="393" y="263"/>
      <point x="393" y="351" type="curve" smooth="yes"/>
      <point x="393" y="432"/>
      <point x="417" y="476"/>
      <point x="461" y="476" type="curve" smooth="yes"/>
      <point x="489" y="476"/>
      <point x="513" y="459"/>
      <point x="513" y="437" type="curve" smooth="yes"/>
      <point x="513" y="427"/>
      <point x="509" y="420"/>
      <point x="504" y="420" type="curve" smooth="yes"/>
      <point x="502" y="420"/>
      <point x="500" y="421"/>
      <point x="498" y="423" type="curve"/>
      <point x="493" y="417"/>
      <point x="490" y="409"/>
      <point x="490" y="398" type="curve" smooth="yes"/>
      <point x="490" y="370"/>
      <point x="513" y="342"/>
      <point x="552" y="342" type="curve" smooth="yes"/>
      <point x="598" y="342"/>
      <point x="627" y="380"/>
      <point x="627" y="429" type="curve" smooth="yes"/>
      <point x="627" y="515"/>
      <point x="551" y="575"/>
      <point x="444" y="575" type="curve" smooth="yes"/>
      <point x="321" y="575"/>
      <point x="252" y="494"/>
      <point x="252" y="351" type="curve" smooth="yes"/>
      <point x="252" y="198"/>
      <point x="314" y="127"/>
    </contour>
    <contour>
      <point x="692" y="229" type="line"/>
      <point x="659" y="114"/>
      <point x="573" y="59"/>
      <point x="434" y="59" type="curve" smooth="yes"/>
      <point x="317" y="59"/>
      <point x="170" y="138"/>
      <point x="170" y="268" type="curve" smooth="yes"/>
      <point x="170" y="290"/>
      <point x="174" y="297"/>
      <point x="184" y="297" type="curve" smooth="yes"/>
      <point x="190" y="297"/>
      <point x="196" y="294"/>
      <point x="199" y="288" type="curve"/>
      <point x="217" y="297"/>
      <point x="225" y="319"/>
      <point x="225" y="342" type="curve" smooth="yes"/>
      <point x="225" y="393"/>
      <point x="184" y="432"/>
      <point x="126" y="432" type="curve" smooth="yes"/>
      <point x="58" y="432"/>
      <point x="20" y="377"/>
      <point x="20" y="291" type="curve" smooth="yes"/>
      <point x="20" y="100"/>
      <point x="205" y="-63"/>
      <point x="436" y="-63" type="curve" smooth="yes"/>
      <point x="662" y="-63"/>
      <point x="807" y="38"/>
      <point x="847" y="229" type="curve"/>
    </contour>
    <contour>
      <point x="451" y="593" type="move" name="top"/>
    </contour>
  </outline>
</glyph>
<glyph name="uni00AD" format="1">
  <unicode hex="00AD"/>
  <advance width="477"/>
  <outline>
    <contour>
      <point x="10" y="268" type="line"/>
      <point x="467" y="268" type="line"/>
      <point x="467" y="433" type="line"/>
      <point x="10" y="433" type="line"/>
    </contour>
  </outline>
</glyph>
<glyph name="degree" format="1">
  <unicode hex="00B0"/>
  <advance width="428"/>
  <outline>
    <contour>
      <point x="42" y="582" type="line"/>
      <point x="52" y="494"/>
      <point x="121" y="436"/>
      <point x="216" y="436" type="curve" smooth="yes"/>
      <point x="310" y="436"/>
      <point x="377" y="494"/>
      <point x="387" y="582" type="curve"/>
      <point x="284" y="582" type="line"/>
      <point x="275" y="551"/>
      <point x="250" y="532"/>
      <point x="214" y="532" type="curve" smooth="yes"/>
      <point x="179" y="532"/>
      <point x="154" y="551"/>
      <point x="145" y="582" type="curve"/>
    </contour>
    <contour>
      <point x="42" y="633" type="curve"/>
      <point x="148" y="633" type="line"/>
      <point x="159" y="658"/>
      <point x="183" y="673"/>
      <point x="214" y="673" type="curve" smooth="yes"/>
      <point x="245" y="673"/>
      <point x="269" y="658"/>
      <point x="281" y="633" type="curve"/>
      <point x="387" y="633" type="line"/>
      <point x="374" y="717"/>
      <point x="308" y="771"/>
      <point x="216" y="771" type="curve" smooth="yes"/>
      <point x="123" y="771"/>
      <point x="55" y="717"/>
    </contour>
  </outline>
</glyph>
<glyph name="acute" format="1">
  <unicode hex="00B4"/>
  <advance width="417"/>
  <outline>
    <contour>
      <point x="61" y="825" type="curve"/>
      <point x="61" y="750" type="line"/>
      <point x="267" y="750"/>
      <point x="381" y="820"/>
      <point x="379" y="946" type="curve" smooth="yes"/>
      <point x="378" y="1030"/>
      <point x="327" y="1085"/>
      <point x="253" y="1085" type="curve" smooth="yes"/>
      <point x="187" y="1085"/>
      <point x="134" y="1041"/>
      <point x="134" y="988" type="curve" smooth="yes"/>
      <point x="134" y="969"/>
      <point x="142" y="951"/>
      <point x="156" y="938" type="curve"/>
      <point x="161" y="943"/>
      <point x="166" y="945"/>
      <point x="172" y="945" type="curve" smooth="yes"/>
      <point x="189" y="945"/>
      <point x="202" y="928"/>
      <point x="202" y="905" type="curve" smooth="yes"/>
      <point x="202" y="858"/>
      <point x="145" y="825"/>
    </contour>
  </outline>
</glyph>
<glyph name="mu" format="1">
  <unicode hex="00B5"/>
  <advance width="709"/>
  <outline>
    <contour>
      <point x="22" y="530" type="line"/>
      <point x="28" y="530" type="line" smooth="yes"/>
      <point x="58" y="530"/>
      <point x="78" y="510"/>
      <point x="78" y="480" type="curve" smooth="yes"/>
      <point x="78" y="259" type="line" smooth="yes"/>
      <point x="78" y="84"/>
      <point x="189" y="-18"/>
      <point x="362" y="-18" type="curve" smooth="yes"/>
      <point x="537" y="-18"/>
      <point x="646" y="87"/>
      <point x="646" y="237" type="curve" smooth="yes"/>
      <point x="646" y="333"/>
      <point x="602" y="392"/>
      <point x="532" y="392" type="curve" smooth="yes"/>
      <point x="481" y="392"/>
      <point x="445" y="360"/>
      <point x="445" y="317" type="curve" smooth="yes"/>
      <point x="445" y="301"/>
      <point x="450" y="286"/>
      <point x="461" y="268" type="curve"/>
      <point x="465" y="271"/>
      <point x="469" y="273"/>
      <point x="474" y="273" type="curve" smooth="yes"/>
      <point x="485" y="273"/>
      <point x="489" y="262"/>
      <point x="489" y="244" type="curve" smooth="yes"/>
      <point x="489" y="186"/>
      <point x="447" y="145"/>
      <point x="385" y="145" type="curve" smooth="yes"/>
      <point x="318" y="145"/>
      <point x="278" y="194"/>
      <point x="278" y="279" type="curve" smooth="yes"/>
      <point x="278" y="480" type="line" smooth="yes"/>
      <point x="278" y="510"/>
      <point x="298" y="530"/>
      <point x="328" y="530" type="curve" smooth="yes"/>
      <point x="334" y="530" type="line"/>
      <point x="334" y="700" type="line"/>
      <point x="22" y="700" type="line"/>
    </contour>
    <contour>
      <point x="435" y="530" type="line"/>
      <point x="441" y="530" type="line" smooth="yes"/>
      <point x="471" y="530"/>
      <point x="491" y="510"/>
      <point x="491" y="480" type="curve" smooth="yes"/>
      <point x="491" y="431" type="line"/>
      <point x="631" y="431" type="line"/>
      <point x="631" y="480" type="line" smooth="yes"/>
      <point x="631" y="510"/>
      <point x="651" y="530"/>
      <point x="681" y="530" type="curve" smooth="yes"/>
      <point x="687" y="530" type="line"/>
      <point x="687" y="700" type="line"/>
      <point x="435" y="700" type="line"/>
    </contour>
    <contour>
      <point x="324" y="-165" type="line" smooth="yes"/>
      <point x="294" y="-165"/>
      <point x="274" y="-145"/>
      <point x="274" y="-115" type="curve" smooth="yes"/>
      <point x="274" y="-55" type="line"/>
      <point x="74" y="-55" type="line"/>
      <point x="74" y="-336" type="line"/>
      <point x="330" y="-336" type="line"/>
      <point x="330" y="-165" type="line"/>
    </contour>
  </outline>
</glyph>
<glyph name="paragraph" format="1">
  <unicode hex="00B6"/>
  <advance width="709"/>
  <outline>
    <contour>
      <point x="10" y="443" type="curve" smooth="yes"/>
      <point x="10" y="300"/>
      <point x="116" y="222"/>
      <point x="226" y="222" type="curve" smooth="yes"/>
      <point x="314" y="222"/>
      <point x="382" y="272"/>
      <point x="382" y="344" type="curve" smooth="yes"/>
      <point x="382" y="386"/>
      <point x="359" y="424"/>
      <point x="315" y="437" type="curve"/>
      <point x="309" y="415"/>
      <point x="296" y="406"/>
      <point x="278" y="406" type="curve" smooth="yes"/>
      <point x="252" y="406"/>
      <point x="237" y="426"/>
      <point x="237" y="457" type="curve" smooth="yes"/>
      <point x="237" y="505"/>
      <point x="273" y="530"/>
      <point x="336" y="530" type="curve" smooth="yes"/>
      <point x="378" y="530" type="line" smooth="yes"/>
      <point x="408" y="530"/>
      <point x="428" y="510"/>
      <point x="428" y="480" type="curve" smooth="yes"/>
      <point x="428" y="-144" type="line"/>
      <point x="628" y="-144" type="line"/>
      <point x="628" y="480" type="line" smooth="yes"/>
      <point x="628" y="510"/>
      <point x="648" y="530"/>
      <point x="678" y="530" type="curve" smooth="yes"/>
      <point x="684" y="530" type="line"/>
      <point x="684" y="700" type="line"/>
      <point x="271" y="700" type="line" smooth="yes"/>
      <point x="124" y="700"/>
      <point x="10" y="592"/>
    </contour>
    <contour>
      <point x="63" y="-22" type="curve" smooth="yes"/>
      <point x="63" y="-99"/>
      <point x="123" y="-154"/>
      <point x="214" y="-154" type="curve" smooth="yes"/>
      <point x="313" y="-154"/>
      <point x="371" y="-89"/>
      <point x="371" y="38" type="curve" smooth="yes"/>
      <point x="371" y="170" type="line"/>
      <point x="171" y="170" type="line"/>
      <point x="171" y="102" type="line" smooth="yes"/>
      <point x="171" y="83"/>
      <point x="162" y="72"/>
      <point x="150" y="72" type="curve" smooth="yes"/>
      <point x="139" y="72"/>
      <point x="130" y="80"/>
      <point x="127" y="92" type="curve"/>
      <point x="85" y="69"/>
      <point x="63" y="25"/>
    </contour>
  </outline>
</glyph>
<glyph name="cedilla" format="1">
  <unicode hex="00B8"/>
  <advance width="342"/>
  <outline>
    <contour>
      <point x="158" y="-356" type="curve" smooth="yes"/>
      <point x="239" y="-356"/>
      <point x="317" y="-305"/>
      <point x="317" y="-224" type="curve" smooth="yes"/>
      <point x="317" y="-184"/>
      <point x="297" y="-116"/>
      <point x="171" y="-96" type="curve"/>
      <point x="194" y="-54" type="line"/>
      <point x="98" y="-54" type="line"/>
      <point x="48" y="-146" type="line"/>
      <point x="182" y="-146"/>
      <point x="179" y="-188"/>
      <point x="179" y="-196" type="curve" smooth="yes"/>
      <point x="179" y="-215"/>
      <point x="162" y="-224"/>
      <point x="146" y="-224" type="curve" smooth="yes"/>
      <point x="124" y="-224"/>
      <point x="103" y="-208"/>
      <point x="103" y="-188" type="curve"/>
      <point x="69" y="-188"/>
      <point x="25" y="-210"/>
      <point x="25" y="-263" type="curve" smooth="yes"/>
      <point x="25" y="-334"/>
      <point x="105" y="-356"/>
    </contour>
  </outline>
</glyph>
<glyph name="questiondown" format="1">
  <unicode hex="00BF"/>
  <advance width="621"/>
  <outline>
    <contour>
      <point x="312" y="-18" type="curve" smooth="yes"/>
      <point x="493" y="-18"/>
      <point x="613" y="87"/>
      <point x="611" y="211" type="curve" smooth="yes"/>
      <point x="610" y="293"/>
      <point x="555" y="352"/>
      <point x="481" y="352" type="curve" smooth="yes"/>
      <point x="415" y="352"/>
      <point x="374" y="304"/>
      <point x="374" y="226" type="curve"/>
      <point x="393" y="226"/>
      <point x="403" y="209"/>
      <point x="403" y="195" type="curve" smooth="yes"/>
      <point x="403" y="167"/>
      <point x="369" y="145"/>
      <point x="325" y="145" type="curve" smooth="yes"/>
      <point x="270" y="145"/>
      <point x="237" y="178"/>
      <point x="237" y="235" type="curve" smooth="yes"/>
      <point x="237" y="297"/>
      <point x="275" y="348"/>
      <point x="341" y="348" type="curve"/>
      <point x="341" y="422" type="line"/>
      <point x="129" y="422"/>
      <point x="10" y="349"/>
      <point x="10" y="217" type="curve" smooth="yes"/>
      <point x="10" y="83"/>
      <point x="134" y="-18"/>
    </contour>
    <contour>
      <point x="442" y="598" type="curve" smooth="yes"/>
      <point x="442" y="527"/>
      <point x="390" y="479"/>
      <point x="312" y="479" type="curve" smooth="yes"/>
      <point x="235" y="479"/>
      <point x="183" y="527"/>
      <point x="183" y="598" type="curve" smooth="yes"/>
      <point x="183" y="670"/>
      <point x="235" y="718"/>
      <point x="312" y="718" type="curve" smooth="yes"/>
      <point x="390" y="718"/>
      <point x="442" y="670"/>
    </contour>
  </outline>
</glyph>
<glyph name="Atilde" format="1">
  <unicode hex="00C3"/>
  <advance width="751"/>
  <outline>
    <contour>
      <point x="153" y="530" type="line" smooth="yes"/>
      <point x="183" y="530"/>
      <point x="198" y="511"/>
      <point x="190" y="482" type="curve" smooth="yes"/>
      <point x="163" y="378" type="line"/>
      <point x="343" y="378" type="line"/>
      <point x="373" y="491" type="line"/>
      <point x="441" y="219" type="line" smooth="yes"/>
      <point x="448" y="190"/>
      <point x="433" y="170"/>
      <point x="403" y="170" type="curve" smooth="yes"/>
      <point x="397" y="170" type="line"/>
      <point x="397" y="0" type="line"/>
      <point x="741" y="0" type="line"/>
      <point x="741" y="170" type="line"/>
      <point x="715" y="170" type="line" smooth="yes"/>
      <point x="685" y="170"/>
      <point x="660" y="189"/>
      <point x="653" y="218" type="curve" smooth="yes"/>
      <point x="586" y="482" type="line" smooth="yes"/>
      <point x="579" y="511"/>
      <point x="594" y="530"/>
      <point x="624" y="530" type="curve" smooth="yes"/>
      <point x="630" y="530" type="line"/>
      <point x="630" y="700" type="line"/>
      <point x="137" y="700" type="line"/>
      <point x="137" y="530" type="line"/>
    </contour>
    <contour>
      <point x="10" y="143" type="curve" smooth="yes"/>
      <point x="10" y="44"/>
      <point x="91" y="-18"/>
      <point x="191" y="-18" type="curve" smooth="yes"/>
      <point x="273" y="-18"/>
      <point x="349" y="24"/>
      <point x="349" y="101" type="curve" smooth="yes"/>
      <point x="349" y="164"/>
      <point x="305" y="200"/>
      <point x="244" y="200" type="curve"/>
      <point x="244" y="180"/>
      <point x="233" y="174"/>
      <point x="223" y="174" type="curve" smooth="yes"/>
      <point x="210" y="174"/>
      <point x="198" y="183"/>
      <point x="198" y="201" type="curve" smooth="yes"/>
      <point x="198" y="215"/>
      <point x="205" y="252"/>
      <point x="369" y="252" type="curve"/>
      <point x="369" y="336" type="line"/>
      <point x="138" y="336"/>
      <point x="10" y="267"/>
    </contour>
    <contour>
      <point x="242" y="997" type="curve" smooth="yes"/>
      <point x="155" y="997"/>
      <point x="85" y="931"/>
      <point x="85" y="848" type="curve" smooth="yes"/>
      <point x="85" y="782"/>
      <point x="130" y="734"/>
      <point x="186" y="734" type="curve" smooth="yes"/>
      <point x="220" y="734"/>
      <point x="252" y="752"/>
      <point x="266" y="792" type="curve"/>
      <point x="249" y="798"/>
      <point x="244" y="807"/>
      <point x="244" y="815" type="curve" smooth="yes"/>
      <point x="244" y="831"/>
      <point x="261" y="841"/>
      <point x="284" y="841" type="curve" smooth="yes"/>
      <point x="313" y="841"/>
      <point x="338" y="825"/>
      <point x="360" y="808" type="curve" smooth="yes"/>
      <point x="411" y="768"/>
      <point x="458" y="750"/>
      <point x="506" y="750" type="curve" smooth="yes"/>
      <point x="596" y="750"/>
      <point x="666" y="814"/>
      <point x="666" y="896" type="curve" smooth="yes"/>
      <point x="666" y="961"/>
      <point x="621" y="1008"/>
      <point x="566" y="1008" type="curve" smooth="yes"/>
      <point x="532" y="1008"/>
      <point x="500" y="990"/>
      <point x="486" y="950" type="curve"/>
      <point x="503" y="944"/>
      <point x="508" y="935"/>
      <point x="508" y="926" type="curve" smooth="yes"/>
      <point x="508" y="910"/>
      <point x="492" y="901"/>
      <point x="471" y="901" type="curve" smooth="yes"/>
      <point x="447" y="901"/>
      <point x="424" y="913"/>
      <point x="381" y="941" type="curve" smooth="yes"/>
      <point x="317" y="982"/>
      <point x="284" y="997"/>
    </contour>
  </outline>
</glyph>
<glyph name="AE" format="1">
  <unicode hex="00C6"/>
  <advance width="1404"/>
  <outline>
    <contour>
      <point x="153" y="530" type="line" smooth="yes"/>
      <point x="183" y="530"/>
      <point x="198" y="511"/>
      <point x="190" y="482" type="curve" smooth="yes"/>
      <point x="163" y="378" type="line"/>
      <point x="343" y="378" type="line"/>
      <point x="373" y="491" type="line"/>
      <point x="441" y="219" type="line" smooth="yes"/>
      <point x="448" y="190"/>
      <point x="433" y="170"/>
      <point x="403" y="170" type="curve" smooth="yes"/>
      <point x="397" y="170" type="line"/>
      <point x="397" y="0" type="line"/>
      <point x="741" y="0" type="line"/>
      <point x="741" y="170" type="line"/>
      <point x="715" y="170" type="line" smooth="yes"/>
      <point x="685" y="170"/>
      <point x="660" y="189"/>
      <point x="653" y="218" type="curve" smooth="yes"/>
      <point x="586" y="482" type="line" smooth="yes"/>
      <point x="579" y="511"/>
      <point x="594" y="530"/>
      <point x="624" y="530" type="curve" smooth="yes"/>
      <point x="630" y="530" type="line"/>
      <point x="630" y="700" type="line"/>
      <point x="137" y="700" type="line"/>
      <point x="137" y="530" type="line"/>
    </contour>
    <contour>
      <point x="10" y="143" type="curve" smooth="yes"/>
      <point x="10" y="44"/>
      <point x="91" y="-18"/>
      <point x="191" y="-18" type="curve" smooth="yes"/>
      <point x="273" y="-18"/>
      <point x="349" y="24"/>
      <point x="349" y="101" type="curve" smooth="yes"/>
      <point x="349" y="164"/>
      <point x="305" y="200"/>
      <point x="244" y="200" type="curve"/>
      <point x="244" y="180"/>
      <point x="233" y="174"/>
      <point x="223" y="174" type="curve" smooth="yes"/>
      <point x="210" y="174"/>
      <point x="198" y="183"/>
      <point x="198" y="201" type="curve" smooth="yes"/>
      <point x="198" y="215"/>
      <point x="205" y="252"/>
      <point x="369" y="252" type="curve"/>
      <point x="369" y="336" type="line"/>
      <point x="138" y="336"/>
      <point x="10" y="267"/>
    </contour>
    <contour>
      <point x="781" y="162" type="curve" smooth="yes"/>
      <point x="781" y="62"/>
      <point x="877" y="-18"/>
      <point x="1069" y="-18" type="curve" smooth="yes"/>
      <point x="1262" y="-18"/>
      <point x="1384" y="63"/>
      <point x="1384" y="253" type="curve"/>
      <point x="1192" y="253" type="line"/>
      <point x="1187" y="184"/>
      <point x="1128" y="164"/>
      <point x="1086" y="164" type="curve" smooth="yes"/>
      <point x="1045" y="164"/>
      <point x="1018" y="183"/>
      <point x="1018" y="209" type="curve" smooth="yes"/>
      <point x="1018" y="260"/>
      <point x="1094" y="306"/>
      <point x="1307" y="306" type="curve"/>
      <point x="1307" y="390" type="line"/>
      <point x="966" y="390"/>
      <point x="781" y="302"/>
    </contour>
    <contour>
      <point x="781" y="524" type="curve" smooth="yes"/>
      <point x="782" y="440"/>
      <point x="840" y="378"/>
      <point x="927" y="378" type="curve" smooth="yes"/>
      <point x="992" y="378"/>
      <point x="1048" y="412"/>
      <point x="1048" y="474" type="curve"/>
      <point x="1036" y="474"/>
      <point x="1024" y="490"/>
      <point x="1024" y="508" type="curve" smooth="yes"/>
      <point x="1024" y="535"/>
      <point x="1051" y="554"/>
      <point x="1087" y="554" type="curve" smooth="yes"/>
      <point x="1150" y="554"/>
      <point x="1192" y="494"/>
      <point x="1192" y="451" type="curve"/>
      <point x="1352" y="451" type="line"/>
      <point x="1352" y="700" type="line"/>
      <point x="1192" y="700" type="line"/>
      <point x="1192" y="583" type="line"/>
      <point x="1156" y="691"/>
      <point x="1055" y="718"/>
      <point x="989" y="718" type="curve" smooth="yes"/>
      <point x="871" y="718"/>
      <point x="780" y="631"/>
    </contour>
  </outline>
</glyph>
<glyph name="Ecircumflex" format="1">
  <unicode hex="00CA"/>
  <advance width="648"/>
  <outline>
    <contour>
      <point x="25.0082" y="162" type="curve" smooth="yes"/>
      <point x="25.0082" y="62"/>
      <point x="121.008" y="-18"/>
      <point x="313.008" y="-18" type="curve" smooth="yes"/>
      <point x="506.008" y="-18"/>
      <point x="628.008" y="63"/>
      <point x="628.008" y="253" type="curve"/>
      <point x="436.008" y="253" type="line"/>
      <point x="431.008" y="184"/>
      <point x="372.008" y="164"/>
      <point x="330.008" y="164" type="curve" smooth="yes"/>
      <point x="289.008" y="164"/>
      <point x="262.008" y="183"/>
      <point x="262.008" y="209" type="curve" smooth="yes"/>
      <point x="262.008" y="260"/>
      <point x="338.008" y="306"/>
      <point x="551.008" y="306" type="curve"/>
      <point x="551.008" y="390" type="line"/>
      <point x="210.008" y="390"/>
      <point x="25.0082" y="302"/>
    </contour>
    <contour>
      <point x="25.0082" y="524" type="curve" smooth="yes"/>
      <point x="26.0082" y="440"/>
      <point x="84.0082" y="378"/>
      <point x="171.008" y="378" type="curve" smooth="yes"/>
      <point x="236.008" y="378"/>
      <point x="292.008" y="412"/>
      <point x="292.008" y="474" type="curve"/>
      <point x="280.008" y="474"/>
      <point x="268.008" y="490"/>
      <point x="268.008" y="508" type="curve" smooth="yes"/>
      <point x="268.008" y="535"/>
      <point x="295.008" y="554"/>
      <point x="331.008" y="554" type="curve" smooth="yes"/>
      <point x="394.008" y="554"/>
      <point x="436.008" y="494"/>
      <point x="436.008" y="451" type="curve"/>
      <point x="596.008" y="451" type="line"/>
      <point x="596.008" y="700" type="line"/>
      <point x="436.008" y="700" type="line"/>
      <point x="436.008" y="583" type="line"/>
      <point x="400.008" y="691"/>
      <point x="299.008" y="718"/>
      <point x="233.008" y="718" type="curve" smooth="yes"/>
      <point x="115.008" y="718"/>
      <point x="24.0082" y="631"/>
    </contour>
    <contour>
      <point x="176.008" y="748" type="curve" smooth="yes"/>
      <point x="225.008" y="748"/>
      <point x="263.008" y="779"/>
      <point x="263.008" y="816" type="curve" smooth="yes"/>
      <point x="263.008" y="828"/>
      <point x="260.008" y="842"/>
      <point x="253.008" y="855" type="curve"/>
      <point x="249.008" y="852"/>
      <point x="246.008" y="851"/>
      <point x="242.008" y="851" type="curve" smooth="yes"/>
      <point x="232.008" y="851"/>
      <point x="224.008" y="858"/>
      <point x="224.008" y="868" type="curve" smooth="yes"/>
      <point x="224.008" y="890"/>
      <point x="260.008" y="922"/>
      <point x="324.008" y="952" type="curve"/>
      <point x="388.008" y="922"/>
      <point x="424.008" y="890"/>
      <point x="424.008" y="868" type="curve" smooth="yes"/>
      <point x="424.008" y="858"/>
      <point x="416.008" y="851"/>
      <point x="406.008" y="851" type="curve" smooth="yes"/>
      <point x="402.008" y="851"/>
      <point x="399.008" y="852"/>
      <point x="395.008" y="855" type="curve"/>
      <point x="388.008" y="842"/>
      <point x="385.008" y="828"/>
      <point x="385.008" y="816" type="curve" smooth="yes"/>
      <point x="385.008" y="779"/>
      <point x="423.008" y="748"/>
      <point x="472.008" y="748" type="curve" smooth="yes"/>
      <point x="534.008" y="748"/>
      <point x="570.008" y="799"/>
      <point x="570.008" y="860" type="curve" smooth="yes"/>
      <point x="570.008" y="984"/>
      <point x="420.008" y="1037"/>
      <point x="324.008" y="1079" type="curve"/>
      <point x="228.008" y="1037"/>
      <point x="78.0082" y="984"/>
      <point x="78.0082" y="860" type="curve" smooth="yes"/>
      <point x="78.0082" y="799"/>
      <point x="114.008" y="748"/>
    </contour>
  </outline>
</glyph>
<glyph name="Igrave" format="1">
  <unicode hex="00CC"/>
  <advance width="372"/>
  <outline>
    <contour>
      <point x="36" y="530" type="line" smooth="yes"/>
      <point x="66" y="530"/>
      <point x="86" y="510"/>
      <point x="86" y="480" type="curve" smooth="yes"/>
      <point x="86" y="220" type="line" smooth="yes"/>
      <point x="86" y="190"/>
      <point x="66" y="170"/>
      <point x="36" y="170" type="curve" smooth="yes"/>
      <point x="30" y="170" type="line"/>
      <point x="30" y="0" type="line"/>
      <point x="342" y="0" type="line"/>
      <point x="342" y="170" type="line"/>
      <point x="336" y="170" type="line" smooth="yes"/>
      <point x="306" y="170"/>
      <point x="286" y="190"/>
      <point x="286" y="220" type="curve" smooth="yes"/>
      <point x="286" y="480" type="line" smooth="yes"/>
      <point x="286" y="510"/>
      <point x="306" y="530"/>
      <point x="336" y="530" type="curve" smooth="yes"/>
      <point x="342" y="530" type="line"/>
      <point x="342" y="700" type="line"/>
      <point x="30" y="700" type="line"/>
      <point x="30" y="530" type="line"/>
    </contour>
    <contour>
      <point x="344" y="825" type="line"/>
      <point x="260" y="825"/>
      <point x="203" y="858"/>
      <point x="203" y="905" type="curve" smooth="yes"/>
      <point x="203" y="928"/>
      <point x="216" y="945"/>
      <point x="233" y="945" type="curve" smooth="yes"/>
      <point x="239" y="945"/>
      <point x="244" y="943"/>
      <point x="249" y="938" type="curve"/>
      <point x="263" y="951"/>
      <point x="271" y="969"/>
      <point x="271" y="988" type="curve" smooth="yes"/>
      <point x="271" y="1041"/>
      <point x="218" y="1085"/>
      <point x="152" y="1085" type="curve" smooth="yes"/>
      <point x="78" y="1085"/>
      <point x="27" y="1030"/>
      <point x="26" y="946" type="curve" smooth="yes"/>
      <point x="24" y="820"/>
      <point x="138" y="750"/>
      <point x="344" y="750" type="curve"/>
    </contour>
  </outline>
</glyph>
<glyph name="Ntilde" format="1">
  <unicode hex="00D1"/>
  <advance width="735"/>
  <outline>
    <contour>
      <point x="30" y="700" type="line"/>
      <point x="270" y="700" type="line"/>
      <point x="500" y="240" type="line" smooth="yes"/>
      <point x="507" y="226"/>
      <point x="515" y="220"/>
      <point x="526" y="220" type="curve" smooth="yes"/>
      <point x="538" y="220"/>
      <point x="545" y="227"/>
      <point x="545" y="237" type="curve" smooth="yes"/>
      <point x="545" y="240"/>
      <point x="544" y="243"/>
      <point x="543" y="245" type="curve"/>
      <point x="558" y="254"/>
      <point x="577" y="260"/>
      <point x="598" y="260" type="curve" smooth="yes"/>
      <point x="664" y="260"/>
      <point x="715" y="201"/>
      <point x="715" y="127" type="curve" smooth="yes"/>
      <point x="715" y="42"/>
      <point x="649" y="-18"/>
      <point x="554" y="-18" type="curve" smooth="yes"/>
      <point x="467" y="-18"/>
      <point x="404" y="30"/>
      <point x="354" y="133" type="curve" smooth="yes"/>
      <point x="226" y="397" type="line"/>
      <point x="226" y="220" type="line" smooth="yes"/>
      <point x="226" y="190"/>
      <point x="246" y="170"/>
      <point x="276" y="170" type="curve" smooth="yes"/>
      <point x="282" y="170" type="line"/>
      <point x="282" y="0" type="line"/>
      <point x="30" y="0" type="line"/>
      <point x="30" y="170" type="line"/>
      <point x="36" y="170" type="line" smooth="yes"/>
      <point x="66" y="170"/>
      <point x="86" y="190"/>
      <point x="86" y="220" type="curve" smooth="yes"/>
      <point x="86" y="480" type="line" smooth="yes"/>
      <point x="86" y="510"/>
      <point x="66" y="530"/>
      <point x="36" y="530" type="curve" smooth="yes"/>
      <point x="30" y="530" type="line"/>
    </contour>
    <contour>
      <point x="452" y="700" type="line"/>
      <point x="704" y="700" type="line"/>
      <point x="704" y="530" type="line"/>
      <point x="698" y="530" type="line" smooth="yes"/>
      <point x="668" y="530"/>
      <point x="648" y="510"/>
      <point x="648" y="480" type="curve" smooth="yes"/>
      <point x="648" y="351" type="line"/>
      <point x="508" y="351" type="line"/>
      <point x="508" y="480" type="line" smooth="yes"/>
      <point x="508" y="510"/>
      <point x="488" y="530"/>
      <point x="458" y="530" type="curve" smooth="yes"/>
      <point x="452" y="530" type="line"/>
    </contour>
    <contour>
      <point x="234" y="997" type="curve" smooth="yes"/>
      <point x="276" y="997"/>
      <point x="309" y="982"/>
      <point x="373" y="941" type="curve" smooth="yes"/>
      <point x="416" y="913"/>
      <point x="439" y="901"/>
      <point x="463" y="901" type="curve" smooth="yes"/>
      <point x="484" y="901"/>
      <point x="500" y="910"/>
      <point x="500" y="926" type="curve" smooth="yes"/>
      <point x="500" y="935"/>
      <point x="495" y="944"/>
      <point x="478" y="950" type="curve"/>
      <point x="492" y="990"/>
      <point x="524" y="1008"/>
      <point x="558" y="1008" type="curve" smooth="yes"/>
      <point x="613" y="1008"/>
      <point x="658" y="961"/>
      <point x="658" y="896" type="curve" smooth="yes"/>
      <point x="658" y="814"/>
      <point x="588" y="750"/>
      <point x="498" y="750" type="curve" smooth="yes"/>
      <point x="450" y="750"/>
      <point x="403" y="768"/>
      <point x="352" y="808" type="curve" smooth="yes"/>
      <point x="330" y="825"/>
      <point x="305" y="841"/>
      <point x="276" y="841" type="curve" smooth="yes"/>
      <point x="253" y="841"/>
      <point x="236" y="831"/>
      <point x="236" y="815" type="curve" smooth="yes"/>
      <point x="236" y="807"/>
      <point x="241" y="798"/>
      <point x="258" y="792" type="curve"/>
      <point x="244" y="752"/>
      <point x="212" y="734"/>
      <point x="178" y="734" type="curve" smooth="yes"/>
      <point x="122" y="734"/>
      <point x="77" y="782"/>
      <point x="77" y="848" type="curve" smooth="yes"/>
      <point x="77" y="931"/>
      <point x="147" y="997"/>
    </contour>
  </outline>
</glyph>
<glyph name="Otilde" format="1">
  <unicode hex="00D5"/>
  <advance width="676"/>
  <outline>
    <contour>
      <point x="264" y="466" type="line"/>
      <point x="274" y="520"/>
      <point x="305" y="555"/>
      <point x="356" y="555" type="curve" smooth="yes"/>
      <point x="398" y="555"/>
      <point x="441" y="532"/>
      <point x="441" y="484" type="curve" smooth="yes"/>
      <point x="441" y="462"/>
      <point x="432" y="444"/>
      <point x="417" y="444" type="curve" smooth="yes"/>
      <point x="411" y="444"/>
      <point x="406" y="446"/>
      <point x="403" y="449" type="curve"/>
      <point x="387" y="429"/>
      <point x="380" y="405"/>
      <point x="380" y="380" type="curve" smooth="yes"/>
      <point x="380" y="315"/>
      <point x="430" y="272"/>
      <point x="504" y="272" type="curve" smooth="yes"/>
      <point x="596" y="272"/>
      <point x="656" y="339"/>
      <point x="656" y="441" type="curve" smooth="yes"/>
      <point x="656" y="581"/>
      <point x="542" y="718"/>
      <point x="341" y="718" type="curve" smooth="yes"/>
      <point x="165" y="718"/>
      <point x="49" y="629"/>
      <point x="31" y="466" type="curve"/>
    </contour>
    <contour>
      <point x="412" y="234" type="line"/>
      <point x="402" y="180"/>
      <point x="371" y="145"/>
      <point x="320" y="145" type="curve" smooth="yes"/>
      <point x="278" y="145"/>
      <point x="235" y="168"/>
      <point x="235" y="216" type="curve" smooth="yes"/>
      <point x="235" y="238"/>
      <point x="244" y="256"/>
      <point x="259" y="256" type="curve" smooth="yes"/>
      <point x="265" y="256"/>
      <point x="270" y="254"/>
      <point x="273" y="251" type="curve"/>
      <point x="289" y="271"/>
      <point x="296" y="295"/>
      <point x="296" y="320" type="curve" smooth="yes"/>
      <point x="296" y="385"/>
      <point x="246" y="428"/>
      <point x="172" y="428" type="curve" smooth="yes"/>
      <point x="80" y="428"/>
      <point x="20" y="361"/>
      <point x="20" y="259" type="curve" smooth="yes"/>
      <point x="20" y="119"/>
      <point x="134" y="-18"/>
      <point x="335" y="-18" type="curve" smooth="yes"/>
      <point x="511" y="-18"/>
      <point x="627" y="71"/>
      <point x="645" y="234" type="curve"/>
    </contour>
    <contour>
      <point x="198" y="997" type="curve" smooth="yes"/>
      <point x="111" y="997"/>
      <point x="41" y="931"/>
      <point x="41" y="848" type="curve" smooth="yes"/>
      <point x="41" y="782"/>
      <point x="86" y="734"/>
      <point x="142" y="734" type="curve" smooth="yes"/>
      <point x="176" y="734"/>
      <point x="208" y="752"/>
      <point x="222" y="792" type="curve"/>
      <point x="205" y="798"/>
      <point x="200" y="807"/>
      <point x="200" y="815" type="curve" smooth="yes"/>
      <point x="200" y="831"/>
      <point x="217" y="841"/>
      <point x="240" y="841" type="curve" smooth="yes"/>
      <point x="269" y="841"/>
      <point x="294" y="825"/>
      <point x="316" y="808" type="curve" smooth="yes"/>
      <point x="367" y="768"/>
      <point x="414" y="750"/>
      <point x="462" y="750" type="curve" smooth="yes"/>
      <point x="552" y="750"/>
      <point x="622" y="814"/>
      <point x="622" y="896" type="curve" smooth="yes"/>
      <point x="622" y="961"/>
      <point x="577" y="1008"/>
      <point x="522" y="1008" type="curve" smooth="yes"/>
      <point x="488" y="1008"/>
      <point x="456" y="990"/>
      <point x="442" y="950" type="curve"/>
      <point x="459" y="944"/>
      <point x="464" y="935"/>
      <point x="464" y="926" type="curve" smooth="yes"/>
      <point x="464" y="910"/>
      <point x="448" y="901"/>
      <point x="427" y="901" type="curve" smooth="yes"/>
      <point x="403" y="901"/>
      <point x="380" y="913"/>
      <point x="337" y="941" type="curve" smooth="yes"/>
      <point x="273" y="982"/>
      <point x="240" y="997"/>
    </contour>
    <contour>
      <point x="335" y="750" type="move" name="top"/>
    </contour>
  </outline>
</glyph>
<glyph name="multiply" format="1">
  <unicode hex="00D7"/>
  <advance width="465"/>
  <outline>
    <contour>
      <point x="113" y="573" type="line"/>
      <point x="455" y="231" type="line"/>
      <point x="353" y="128" type="line"/>
      <point x="10" y="471" type="line"/>
    </contour>
    <contour>
      <point x="10" y="231" type="line"/>
      <point x="353" y="573" type="line"/>
      <point x="455" y="471" type="line"/>
      <point x="113" y="128" type="line"/>
    </contour>
  </outline>
</glyph>
<glyph name="Yacute" format="1">
  <unicode hex="00DD"/>
  <advance width="714"/>
  <outline>
    <contour>
      <point x="158" y="350" type="curve" smooth="yes"/>
      <point x="239" y="350"/>
      <point x="275" y="285"/>
      <point x="275" y="233" type="curve" smooth="yes"/>
      <point x="275" y="223"/>
      <point x="274" y="216"/>
      <point x="270" y="208" type="curve"/>
      <point x="268" y="209"/>
      <point x="265" y="210"/>
      <point x="262" y="210" type="curve" smooth="yes"/>
      <point x="249" y="210"/>
      <point x="238" y="196"/>
      <point x="238" y="179" type="curve" smooth="yes"/>
      <point x="238" y="158"/>
      <point x="255" y="145"/>
      <point x="273" y="145" type="curve" smooth="yes"/>
      <point x="293" y="145"/>
      <point x="311" y="160"/>
      <point x="326" y="187" type="curve" smooth="yes"/>
      <point x="481" y="474" type="line" smooth="yes"/>
      <point x="502" y="513"/>
      <point x="509" y="527"/>
      <point x="509" y="538" type="curve" smooth="yes"/>
      <point x="509" y="548"/>
      <point x="502" y="554"/>
      <point x="497" y="554" type="curve" smooth="yes"/>
      <point x="490" y="554"/>
      <point x="486" y="551"/>
      <point x="481" y="546" type="curve"/>
      <point x="468" y="559"/>
      <point x="455" y="580"/>
      <point x="455" y="612" type="curve" smooth="yes"/>
      <point x="455" y="674"/>
      <point x="506" y="718"/>
      <point x="576" y="718" type="curve" smooth="yes"/>
      <point x="649" y="718"/>
      <point x="704" y="670"/>
      <point x="704" y="593" type="curve" smooth="yes"/>
      <point x="704" y="557"/>
      <point x="692" y="515"/>
      <point x="663" y="462" type="curve" smooth="yes"/>
      <point x="481" y="133" type="line" smooth="yes"/>
      <point x="424" y="29"/>
      <point x="353" y="-18"/>
      <point x="253" y="-18" type="curve" smooth="yes"/>
      <point x="84" y="-18"/>
      <point x="10" y="73"/>
      <point x="10" y="182" type="curve" smooth="yes"/>
      <point x="10" y="285"/>
      <point x="77" y="350"/>
    </contour>
    <contour>
      <point x="81" y="530" type="line"/>
      <point x="81" y="700" type="line"/>
      <point x="413" y="700" type="line"/>
      <point x="413" y="530" type="line"/>
      <point x="397" y="530" type="line" smooth="yes"/>
      <point x="367" y="530"/>
      <point x="359" y="514"/>
      <point x="378" y="491" type="curve" smooth="yes"/>
      <point x="410" y="451" type="line"/>
      <point x="317" y="282" type="line"/>
      <point x="145" y="506" type="line" smooth="yes"/>
      <point x="134" y="520"/>
      <point x="115" y="530"/>
      <point x="97" y="530" type="curve" smooth="yes"/>
    </contour>
    <contour>
      <point x="230" y="825" type="line"/>
      <point x="314" y="825"/>
      <point x="371" y="858"/>
      <point x="371" y="905" type="curve" smooth="yes"/>
      <point x="371" y="928"/>
      <point x="358" y="945"/>
      <point x="341" y="945" type="curve" smooth="yes"/>
      <point x="335" y="945"/>
      <point x="330" y="943"/>
      <point x="325" y="938" type="curve"/>
      <point x="311" y="951"/>
      <point x="303" y="969"/>
      <point x="303" y="988" type="curve" smooth="yes"/>
      <point x="303" y="1041"/>
      <point x="356" y="1085"/>
      <point x="422" y="1085" type="curve" smooth="yes"/>
      <point x="496" y="1085"/>
      <point x="547" y="1030"/>
      <point x="548" y="946" type="curve" smooth="yes"/>
      <point x="550" y="820"/>
      <point x="436" y="750"/>
      <point x="230" y="750" type="curve"/>
    </contour>
  </outline>
</glyph>
<glyph name="agrave" format="1">
  <unicode hex="00E0"/>
  <advance width="751"/>
  <outline>
    <contour>
      <point x="153" y="530" type="line" smooth="yes"/>
      <point x="183" y="530"/>
      <point x="198" y="511"/>
      <point x="190" y="482" type="curve" smooth="yes"/>
      <point x="163" y="378" type="line"/>
      <point x="343" y="378" type="line"/>
      <point x="373" y="491" type="line"/>
      <point x="441" y="219" type="line" smooth="yes"/>
      <point x="448" y="190"/>
      <point x="433" y="170"/>
      <point x="403" y="170" type="curve" smooth="yes"/>
      <point x="397" y="170" type="line"/>
      <point x="397" y="0" type="line"/>
      <point x="741" y="0" type="line"/>
      <point x="741" y="170" type="line"/>
      <point x="715" y="170" type="line" smooth="yes"/>
      <point x="685" y="170"/>
      <point x="660" y="189"/>
      <point x="653" y="218" type="curve" smooth="yes"/>
      <point x="586" y="482" type="line" smooth="yes"/>
      <point x="579" y="511"/>
      <point x="594" y="530"/>
      <point x="624" y="530" type="curve" smooth="yes"/>
      <point x="630" y="530" type="line"/>
      <point x="630" y="700" type="line"/>
      <point x="137" y="700" type="line"/>
      <point x="137" y="530" type="line"/>
    </contour>
    <contour>
      <point x="10" y="143" type="curve" smooth="yes"/>
      <point x="10" y="44"/>
      <point x="91" y="-18"/>
      <point x="191" y="-18" type="curve" smooth="yes"/>
      <point x="273" y="-18"/>
      <point x="349" y="24"/>
      <point x="349" y="101" type="curve" smooth="yes"/>
      <point x="349" y="164"/>
      <point x="305" y="200"/>
      <point x="244" y="200" type="curve"/>
      <point x="244" y="180"/>
      <point x="233" y="174"/>
      <point x="223" y="174" type="curve" smooth="yes"/>
      <point x="210" y="174"/>
      <point x="198" y="183"/>
      <point x="198" y="201" type="curve" smooth="yes"/>
      <point x="198" y="215"/>
      <point x="205" y="252"/>
      <point x="369" y="252" type="curve"/>
      <point x="369" y="336" type="line"/>
      <point x="138" y="336"/>
      <point x="10" y="267"/>
    </contour>
    <contour>
      <point x="218" y="946" type="curve" smooth="yes"/>
      <point x="216" y="820"/>
      <point x="330" y="750"/>
      <point x="536" y="750" type="curve"/>
      <point x="536" y="825" type="line"/>
      <point x="452" y="825"/>
      <point x="395" y="858"/>
      <point x="395" y="905" type="curve" smooth="yes"/>
      <point x="395" y="928"/>
      <point x="408" y="945"/>
      <point x="425" y="945" type="curve" smooth="yes"/>
      <point x="431" y="945"/>
      <point x="436" y="943"/>
      <point x="441" y="938" type="curve"/>
      <point x="455" y="951"/>
      <point x="463" y="969"/>
      <point x="463" y="988" type="curve" smooth="yes"/>
      <point x="463" y="1041"/>
      <point x="410" y="1085"/>
      <point x="344" y="1085" type="curve" smooth="yes"/>
      <point x="270" y="1085"/>
      <point x="219" y="1030"/>
    </contour>
  </outline>
</glyph>
<glyph name="aring" format="1">
  <unicode hex="00E5"/>
  <advance width="751"/>
  <outline>
    <contour>
      <point x="137" y="700" type="line"/>
      <point x="137" y="530" type="line"/>
      <point x="153" y="530" type="line" smooth="yes"/>
      <point x="183" y="530"/>
      <point x="198" y="511"/>
      <point x="190" y="482" type="curve" smooth="yes"/>
      <point x="163" y="378" type="line"/>
      <point x="343" y="378" type="line"/>
      <point x="373" y="491" type="line"/>
      <point x="441" y="219" type="line" smooth="yes"/>
      <point x="448" y="190"/>
      <point x="433" y="170"/>
      <point x="403" y="170" type="curve" smooth="yes"/>
      <point x="397" y="170" type="line"/>
      <point x="397" y="0" type="line"/>
      <point x="741" y="0" type="line"/>
      <point x="741" y="170" type="line"/>
      <point x="715" y="170" type="line" smooth="yes"/>
      <point x="685" y="170"/>
      <point x="660" y="189"/>
      <point x="653" y="218" type="curve" smooth="yes"/>
      <point x="586" y="482" type="line" smooth="yes"/>
      <point x="579" y="511"/>
      <point x="594" y="530"/>
      <point x="624" y="530" type="curve" smooth="yes"/>
      <point x="630" y="530" type="line"/>
      <point x="630" y="700" type="line"/>
    </contour>
    <contour>
      <point x="191" y="-18" type="curve" smooth="yes"/>
      <point x="273" y="-18"/>
      <point x="349" y="24"/>
      <point x="349" y="101" type="curve" smooth="yes"/>
      <point x="349" y="164"/>
      <point x="305" y="200"/>
      <point x="244" y="200" type="curve"/>
      <point x="244" y="180"/>
      <point x="233" y="174"/>
      <point x="223" y="174" type="curve" smooth="yes"/>
      <point x="210" y="174"/>
      <point x="198" y="183"/>
      <point x="198" y="201" type="curve" smooth="yes"/>
      <point x="198" y="215"/>
      <point x="205" y="252"/>
      <point x="369" y="252" type="curve"/>
      <point x="369" y="336" type="line"/>
      <point x="138" y="336"/>
      <point x="10" y="267"/>
      <point x="10" y="143" type="curve" smooth="yes"/>
      <point x="10" y="44"/>
      <point x="91" y="-18"/>
    </contour>
    <contour>
      <point x="407" y="996" type="line"/>
      <point x="431" y="987"/>
      <point x="446" y="965"/>
      <point x="446" y="937" type="curve" smooth="yes"/>
      <point x="446" y="909"/>
      <point x="431" y="886"/>
      <point x="407" y="878" type="curve"/>
      <point x="407" y="773" type="line"/>
      <point x="496" y="782"/>
      <point x="556" y="847"/>
      <point x="556" y="939" type="curve" smooth="yes"/>
      <point x="556" y="1031"/>
      <point x="496" y="1095"/>
      <point x="407" y="1105" type="curve"/>
    </contour>
    <contour>
      <point x="357" y="773" type="curve"/>
      <point x="357" y="878" type="line"/>
      <point x="332" y="886"/>
      <point x="317" y="909"/>
      <point x="317" y="937" type="curve" smooth="yes"/>
      <point x="317" y="965"/>
      <point x="332" y="987"/>
      <point x="357" y="996" type="curve"/>
      <point x="357" y="1105" type="line"/>
      <point x="267" y="1094"/>
      <point x="210" y="1031"/>
      <point x="210" y="939" type="curve" smooth="yes"/>
      <point x="210" y="847"/>
      <point x="267" y="784"/>
    </contour>
  </outline>
</glyph>
<glyph name="ae" format="1">
  <unicode hex="00E6"/>
  <advance width="1399"/>
  <outline>
    <contour>
      <point x="137" y="700" type="line"/>
      <point x="137" y="530" type="line"/>
      <point x="153" y="530" type="line" smooth="yes"/>
      <point x="183" y="530"/>
      <point x="198" y="511"/>
      <point x="190" y="482" type="curve" smooth="yes"/>
      <point x="163" y="378" type="line"/>
      <point x="343" y="378" type="line"/>
      <point x="373" y="491" type="line"/>
      <point x="441" y="219" type="line" smooth="yes"/>
      <point x="448" y="190"/>
      <point x="433" y="170"/>
      <point x="403" y="170" type="curve" smooth="yes"/>
      <point x="397" y="170" type="line"/>
      <point x="397" y="0" type="line"/>
      <point x="741" y="0" type="line"/>
      <point x="741" y="170" type="line"/>
      <point x="715" y="170" type="line" smooth="yes"/>
      <point x="685" y="170"/>
      <point x="660" y="189"/>
      <point x="653" y="218" type="curve" smooth="yes"/>
      <point x="586" y="482" type="line" smooth="yes"/>
      <point x="579" y="511"/>
      <point x="594" y="530"/>
      <point x="624" y="530" type="curve" smooth="yes"/>
      <point x="630" y="530" type="line"/>
      <point x="630" y="700" type="line"/>
    </contour>
    <contour>
      <point x="1064" y="-18" type="curve" smooth="yes"/>
      <point x="1257" y="-18"/>
      <point x="1379" y="63"/>
      <point x="1379" y="253" type="curve"/>
      <point x="1187" y="253" type="line"/>
      <point x="1182" y="184"/>
      <point x="1123" y="164"/>
      <point x="1081" y="164" type="curve" smooth="yes"/>
      <point x="1040" y="164"/>
      <point x="1013" y="183"/>
      <point x="1013" y="209" type="curve" smooth="yes"/>
      <point x="1013" y="260"/>
      <point x="1089" y="306"/>
      <point x="1302" y="306" type="curve"/>
      <point x="1302" y="390" type="line"/>
      <point x="961" y="390"/>
      <point x="776" y="302"/>
      <point x="776" y="162" type="curve" smooth="yes"/>
      <point x="776" y="62"/>
      <point x="872" y="-18"/>
    </contour>
    <contour>
      <point x="984" y="718" type="curve" smooth="yes"/>
      <point x="875" y="718"/>
      <point x="775" y="639"/>
      <point x="776" y="524" type="curve" smooth="yes"/>
      <point x="777" y="440"/>
      <point x="835" y="378"/>
      <point x="922" y="378" type="curve" smooth="yes"/>
      <point x="987" y="378"/>
      <point x="1043" y="412"/>
      <point x="1043" y="474" type="curve"/>
      <point x="1031" y="474"/>
      <point x="1019" y="490"/>
      <point x="1019" y="508" type="curve" smooth="yes"/>
      <point x="1019" y="535"/>
      <point x="1046" y="554"/>
      <point x="1082" y="554" type="curve" smooth="yes"/>
      <point x="1145" y="554"/>
      <point x="1187" y="494"/>
      <point x="1187" y="451" type="curve"/>
      <point x="1347" y="451" type="line"/>
      <point x="1347" y="700" type="line"/>
      <point x="1187" y="700" type="line"/>
      <point x="1187" y="583" type="line"/>
      <point x="1157" y="672"/>
      <point x="1074" y="718"/>
    </contour>
    <contour>
      <point x="191" y="-18" type="curve" smooth="yes"/>
      <point x="273" y="-18"/>
      <point x="349" y="24"/>
      <point x="349" y="101" type="curve" smooth="yes"/>
      <point x="349" y="164"/>
      <point x="305" y="200"/>
      <point x="244" y="200" type="curve"/>
      <point x="244" y="180"/>
      <point x="233" y="174"/>
      <point x="223" y="174" type="curve" smooth="yes"/>
      <point x="210" y="174"/>
      <point x="198" y="183"/>
      <point x="198" y="201" type="curve" smooth="yes"/>
      <point x="198" y="215"/>
      <point x="205" y="252"/>
      <point x="369" y="252" type="curve"/>
      <point x="369" y="336" type="line"/>
      <point x="138" y="336"/>
      <point x="10" y="267"/>
      <point x="10" y="143" type="curve" smooth="yes"/>
      <point x="10" y="44"/>
      <point x="91" y="-18"/>
    </contour>
  </outline>
</glyph>
<glyph name="egrave" format="1">
  <unicode hex="00E8"/>
  <advance width="648"/>
  <outline>
    <contour>
      <point x="313.008" y="-18" type="curve" smooth="yes"/>
      <point x="506.008" y="-18"/>
      <point x="628.008" y="63"/>
      <point x="628.008" y="253" type="curve"/>
      <point x="436.008" y="253" type="line"/>
      <point x="431.008" y="184"/>
      <point x="372.008" y="164"/>
      <point x="330.008" y="164" type="curve" smooth="yes"/>
      <point x="289.008" y="164"/>
      <point x="262.008" y="183"/>
      <point x="262.008" y="209" type="curve" smooth="yes"/>
      <point x="262.008" y="260"/>
      <point x="338.008" y="306"/>
      <point x="551.008" y="306" type="curve"/>
      <point x="551.008" y="390" type="line"/>
      <point x="210.008" y="390"/>
      <point x="25.0082" y="302"/>
      <point x="25.0082" y="162" type="curve" smooth="yes"/>
      <point x="25.0082" y="62"/>
      <point x="121.008" y="-18"/>
    </contour>
    <contour>
      <point x="25.0082" y="524" type="curve" smooth="yes"/>
      <point x="26.0082" y="440"/>
      <point x="84.0082" y="378"/>
      <point x="171.008" y="378" type="curve" smooth="yes"/>
      <point x="236.008" y="378"/>
      <point x="292.008" y="412"/>
      <point x="292.008" y="474" type="curve"/>
      <point x="280.008" y="474"/>
      <point x="268.008" y="490"/>
      <point x="268.008" y="508" type="curve" smooth="yes"/>
      <point x="268.008" y="535"/>
      <point x="295.008" y="554"/>
      <point x="331.008" y="554" type="curve" smooth="yes"/>
      <point x="394.008" y="554"/>
      <point x="436.008" y="494"/>
      <point x="436.008" y="451" type="curve"/>
      <point x="596.008" y="451" type="line"/>
      <point x="596.008" y="700" type="line"/>
      <point x="436.008" y="700" type="line"/>
      <point x="436.008" y="583" type="line"/>
      <point x="400.008" y="691"/>
      <point x="299.008" y="718"/>
      <point x="233.008" y="718" type="curve" smooth="yes"/>
      <point x="115.008" y="718"/>
      <point x="24.0082" y="631"/>
    </contour>
    <contour>
      <point x="167.008" y="946" type="curve" smooth="yes"/>
      <point x="165.008" y="820"/>
      <point x="279.008" y="750"/>
      <point x="485.008" y="750" type="curve"/>
      <point x="485.008" y="825" type="line"/>
      <point x="401.008" y="825"/>
      <point x="344.008" y="858"/>
      <point x="344.008" y="905" type="curve" smooth="yes"/>
      <point x="344.008" y="928"/>
      <point x="357.008" y="945"/>
      <point x="374.008" y="945" type="curve" smooth="yes"/>
      <point x="380.008" y="945"/>
      <point x="385.008" y="943"/>
      <point x="390.008" y="938" type="curve"/>
      <point x="404.008" y="951"/>
      <point x="412.008" y="969"/>
      <point x="412.008" y="988" type="curve" smooth="yes"/>
      <point x="412.008" y="1041"/>
      <point x="359.008" y="1085"/>
      <point x="293.008" y="1085" type="curve" smooth="yes"/>
      <point x="219.008" y="1085"/>
      <point x="168.008" y="1030"/>
    </contour>
  </outline>
</glyph>
<glyph name="ecircumflex" format="1">
  <unicode hex="00EA"/>
  <advance width="648"/>
  <outline>
    <contour>
      <point x="25.0082" y="162" type="curve" smooth="yes"/>
      <point x="25.0082" y="62"/>
      <point x="121.008" y="-18"/>
      <point x="313.008" y="-18" type="curve" smooth="yes"/>
      <point x="506.008" y="-18"/>
      <point x="628.008" y="63"/>
      <point x="628.008" y="253" type="curve"/>
      <point x="436.008" y="253" type="line"/>
      <point x="431.008" y="184"/>
      <point x="372.008" y="164"/>
      <point x="330.008" y="164" type="curve" smooth="yes"/>
      <point x="289.008" y="164"/>
      <point x="262.008" y="183"/>
      <point x="262.008" y="209" type="curve" smooth="yes"/>
      <point x="262.008" y="260"/>
      <point x="338.008" y="306"/>
      <point x="551.008" y="306" type="curve"/>
      <point x="551.008" y="390" type="line"/>
      <point x="210.008" y="390"/>
      <point x="25.0082" y="302"/>
    </contour>
    <contour>
      <point x="25.0082" y="524" type="curve" smooth="yes"/>
      <point x="26.0082" y="440"/>
      <point x="84.0082" y="378"/>
      <point x="171.008" y="378" type="curve" smooth="yes"/>
      <point x="236.008" y="378"/>
      <point x="292.008" y="412"/>
      <point x="292.008" y="474" type="curve"/>
      <point x="280.008" y="474"/>
      <point x="268.008" y="490"/>
      <point x="268.008" y="508" type="curve" smooth="yes"/>
      <point x="268.008" y="535"/>
      <point x="295.008" y="554"/>
      <point x="331.008" y="554" type="curve" smooth="yes"/>
      <point x="394.008" y="554"/>
      <point x="436.008" y="494"/>
      <point x="436.008" y="451" type="curve"/>
      <point x="596.008" y="451" type="line"/>
      <point x="596.008" y="700" type="line"/>
      <point x="436.008" y="700" type="line"/>
      <point x="436.008" y="583" type="line"/>
      <point x="400.008" y="691"/>
      <point x="299.008" y="718"/>
      <point x="233.008" y="718" type="curve" smooth="yes"/>
      <point x="115.008" y="718"/>
      <point x="24.0082" y="631"/>
    </contour>
    <contour>
      <point x="80.0082" y="860" type="curve" smooth="yes"/>
      <point x="80.0082" y="799"/>
      <point x="116.008" y="748"/>
      <point x="178.008" y="748" type="curve" smooth="yes"/>
      <point x="227.008" y="748"/>
      <point x="265.008" y="779"/>
      <point x="265.008" y="816" type="curve" smooth="yes"/>
      <point x="265.008" y="828"/>
      <point x="262.008" y="842"/>
      <point x="255.008" y="855" type="curve"/>
      <point x="251.008" y="852"/>
      <point x="248.008" y="851"/>
      <point x="244.008" y="851" type="curve" smooth="yes"/>
      <point x="234.008" y="851"/>
      <point x="226.008" y="858"/>
      <point x="226.008" y="868" type="curve" smooth="yes"/>
      <point x="226.008" y="890"/>
      <point x="262.008" y="922"/>
      <point x="326.008" y="952" type="curve"/>
      <point x="390.008" y="922"/>
      <point x="426.008" y="890"/>
      <point x="426.008" y="868" type="curve" smooth="yes"/>
      <point x="426.008" y="858"/>
      <point x="418.008" y="851"/>
      <point x="408.008" y="851" type="curve" smooth="yes"/>
      <point x="404.008" y="851"/>
      <point x="401.008" y="852"/>
      <point x="397.008" y="855" type="curve"/>
      <point x="390.008" y="842"/>
      <point x="387.008" y="828"/>
      <point x="387.008" y="816" type="curve" smooth="yes"/>
      <point x="387.008" y="779"/>
      <point x="425.008" y="748"/>
      <point x="474.008" y="748" type="curve" smooth="yes"/>
      <point x="536.008" y="748"/>
      <point x="572.008" y="799"/>
      <point x="572.008" y="860" type="curve" smooth="yes"/>
      <point x="572.008" y="984"/>
      <point x="422.008" y="1037"/>
      <point x="326.008" y="1079" type="curve"/>
      <point x="230.008" y="1037"/>
      <point x="80.0082" y="984"/>
    </contour>
  </outline>
</glyph>
<glyph name="igrave" format="1">
  <unicode hex="00EC"/>
  <advance width="378"/>
  <outline>
    <contour>
      <point x="40.0259" y="530" type="line" smooth="yes"/>
      <point x="70.0259" y="530"/>
      <point x="90.0259" y="510"/>
      <point x="90.0259" y="480" type="curve" smooth="yes"/>
      <point x="90.0259" y="220" type="line" smooth="yes"/>
      <point x="90.0259" y="190"/>
      <point x="70.0259" y="170"/>
      <point x="40.0259" y="170" type="curve" smooth="yes"/>
      <point x="34.0259" y="170" type="line"/>
      <point x="34.0259" y="0" type="line"/>
      <point x="346.026" y="0" type="line"/>
      <point x="346.026" y="170" type="line"/>
      <point x="340.026" y="170" type="line" smooth="yes"/>
      <point x="310.026" y="170"/>
      <point x="290.026" y="190"/>
      <point x="290.026" y="220" type="curve" smooth="yes"/>
      <point x="290.026" y="480" type="line" smooth="yes"/>
      <point x="290.026" y="510"/>
      <point x="310.026" y="530"/>
      <point x="340.026" y="530" type="curve" smooth="yes"/>
      <point x="346.026" y="530" type="line"/>
      <point x="346.026" y="700" type="line"/>
      <point x="34.0259" y="700" type="line"/>
      <point x="34.0259" y="530" type="line"/>
    </contour>
    <contour>
      <point x="30.0259" y="946" type="curve" smooth="yes"/>
      <point x="28.0259" y="820"/>
      <point x="142.026" y="750"/>
      <point x="348.026" y="750" type="curve"/>
      <point x="348.026" y="825" type="line"/>
      <point x="264.026" y="825"/>
      <point x="207.026" y="858"/>
      <point x="207.026" y="905" type="curve" smooth="yes"/>
      <point x="207.026" y="928"/>
      <point x="220.026" y="945"/>
      <point x="237.026" y="945" type="curve" smooth="yes"/>
      <point x="243.026" y="945"/>
      <point x="248.026" y="943"/>
      <point x="253.026" y="938" type="curve"/>
      <point x="267.026" y="951"/>
      <point x="275.026" y="969"/>
      <point x="275.026" y="988" type="curve" smooth="yes"/>
      <point x="275.026" y="1041"/>
      <point x="222.026" y="1085"/>
      <point x="156.026" y="1085" type="curve" smooth="yes"/>
      <point x="82.0259" y="1085"/>
      <point x="31.0259" y="1030"/>
    </contour>
  </outline>
</glyph>
<glyph name="iacute" format="1">
  <unicode hex="00ED"/>
  <advance width="378"/>
  <outline>
    <contour>
      <point x="36" y="530" type="line" smooth="yes"/>
      <point x="66" y="530"/>
      <point x="86" y="510"/>
      <point x="86" y="480" type="curve" smooth="yes"/>
      <point x="86" y="220" type="line" smooth="yes"/>
      <point x="86" y="190"/>
      <point x="66" y="170"/>
      <point x="36" y="170" type="curve" smooth="yes"/>
      <point x="30" y="170" type="line"/>
      <point x="30" y="0" type="line"/>
      <point x="342" y="0" type="line"/>
      <point x="342" y="170" type="line"/>
      <point x="336" y="170" type="line" smooth="yes"/>
      <point x="306" y="170"/>
      <point x="286" y="190"/>
      <point x="286" y="220" type="curve" smooth="yes"/>
      <point x="286" y="480" type="line" smooth="yes"/>
      <point x="286" y="510"/>
      <point x="306" y="530"/>
      <point x="336" y="530" type="curve" smooth="yes"/>
      <point x="342" y="530" type="line"/>
      <point x="342" y="700" type="line"/>
      <point x="30" y="700" type="line"/>
      <point x="30" y="530" type="line"/>
    </contour>
    <contour>
      <point x="30" y="750" type="line"/>
      <point x="236" y="750"/>
      <point x="350" y="820"/>
      <point x="348" y="946" type="curve" smooth="yes"/>
      <point x="347" y="1030"/>
      <point x="296" y="1085"/>
      <point x="222" y="1085" type="curve" smooth="yes"/>
      <point x="156" y="1085"/>
      <point x="103" y="1041"/>
      <point x="103" y="988" type="curve" smooth="yes"/>
      <point x="103" y="969"/>
      <point x="111" y="951"/>
      <point x="125" y="938" type="curve"/>
      <point x="130" y="943"/>
      <point x="135" y="945"/>
      <point x="141" y="945" type="curve" smooth="yes"/>
      <point x="158" y="945"/>
      <point x="171" y="928"/>
      <point x="171" y="905" type="curve" smooth="yes"/>
      <point x="171" y="858"/>
      <point x="114" y="825"/>
      <point x="30" y="825" type="curve"/>
    </contour>
  </outline>
</glyph>
<glyph name="ograve" format="1">
  <unicode hex="00F2"/>
  <advance width="713"/>
  <outline>
    <contour>
      <point x="301.026" y="466" type="line"/>
      <point x="311.026" y="520"/>
      <point x="342.026" y="555"/>
      <point x="393.026" y="555" type="curve" smooth="yes"/>
      <point x="435.026" y="555"/>
      <point x="478.026" y="532"/>
      <point x="478.026" y="484" type="curve" smooth="yes"/>
      <point x="478.026" y="462"/>
      <point x="469.026" y="444"/>
      <point x="454.026" y="444" type="curve" smooth="yes"/>
      <point x="448.026" y="444"/>
      <point x="443.026" y="446"/>
      <point x="440.026" y="449" type="curve"/>
      <point x="424.026" y="429"/>
      <point x="417.026" y="405"/>
      <point x="417.026" y="380" type="curve" smooth="yes"/>
      <point x="417.026" y="315"/>
      <point x="467.026" y="272"/>
      <point x="541.026" y="272" type="curve" smooth="yes"/>
      <point x="633.026" y="272"/>
      <point x="693.026" y="339"/>
      <point x="693.026" y="441" type="curve" smooth="yes"/>
      <point x="693.026" y="581"/>
      <point x="579.026" y="718"/>
      <point x="378.026" y="718" type="curve" smooth="yes"/>
      <point x="202.026" y="718"/>
      <point x="86.0259" y="629"/>
      <point x="68.0259" y="466" type="curve"/>
    </contour>
    <contour>
      <point x="449.026" y="234" type="line"/>
      <point x="439.026" y="180"/>
      <point x="408.026" y="145"/>
      <point x="357.026" y="145" type="curve" smooth="yes"/>
      <point x="315.026" y="145"/>
      <point x="272.026" y="168"/>
      <point x="272.026" y="216" type="curve" smooth="yes"/>
      <point x="272.026" y="238"/>
      <point x="281.026" y="256"/>
      <point x="296.026" y="256" type="curve" smooth="yes"/>
      <point x="302.026" y="256"/>
      <point x="307.026" y="254"/>
      <point x="310.026" y="251" type="curve"/>
      <point x="326.026" y="271"/>
      <point x="333.026" y="295"/>
      <point x="333.026" y="320" type="curve" smooth="yes"/>
      <point x="333.026" y="385"/>
      <point x="283.026" y="428"/>
      <point x="209.026" y="428" type="curve" smooth="yes"/>
      <point x="117.026" y="428"/>
      <point x="57.0259" y="361"/>
      <point x="57.0259" y="259" type="curve" smooth="yes"/>
      <point x="57.0259" y="119"/>
      <point x="171.026" y="-18"/>
      <point x="372.026" y="-18" type="curve" smooth="yes"/>
      <point x="548.026" y="-18"/>
      <point x="664.026" y="71"/>
      <point x="682.026" y="234" type="curve"/>
    </contour>
    <contour>
      <point x="338.026" y="825" type="curve"/>
      <point x="338.026" y="750" type="line"/>
      <point x="132.026" y="750"/>
      <point x="18.0259" y="820"/>
      <point x="20.0259" y="946" type="curve" smooth="yes"/>
      <point x="21.0259" y="1030"/>
      <point x="72.0259" y="1085"/>
      <point x="146.026" y="1085" type="curve" smooth="yes"/>
      <point x="212.026" y="1085"/>
      <point x="265.026" y="1041"/>
      <point x="265.026" y="988" type="curve" smooth="yes"/>
      <point x="265.026" y="969"/>
      <point x="257.026" y="951"/>
      <point x="243.026" y="938" type="curve"/>
      <point x="238.026" y="943"/>
      <point x="233.026" y="945"/>
      <point x="227.026" y="945" type="curve" smooth="yes"/>
      <point x="210.026" y="945"/>
      <point x="197.026" y="928"/>
      <point x="197.026" y="905" type="curve" smooth="yes"/>
      <point x="197.026" y="858"/>
      <point x="254.026" y="825"/>
    </contour>
  </outline>
</glyph>
<glyph name="otilde" format="1">
  <unicode hex="00F5"/>
  <advance width="676"/>
  <outline>
    <contour>
      <point x="335" y="-18" type="curve" smooth="yes"/>
      <point x="511" y="-18"/>
      <point x="627" y="71"/>
      <point x="645" y="234" type="curve"/>
      <point x="496" y="234" type="line"/>
      <point x="530" y="244"/>
      <point x="559" y="264"/>
      <point x="578" y="290" type="curve"/>
      <point x="627" y="316"/>
      <point x="656" y="370"/>
      <point x="656" y="441" type="curve" smooth="yes"/>
      <point x="656" y="581"/>
      <point x="542" y="718"/>
      <point x="341" y="718" type="curve" smooth="yes"/>
      <point x="165" y="718"/>
      <point x="49" y="629"/>
      <point x="31" y="466" type="curve"/>
      <point x="131" y="466" type="line"/>
      <point x="69" y="446"/>
      <point x="25" y="391"/>
      <point x="25" y="325" type="curve" smooth="yes"/>
      <point x="25" y="320"/>
      <point x="25" y="315"/>
      <point x="26" y="311" type="curve"/>
      <point x="22" y="295"/>
      <point x="20" y="277"/>
      <point x="20" y="259" type="curve" smooth="yes"/>
      <point x="20" y="119"/>
      <point x="134" y="-18"/>
    </contour>
    <contour>
      <point x="264" y="466" type="line"/>
      <point x="274" y="520"/>
      <point x="305" y="555"/>
      <point x="356" y="555" type="curve" smooth="yes"/>
      <point x="398" y="555"/>
      <point x="441" y="532"/>
      <point x="441" y="484" type="curve" smooth="yes"/>
      <point x="441" y="462"/>
      <point x="432" y="444"/>
      <point x="417" y="444" type="curve" smooth="yes"/>
      <point x="411" y="444"/>
      <point x="406" y="446"/>
      <point x="403" y="449" type="curve"/>
      <point x="388" y="430"/>
      <point x="381" y="408"/>
      <point x="380" y="385" type="curve"/>
      <point x="364" y="391"/>
      <point x="346" y="402"/>
      <point x="321" y="418" type="curve" smooth="yes"/>
      <point x="283" y="443"/>
      <point x="256" y="458"/>
      <point x="231" y="466" type="curve"/>
    </contour>
    <contour>
      <point x="300" y="285" type="curve" smooth="yes"/>
      <point x="339" y="255"/>
      <point x="375" y="237"/>
      <point x="411" y="230" type="curve"/>
      <point x="401" y="178"/>
      <point x="370" y="145"/>
      <point x="320" y="145" type="curve" smooth="yes"/>
      <point x="278" y="145"/>
      <point x="235" y="168"/>
      <point x="235" y="216" type="curve" smooth="yes"/>
      <point x="235" y="238"/>
      <point x="244" y="256"/>
      <point x="259" y="256" type="curve" smooth="yes"/>
      <point x="265" y="256"/>
      <point x="270" y="254"/>
      <point x="273" y="251" type="curve"/>
      <point x="283" y="263"/>
      <point x="289" y="276"/>
      <point x="293" y="291" type="curve"/>
      <point x="295" y="289"/>
      <point x="298" y="287"/>
    </contour>
  </outline>
</glyph>
<glyph name="odieresis" format="1">
  <unicode hex="00F6"/>
  <advance width="676"/>
  <outline>
    <contour>
      <point x="31" y="466" type="curve"/>
      <point x="264" y="466" type="line"/>
      <point x="274" y="520"/>
      <point x="305" y="555"/>
      <point x="356" y="555" type="curve" smooth="yes"/>
      <point x="398" y="555"/>
      <point x="441" y="532"/>
      <point x="441" y="484" type="curve" smooth="yes"/>
      <point x="441" y="462"/>
      <point x="432" y="444"/>
      <point x="417" y="444" type="curve" smooth="yes"/>
      <point x="411" y="444"/>
      <point x="406" y="446"/>
      <point x="403" y="449" type="curve"/>
      <point x="387" y="429"/>
      <point x="380" y="405"/>
      <point x="380" y="380" type="curve" smooth="yes"/>
      <point x="380" y="315"/>
      <point x="430" y="272"/>
      <point x="504" y="272" type="curve" smooth="yes"/>
      <point x="596" y="272"/>
      <point x="656" y="339"/>
      <point x="656" y="441" type="curve" smooth="yes"/>
      <point x="656" y="552"/>
      <point x="585" y="661"/>
      <point x="455" y="701" type="curve"/>
      <point x="527" y="705"/>
      <point x="575" y="752"/>
      <point x="575" y="821" type="curve" smooth="yes"/>
      <point x="575" y="892"/>
      <point x="523" y="940"/>
      <point x="446" y="940" type="curve" smooth="yes"/>
      <point x="368" y="940"/>
      <point x="316" y="892"/>
      <point x="316" y="821" type="curve" smooth="yes"/>
      <point x="316" y="773"/>
      <point x="339" y="736"/>
      <point x="377" y="716" type="curve"/>
      <point x="365" y="717"/>
      <point x="353" y="718"/>
      <point x="341" y="718" type="curve" smooth="yes"/>
      <point x="165" y="718"/>
      <point x="49" y="629"/>
    </contour>
    <contour>
      <point x="20" y="259" type="curve" smooth="yes"/>
      <point x="20" y="119"/>
      <point x="134" y="-18"/>
      <point x="335" y="-18" type="curve" smooth="yes"/>
      <point x="511" y="-18"/>
      <point x="627" y="71"/>
      <point x="645" y="234" type="curve"/>
      <point x="412" y="234" type="line"/>
      <point x="402" y="180"/>
      <point x="371" y="145"/>
      <point x="320" y="145" type="curve" smooth="yes"/>
      <point x="278" y="145"/>
      <point x="235" y="168"/>
      <point x="235" y="216" type="curve" smooth="yes"/>
      <point x="235" y="238"/>
      <point x="244" y="256"/>
      <point x="259" y="256" type="curve" smooth="yes"/>
      <point x="265" y="256"/>
      <point x="270" y="254"/>
      <point x="273" y="251" type="curve"/>
      <point x="289" y="271"/>
      <point x="296" y="295"/>
      <point x="296" y="320" type="curve" smooth="yes"/>
      <point x="296" y="385"/>
      <point x="246" y="428"/>
      <point x="172" y="428" type="curve" smooth="yes"/>
      <point x="80" y="428"/>
      <point x="20" y="361"/>
    </contour>
    <contour>
      <point x="150" y="701" type="curve" smooth="yes"/>
      <point x="227" y="701"/>
      <point x="279" y="749"/>
      <point x="279" y="821" type="curve" smooth="yes"/>
      <point x="279" y="892"/>
      <point x="227" y="940"/>
      <point x="150" y="940" type="curve" smooth="yes"/>
      <point x="72" y="940"/>
      <point x="20" y="892"/>
      <point x="20" y="821" type="curve" smooth="yes"/>
      <point x="20" y="749"/>
      <point x="72" y="701"/>
    </contour>
  </outline>
</glyph>
<glyph name="ucircumflex" format="1">
  <unicode hex="00FB"/>
  <advance width="709"/>
  <outline>
    <contour>
      <point x="28" y="530" type="line" smooth="yes"/>
      <point x="58" y="530"/>
      <point x="78" y="510"/>
      <point x="78" y="480" type="curve" smooth="yes"/>
      <point x="78" y="259" type="line" smooth="yes"/>
      <point x="78" y="84"/>
      <point x="189" y="-18"/>
      <point x="362" y="-18" type="curve" smooth="yes"/>
      <point x="537" y="-18"/>
      <point x="646" y="87"/>
      <point x="646" y="237" type="curve" smooth="yes"/>
      <point x="646" y="333"/>
      <point x="602" y="392"/>
      <point x="532" y="392" type="curve" smooth="yes"/>
      <point x="481" y="392"/>
      <point x="445" y="360"/>
      <point x="445" y="317" type="curve" smooth="yes"/>
      <point x="445" y="301"/>
      <point x="450" y="286"/>
      <point x="461" y="268" type="curve"/>
      <point x="465" y="271"/>
      <point x="469" y="273"/>
      <point x="474" y="273" type="curve" smooth="yes"/>
      <point x="485" y="273"/>
      <point x="489" y="262"/>
      <point x="489" y="244" type="curve" smooth="yes"/>
      <point x="489" y="186"/>
      <point x="447" y="145"/>
      <point x="385" y="145" type="curve" smooth="yes"/>
      <point x="318" y="145"/>
      <point x="278" y="194"/>
      <point x="278" y="279" type="curve" smooth="yes"/>
      <point x="278" y="480" type="line" smooth="yes"/>
      <point x="278" y="510"/>
      <point x="298" y="530"/>
      <point x="328" y="530" type="curve" smooth="yes"/>
      <point x="334" y="530" type="line"/>
      <point x="334" y="700" type="line"/>
      <point x="22" y="700" type="line"/>
      <point x="22" y="530" type="line"/>
    </contour>
    <contour>
      <point x="215" y="748" type="curve" smooth="yes"/>
      <point x="264" y="748"/>
      <point x="302" y="779"/>
      <point x="302" y="816" type="curve" smooth="yes"/>
      <point x="302" y="828"/>
      <point x="299" y="842"/>
      <point x="292" y="855" type="curve"/>
      <point x="288" y="852"/>
      <point x="285" y="851"/>
      <point x="281" y="851" type="curve" smooth="yes"/>
      <point x="271" y="851"/>
      <point x="263" y="858"/>
      <point x="263" y="868" type="curve" smooth="yes"/>
      <point x="263" y="890"/>
      <point x="299" y="922"/>
      <point x="363" y="952" type="curve"/>
      <point x="427" y="922"/>
      <point x="463" y="890"/>
      <point x="463" y="868" type="curve" smooth="yes"/>
      <point x="463" y="858"/>
      <point x="455" y="851"/>
      <point x="445" y="851" type="curve" smooth="yes"/>
      <point x="441" y="851"/>
      <point x="438" y="852"/>
      <point x="434" y="855" type="curve"/>
      <point x="427" y="842"/>
      <point x="424" y="828"/>
      <point x="424" y="816" type="curve" smooth="yes"/>
      <point x="424" y="779"/>
      <point x="462" y="748"/>
      <point x="511" y="748" type="curve" smooth="yes"/>
      <point x="573" y="748"/>
      <point x="609" y="799"/>
      <point x="609" y="860" type="curve" smooth="yes"/>
      <point x="609" y="984"/>
      <point x="459" y="1037"/>
      <point x="363" y="1079" type="curve"/>
      <point x="267" y="1037"/>
      <point x="117" y="984"/>
      <point x="117" y="860" type="curve" smooth="yes"/>
      <point x="117" y="799"/>
      <point x="153" y="748"/>
    </contour>
    <contour>
      <point x="435" y="530" type="line"/>
      <point x="441" y="530" type="line" smooth="yes"/>
      <point x="471" y="530"/>
      <point x="491" y="510"/>
      <point x="491" y="480" type="curve" smooth="yes"/>
      <point x="491" y="431" type="line"/>
      <point x="631" y="431" type="line"/>
      <point x="631" y="480" type="line" smooth="yes"/>
      <point x="631" y="510"/>
      <point x="651" y="530"/>
      <point x="681" y="530" type="curve" smooth="yes"/>
      <point x="687" y="530" type="line"/>
      <point x="687" y="700" type="line"/>
      <point x="435" y="700" type="line"/>
    </contour>
  </outline>
</glyph>
<glyph name="Abreve" format="1">
  <unicode hex="0102"/>
  <advance width="751"/>
  <outline>
    <contour>
      <point x="153" y="530" type="line" smooth="yes"/>
      <point x="183" y="530"/>
      <point x="198" y="511"/>
      <point x="190" y="482" type="curve" smooth="yes"/>
      <point x="163" y="378" type="line"/>
      <point x="343" y="378" type="line"/>
      <point x="373" y="491" type="line"/>
      <point x="441" y="219" type="line" smooth="yes"/>
      <point x="448" y="190"/>
      <point x="433" y="170"/>
      <point x="403" y="170" type="curve" smooth="yes"/>
      <point x="397" y="170" type="line"/>
      <point x="397" y="0" type="line"/>
      <point x="741" y="0" type="line"/>
      <point x="741" y="170" type="line"/>
      <point x="715" y="170" type="line" smooth="yes"/>
      <point x="685" y="170"/>
      <point x="660" y="189"/>
      <point x="653" y="218" type="curve" smooth="yes"/>
      <point x="586" y="482" type="line" smooth="yes"/>
      <point x="579" y="511"/>
      <point x="594" y="530"/>
      <point x="624" y="530" type="curve" smooth="yes"/>
      <point x="630" y="530" type="line"/>
      <point x="630" y="700" type="line"/>
      <point x="137" y="700" type="line"/>
      <point x="137" y="530" type="line"/>
    </contour>
    <contour>
      <point x="10" y="143" type="curve" smooth="yes"/>
      <point x="10" y="44"/>
      <point x="91" y="-18"/>
      <point x="191" y="-18" type="curve" smooth="yes"/>
      <point x="273" y="-18"/>
      <point x="349" y="24"/>
      <point x="349" y="101" type="curve" smooth="yes"/>
      <point x="349" y="164"/>
      <point x="305" y="200"/>
      <point x="244" y="200" type="curve"/>
      <point x="244" y="180"/>
      <point x="233" y="174"/>
      <point x="223" y="174" type="curve" smooth="yes"/>
      <point x="210" y="174"/>
      <point x="198" y="183"/>
      <point x="198" y="201" type="curve" smooth="yes"/>
      <point x="198" y="215"/>
      <point x="205" y="252"/>
      <point x="369" y="252" type="curve"/>
      <point x="369" y="336" type="line"/>
      <point x="138" y="336"/>
      <point x="10" y="267"/>
    </contour>
    <contour>
      <point x="102" y="926" type="curve" smooth="yes"/>
      <point x="102" y="818"/>
      <point x="215" y="750"/>
      <point x="383" y="750" type="curve" smooth="yes"/>
      <point x="551" y="750"/>
      <point x="664" y="818"/>
      <point x="664" y="926" type="curve" smooth="yes"/>
      <point x="664" y="991"/>
      <point x="619" y="1038"/>
      <point x="564" y="1038" type="curve" smooth="yes"/>
      <point x="530" y="1038"/>
      <point x="498" y="1020"/>
      <point x="484" y="980" type="curve"/>
      <point x="501" y="974"/>
      <point x="506" y="965"/>
      <point x="506" y="956" type="curve" smooth="yes"/>
      <point x="506" y="936"/>
      <point x="463" y="901"/>
      <point x="383" y="901" type="curve" smooth="yes"/>
      <point x="303" y="901"/>
      <point x="260" y="936"/>
      <point x="260" y="956" type="curve" smooth="yes"/>
      <point x="260" y="965"/>
      <point x="265" y="974"/>
      <point x="282" y="980" type="curve"/>
      <point x="268" y="1020"/>
      <point x="236" y="1038"/>
      <point x="202" y="1038" type="curve" smooth="yes"/>
      <point x="147" y="1038"/>
      <point x="102" y="991"/>
    </contour>
  </outline>
</glyph>
<glyph name="abreve" format="1">
  <unicode hex="0103"/>
  <advance width="751"/>
  <outline>
    <contour>
      <point x="137" y="530" type="line"/>
      <point x="153" y="530" type="line" smooth="yes"/>
      <point x="183" y="530"/>
      <point x="198" y="511"/>
      <point x="190" y="482" type="curve" smooth="yes"/>
      <point x="163" y="378" type="line"/>
      <point x="343" y="378" type="line"/>
      <point x="373" y="491" type="line"/>
      <point x="441" y="219" type="line" smooth="yes"/>
      <point x="448" y="190"/>
      <point x="433" y="170"/>
      <point x="403" y="170" type="curve" smooth="yes"/>
      <point x="397" y="170" type="line"/>
      <point x="397" y="0" type="line"/>
      <point x="741" y="0" type="line"/>
      <point x="741" y="170" type="line"/>
      <point x="715" y="170" type="line" smooth="yes"/>
      <point x="685" y="170"/>
      <point x="660" y="189"/>
      <point x="653" y="218" type="curve" smooth="yes"/>
      <point x="586" y="482" type="line" smooth="yes"/>
      <point x="579" y="511"/>
      <point x="594" y="530"/>
      <point x="624" y="530" type="curve" smooth="yes"/>
      <point x="630" y="530" type="line"/>
      <point x="630" y="700" type="line"/>
      <point x="137" y="700" type="line"/>
    </contour>
    <contour>
      <point x="306" y="750" type="curve" smooth="yes"/>
      <point x="474" y="750"/>
      <point x="587" y="818"/>
      <point x="587" y="926" type="curve" smooth="yes"/>
      <point x="587" y="991"/>
      <point x="542" y="1038"/>
      <point x="487" y="1038" type="curve" smooth="yes"/>
      <point x="453" y="1038"/>
      <point x="421" y="1020"/>
      <point x="407" y="980" type="curve"/>
      <point x="424" y="974"/>
      <point x="429" y="965"/>
      <point x="429" y="956" type="curve" smooth="yes"/>
      <point x="429" y="936"/>
      <point x="386" y="901"/>
      <point x="306" y="901" type="curve" smooth="yes"/>
      <point x="226" y="901"/>
      <point x="183" y="936"/>
      <point x="183" y="956" type="curve" smooth="yes"/>
      <point x="183" y="965"/>
      <point x="188" y="974"/>
      <point x="205" y="980" type="curve"/>
      <point x="191" y="1020"/>
      <point x="159" y="1038"/>
      <point x="125" y="1038" type="curve" smooth="yes"/>
      <point x="70" y="1038"/>
      <point x="25" y="991"/>
      <point x="25" y="926" type="curve" smooth="yes"/>
      <point x="25" y="818"/>
      <point x="138" y="750"/>
    </contour>
    <contour>
      <point x="10" y="143" type="curve" smooth="yes"/>
      <point x="10" y="44"/>
      <point x="91" y="-18"/>
      <point x="191" y="-18" type="curve" smooth="yes"/>
      <point x="273" y="-18"/>
      <point x="349" y="24"/>
      <point x="349" y="101" type="curve" smooth="yes"/>
      <point x="349" y="164"/>
      <point x="305" y="200"/>
      <point x="244" y="200" type="curve"/>
      <point x="244" y="180"/>
      <point x="233" y="174"/>
      <point x="223" y="174" type="curve" smooth="yes"/>
      <point x="210" y="174"/>
      <point x="198" y="183"/>
      <point x="198" y="201" type="curve" smooth="yes"/>
      <point x="198" y="215"/>
      <point x="205" y="252"/>
      <point x="369" y="252" type="curve"/>
      <point x="369" y="336" type="line"/>
      <point x="138" y="336"/>
      <point x="10" y="267"/>
    </contour>
  </outline>
</glyph>
<glyph name="Aogonek" format="1">
  <unicode hex="0104"/>
  <advance width="751"/>
  <outline>
    <contour>
      <point x="153" y="530" type="line" smooth="yes"/>
      <point x="183" y="530"/>
      <point x="198" y="511"/>
      <point x="190" y="482" type="curve" smooth="yes"/>
      <point x="163" y="378" type="line"/>
      <point x="343" y="378" type="line"/>
      <point x="373" y="491" type="line"/>
      <point x="441" y="219" type="line" smooth="yes"/>
      <point x="448" y="190"/>
      <point x="433" y="170"/>
      <point x="403" y="170" type="curve" smooth="yes"/>
      <point x="397" y="170" type="line"/>
      <point x="397" y="0" type="line"/>
      <point x="741" y="0" type="line"/>
      <point x="741" y="170" type="line"/>
      <point x="715" y="170" type="line" smooth="yes"/>
      <point x="685" y="170"/>
      <point x="660" y="189"/>
      <point x="653" y="218" type="curve" smooth="yes"/>
      <point x="586" y="482" type="line" smooth="yes"/>
      <point x="579" y="511"/>
      <point x="594" y="530"/>
      <point x="624" y="530" type="curve" smooth="yes"/>
      <point x="630" y="530" type="line"/>
      <point x="630" y="700" type="line"/>
      <point x="137" y="700" type="line"/>
      <point x="137" y="530" type="line"/>
    </contour>
    <contour>
      <point x="10" y="143" type="curve" smooth="yes"/>
      <point x="10" y="44"/>
      <point x="91" y="-18"/>
      <point x="191" y="-18" type="curve" smooth="yes"/>
      <point x="273" y="-18"/>
      <point x="349" y="24"/>
      <point x="349" y="101" type="curve" smooth="yes"/>
      <point x="349" y="164"/>
      <point x="305" y="200"/>
      <point x="244" y="200" type="curve"/>
      <point x="244" y="180"/>
      <point x="233" y="174"/>
      <point x="223" y="174" type="curve" smooth="yes"/>
      <point x="210" y="174"/>
      <point x="198" y="183"/>
      <point x="198" y="201" type="curve" smooth="yes"/>
      <point x="198" y="215"/>
      <point x="205" y="252"/>
      <point x="369" y="252" type="curve"/>
      <point x="369" y="336" type="line"/>
      <point x="138" y="336"/>
      <point x="10" y="267"/>
    </contour>
    <contour>
      <point x="550" y="-172" type="curve" smooth="yes"/>
      <point x="550" y="-153"/>
      <point x="577" y="-106"/>
      <point x="741" y="-106" type="curve"/>
      <point x="741" y="-50" type="line"/>
      <point x="520" y="-50"/>
      <point x="382" y="-108"/>
      <point x="382" y="-220" type="curve" smooth="yes"/>
      <point x="382" y="-294"/>
      <point x="443" y="-356"/>
      <point x="558" y="-356" type="curve" smooth="yes"/>
      <point x="640" y="-356"/>
      <point x="701" y="-324"/>
      <point x="701" y="-254" type="curve" smooth="yes"/>
      <point x="701" y="-200"/>
      <point x="664" y="-168"/>
      <point x="596" y="-168" type="curve"/>
      <point x="596" y="-188"/>
      <point x="585" y="-194"/>
      <point x="575" y="-194" type="curve" smooth="yes"/>
      <point x="561" y="-194"/>
      <point x="550" y="-184"/>
    </contour>
  </outline>
</glyph>
<glyph name="Ccircumflex" format="1">
  <unicode hex="0108"/>
  <advance width="657"/>
  <outline>
    <contour>
      <point x="253" y="389" type="line"/>
      <point x="260" y="498"/>
      <point x="297" y="556"/>
      <point x="363" y="556" type="curve" smooth="yes"/>
      <point x="409" y="556"/>
      <point x="449" y="528"/>
      <point x="449" y="491" type="curve" smooth="yes"/>
      <point x="449" y="475"/>
      <point x="442" y="464"/>
      <point x="434" y="464" type="curve" smooth="yes"/>
      <point x="431" y="464"/>
      <point x="427" y="465"/>
      <point x="424" y="468" type="curve"/>
      <point x="416" y="459"/>
      <point x="411" y="445"/>
      <point x="411" y="428" type="curve" smooth="yes"/>
      <point x="411" y="381"/>
      <point x="448" y="336"/>
      <point x="512" y="336" type="curve" smooth="yes"/>
      <point x="588" y="336"/>
      <point x="635" y="398"/>
      <point x="635" y="479" type="curve" smooth="yes"/>
      <point x="635" y="619"/>
      <point x="510" y="718"/>
      <point x="335" y="718" type="curve" smooth="yes"/>
      <point x="144" y="718"/>
      <point x="33" y="600"/>
      <point x="21" y="389" type="curve"/>
    </contour>
    <contour>
      <point x="20" y="329" type="line"/>
      <point x="26" y="92"/>
      <point x="127" y="-18"/>
      <point x="340" y="-18" type="curve" smooth="yes"/>
      <point x="522" y="-18"/>
      <point x="628" y="81"/>
      <point x="642" y="263" type="curve"/>
      <point x="482" y="263" type="line"/>
      <point x="472" y="188"/>
      <point x="432" y="145"/>
      <point x="370" y="145" type="curve" smooth="yes"/>
      <point x="291" y="145"/>
      <point x="256" y="199"/>
      <point x="252" y="329" type="curve"/>
    </contour>
    <contour>
      <point x="188" y="748" type="curve" smooth="yes"/>
      <point x="237" y="748"/>
      <point x="275" y="779"/>
      <point x="275" y="816" type="curve" smooth="yes"/>
      <point x="275" y="828"/>
      <point x="272" y="842"/>
      <point x="265" y="855" type="curve"/>
      <point x="261" y="852"/>
      <point x="258" y="851"/>
      <point x="254" y="851" type="curve" smooth="yes"/>
      <point x="244" y="851"/>
      <point x="236" y="858"/>
      <point x="236" y="868" type="curve" smooth="yes"/>
      <point x="236" y="890"/>
      <point x="272" y="922"/>
      <point x="336" y="952" type="curve"/>
      <point x="400" y="922"/>
      <point x="436" y="890"/>
      <point x="436" y="868" type="curve" smooth="yes"/>
      <point x="436" y="858"/>
      <point x="428" y="851"/>
      <point x="418" y="851" type="curve" smooth="yes"/>
      <point x="414" y="851"/>
      <point x="411" y="852"/>
      <point x="407" y="855" type="curve"/>
      <point x="400" y="842"/>
      <point x="397" y="828"/>
      <point x="397" y="816" type="curve" smooth="yes"/>
      <point x="397" y="779"/>
      <point x="435" y="748"/>
      <point x="484" y="748" type="curve" smooth="yes"/>
      <point x="546" y="748"/>
      <point x="582" y="799"/>
      <point x="582" y="860" type="curve" smooth="yes"/>
      <point x="582" y="984"/>
      <point x="432" y="1037"/>
      <point x="336" y="1079" type="curve"/>
      <point x="240" y="1037"/>
      <point x="90" y="984"/>
      <point x="90" y="860" type="curve" smooth="yes"/>
      <point x="90" y="799"/>
      <point x="126" y="748"/>
    </contour>
    <contour>
      <point x="322" y="750" type="move" name="top"/>
    </contour>
  </outline>
</glyph>
